<?xml version="1.0" encoding="utf-8" standalone="no"?>
<!DOCTYPE svg PUBLIC "-//W3C//DTD SVG 1.1//EN"
  "http://www.w3.org/Graphics/SVG/1.1/DTD/svg11.dtd">
<svg xmlns:xlink="http://www.w3.org/1999/xlink" width="460.8pt" height="345.6pt" viewBox="0 0 460.8 345.6" xmlns="http://www.w3.org/2000/svg" version="1.1">
 <metadata>
  <rdf:RDF xmlns:dc="http://purl.org/dc/elements/1.1/" xmlns:cc="http://creativecommons.org/ns#" xmlns:rdf="http://www.w3.org/1999/02/22-rdf-syntax-ns#">
   <cc:Work>
    <dc:type rdf:resource="http://purl.org/dc/dcmitype/StillImage"/>
    <dc:date>2024-08-28T18:18:04.456936</dc:date>
    <dc:format>image/svg+xml</dc:format>
    <dc:creator>
     <cc:Agent>
      <dc:title>Matplotlib v3.7.1, https://matplotlib.org/</dc:title>
     </cc:Agent>
    </dc:creator>
   </cc:Work>
  </rdf:RDF>
 </metadata>
 <defs>
  <style type="text/css">*{stroke-linejoin: round; stroke-linecap: butt}</style>
 </defs>
 <g id="figure_1">
  <g id="patch_1">
   <path d="M 0 345.6 
L 460.8 345.6 
L 460.8 0 
L 0 0 
z
" style="fill: #ffffff"/>
  </g>
  <g id="axes_1">
   <g id="patch_2">
    <path d="M 57.6 307.584 
L 414.72 307.584 
L 414.72 41.472 
L 57.6 41.472 
z
" style="fill: #ffffff"/>
   </g>
   <g id="line2d_1">
    <path d="M 57.989413 216.960474 
L 58.423028 216.46838 
L 58.835331 216.203639 
L 61.806245 210.609677 
L 62.188902 210.083766 
L 62.577934 210.083766 
L 63.742757 208.689666 
L 64.576859 207.200594 
L 65.394155 206.186491 
L 65.821942 206.082053 
L 66.224206 205.611486 
L 66.623883 205.397388 
L 67.468848 204.507411 
L 69.047231 202.168828 
L 69.497881 201.451234 
L 70.651033 200.588349 
L 71.05985 200.769119 
L 71.844253 201.818041 
L 72.230836 202.162166 
L 72.661072 202.225149 
L 73.490642 202.094285 
L 73.918904 202.227845 
L 74.332427 201.884342 
L 74.710337 201.11136 
L 75.133499 200.766023 
L 75.510283 200.646503 
L 75.910379 200.781669 
L 77.078749 202.246245 
L 77.508348 202.545126 
L 77.911354 202.633075 
L 78.35345 202.860599 
L 78.757854 202.686046 
L 79.629442 201.505918 
L 80.383347 199.864683 
L 82.811025 195.274083 
L 84.339956 190.182385 
L 84.721679 189.690539 
L 85.115653 189.577364 
L 85.519831 189.759822 
L 86.333149 191.106198 
L 86.774191 191.575001 
L 90.850887 197.116454 
L 91.297836 197.385732 
L 92.231451 196.510088 
L 92.801475 197.778057 
L 93.420662 199.45571 
L 93.823588 199.328272 
L 94.356478 200.855723 
L 94.902469 199.835803 
L 95.460413 202.617379 
L 95.986754 202.728549 
L 96.710318 203.081271 
L 97.18031 203.692434 
L 97.872032 200.961589 
L 98.164104 201.054284 
L 98.597317 200.732714 
L 99.228674 201.666291 
L 99.756131 203.081556 
L 100.052126 203.206044 
L 100.438297 203.777819 
L 100.745552 205.090042 
L 101.119485 205.964113 
L 101.38262 207.256636 
L 101.90792 208.736261 
L 102.205529 209.151484 
L 102.57105 209.919999 
L 102.938762 211.446257 
L 104.0598 215.266452 
L 105.002809 221.194089 
L 105.537494 223.853144 
L 106.090267 224.761419 
L 106.723845 224.686153 
L 107.374672 223.075657 
L 107.934166 222.747197 
L 109.001328 222.714979 
L 109.564028 220.123069 
L 110.000262 220.115481 
L 110.464621 218.600332 
L 111.269417 212.827465 
L 111.710168 210.590681 
L 112.203457 209.696117 
L 113.12659 206.000874 
L 113.712575 206.071635 
L 113.963645 205.717371 
L 115.060262 206.580187 
L 115.790386 206.605235 
L 116.214534 207.455907 
L 116.376132 207.414477 
L 116.741585 208.242867 
L 117.326595 207.035971 
L 117.823326 207.335353 
L 118.75234 208.943298 
L 119.060905 209.253791 
L 119.598887 208.741603 
L 120.872603 208.380411 
L 123.237028 209.669108 
L 123.872882 209.370379 
L 124.42049 210.863506 
L 124.99934 211.570586 
L 125.42742 211.712173 
L 125.8295 211.662976 
L 126.260466 212.038634 
L 126.923437 211.784279 
L 127.189132 212.059362 
L 127.673389 212.374695 
L 128.042445 212.110633 
L 128.426802 212.04574 
L 128.772911 211.791239 
L 129.885572 209.773934 
L 130.233224 209.6342 
L 130.489983 209.081845 
L 130.900663 209.415902 
L 131.63399 208.554108 
L 131.947301 208.50101 
L 132.553074 208.938711 
L 132.8213 209.541531 
L 141.292969 230.748752 
L 141.761331 229.284773 
L 142.378125 229.32555 
L 143.625359 228.531078 
L 144.872218 228.968072 
L 145.68241 229.510603 
L 146.120297 229.298639 
L 147.770978 226.382712 
L 148.548954 224.279479 
L 148.935726 223.710498 
L 149.372799 223.329701 
L 149.716449 222.442236 
L 150.89065 221.451846 
L 151.296116 221.170621 
L 152.08429 221.307655 
L 152.477976 220.728932 
L 152.90062 220.469689 
L 153.314356 220.45687 
L 154.452692 221.456428 
L 154.850386 221.946552 
L 156.061608 224.391652 
L 156.486131 224.565004 
L 157.31926 223.798622 
L 158.53518 221.333234 
L 159.356539 219.512472 
L 159.778955 218.887261 
L 160.200303 218.60244 
L 160.586966 218.739071 
L 161.045005 219.365566 
L 161.872153 221.491178 
L 162.260594 222.054995 
L 162.649254 223.388124 
L 163.028661 223.742687 
L 163.451281 223.679475 
L 164.208049 222.715812 
L 164.988691 220.960204 
L 166.598035 218.001153 
L 167.029271 217.61977 
L 167.266328 216.58335 
L 170.076162 216.177416 
L 170.423272 214.021551 
L 170.606002 213.803462 
L 171.145862 213.507721 
L 171.435833 213.049736 
L 171.799252 211.355098 
L 172.307036 210.919681 
L 172.879798 211.259663 
L 173.428465 210.946328 
L 173.731891 210.196935 
L 174.350893 209.595511 
L 174.764944 210.549809 
L 175.274007 211.195252 
L 175.723206 211.485512 
L 176.052819 211.214223 
L 176.429396 210.221717 
L 176.672725 210.159515 
L 177.255288 210.289788 
L 177.525903 209.988394 
L 178.056285 209.697139 
L 178.365831 209.206923 
L 178.699538 209.661469 
L 179.028454 209.117102 
L 179.152288 209.346771 
L 179.090874 209.360151 
L 179.400305 209.455828 
L 179.654339 209.663246 
L 180.108458 210.521011 
L 180.785594 211.294717 
L 181.377015 209.854751 
L 181.716378 208.706702 
L 182.7121 208.909646 
L 183.018509 209.589959 
L 183.608625 209.267489 
L 184.01046 208.495591 
L 184.529311 209.13653 
L 184.638011 209.082086 
L 185.452101 206.986349 
L 186.373071 205.210196 
L 186.681184 204.939815 
L 186.861951 204.994048 
L 187.228637 204.902826 
L 187.684925 204.24996 
L 187.732225 204.318875 
L 187.891169 204.428364 
L 188.238395 204.44215 
L 188.615915 205.052159 
L 188.968177 205.202113 
L 189.37346 204.837939 
L 189.68391 205.120503 
L 190.07854 205.238519 
L 190.63383 205.344689 
L 191.614651 207.558658 
L 191.784248 208.016218 
L 192.272057 208.446852 
L 192.53943 208.525297 
L 192.670508 208.37033 
L 193.246305 208.94694 
L 193.590083 208.471583 
L 193.968791 207.327492 
L 194.177204 207.393686 
L 194.495764 207.171136 
L 194.971667 205.837272 
L 196.209711 204.049927 
L 196.553025 204.358877 
L 196.910646 204.304009 
L 197.043003 204.521388 
L 197.348779 204.808431 
L 197.514037 205.260439 
L 198.141782 206.423348 
L 198.446461 207.54253 
L 198.757402 207.822435 
L 199.078764 207.754833 
L 199.368437 207.551267 
L 199.924335 207.584144 
L 200.620131 206.368214 
L 200.810556 205.741176 
L 201.122608 205.574351 
L 201.512834 204.503972 
L 201.766468 204.187491 
L 203.033863 201.66664 
L 203.517204 201.40075 
L 203.89741 201.720106 
L 204.359289 201.051238 
L 204.671534 199.925363 
L 204.967652 199.279013 
L 205.153119 199.22785 
L 205.515711 198.852605 
L 205.901495 198.684358 
L 206.068962 198.473388 
L 219.547902 193.93749 
L 220.069258 195.286125 
L 220.466495 197.231571 
L 221.122481 198.968952 
L 221.640518 197.775037 
L 222.248287 198.122569 
L 222.850864 197.114424 
L 223.280862 198.458668 
L 223.833351 196.619799 
L 224.327925 193.408959 
L 224.715801 192.335427 
L 225.18854 193.065945 
L 225.745988 191.703377 
L 226.306056 189.094336 
L 227.344959 186.436442 
L 227.682514 184.830851 
L 228.047714 183.784981 
L 228.604891 183.888868 
L 228.845082 183.13976 
L 229.206125 183.219207 
L 230.772944 192.838503 
L 231.448531 193.108745 
L 231.702178 193.528695 
L 232.106324 192.404164 
L 232.588179 191.637888 
L 233.113538 188.950009 
L 234.272285 185.749283 
L 234.860271 187.595144 
L 235.320149 186.466046 
L 236.110402 183.774652 
L 236.366489 182.616521 
L 237.016625 180.70847 
L 237.500133 179.970046 
L 237.733468 178.102093 
L 238.669133 172.817812 
L 238.973927 172.232141 
L 239.428137 172.789058 
L 240.021314 172.731474 
L 243.057523 189.32849 
L 243.970203 191.397212 
L 244.378352 190.403241 
L 244.895679 189.930733 
L 245.472999 188.852112 
L 245.790112 187.678348 
L 246.264672 187.200434 
L 246.635374 186.645243 
L 247.06554 186.784888 
L 247.717728 188.439091 
L 248.215493 187.157595 
L 248.665686 187.293623 
L 249.196197 189.311157 
L 249.64701 189.874329 
L 250.172808 190.074375 
L 250.626449 188.812103 
L 251.173863 188.566389 
L 251.631727 189.16079 
L 252.098771 188.592795 
L 252.407156 187.601984 
L 252.931933 187.001772 
L 253.91207 190.004026 
L 254.481268 190.922572 
L 254.783893 190.004901 
L 255.341921 190.936556 
L 255.856963 191.482179 
L 256.492688 190.722781 
L 257.004669 187.708129 
L 257.659015 186.236422 
L 258.051384 186.396547 
L 258.46085 187.003117 
L 258.895019 189.093613 
L 259.469666 190.168719 
L 259.953613 192.553846 
L 260.487327 193.760463 
L 261.095328 194.029779 
L 261.512542 195.926333 
L 262.155446 196.741158 
L 262.745602 197.09671 
L 263.032667 197.619746 
L 263.609497 200.602485 
L 264.15846 202.442623 
L 265.66628 198.39139 
L 266.244956 198.310991 
L 266.468968 198.708036 
L 266.931932 198.388687 
L 267.515696 198.886688 
L 268.130541 200.643065 
L 268.695865 200.258658 
L 269.165957 200.83155 
L 269.771143 202.637865 
L 270.273078 205.689671 
L 270.60087 206.782009 
L 271.636945 212.792589 
L 272.141333 214.864419 
L 272.720926 214.828636 
L 273.307415 213.508419 
L 273.693095 211.98447 
L 274.034847 209.775241 
L 274.911719 205.800023 
L 275.185264 203.424603 
L 276.069278 198.564851 
L 277.599294 193.334753 
L 278.14122 191.574861 
L 278.421971 190.661441 
L 278.80977 191.137705 
L 279.460344 190.854279 
L 280.189429 191.462752 
L 280.519662 191.977299 
L 280.882745 190.846361 
L 281.381362 191.52734 
L 281.72146 193.492733 
L 282.29696 195.049344 
L 283.272938 198.367496 
L 283.713602 197.491497 
L 284.024595 197.569104 
L 284.763028 196.567748 
L 285.363811 193.620717 
L 285.832366 191.972147 
L 286.049173 191.771277 
L 286.511014 193.797262 
L 286.669661 193.779751 
L 287.169775 195.580743 
L 287.678283 198.364133 
L 288.048442 199.301523 
L 288.520097 199.181585 
L 288.787728 198.884759 
L 289.448065 200.454452 
L 289.955436 199.346519 
L 290.448629 197.860486 
L 290.875296 197.438088 
L 291.133062 198.928156 
L 291.740456 203.527208 
L 292.61135 207.943636 
L 293.203765 208.563111 
L 293.702485 209.362848 
L 294.012832 208.653312 
L 294.355823 205.971295 
L 294.750077 203.794093 
L 295.266436 202.279547 
L 296.010112 198.035483 
L 296.52394 196.898339 
L 297.08991 197.17117 
L 297.478561 196.284715 
L 298.013695 195.538691 
L 298.540693 196.371699 
L 299.046774 199.051229 
L 299.311745 199.668254 
L 299.837039 199.361797 
L 300.470104 200.033158 
L 300.989872 199.599961 
L 301.45618 196.368908 
L 301.897361 196.271759 
L 302.198953 193.931171 
L 302.743746 191.765935 
L 303.056985 189.873289 
L 303.463766 189.141845 
L 304.018914 187.517372 
L 304.429 184.192165 
L 307.470181 167.089611 
L 307.927631 166.900707 
L 308.789589 162.517359 
L 309.397164 160.615983 
L 309.786925 160.934824 
L 310.402145 160.728473 
L 310.830567 161.29988 
L 311.234713 162.306566 
L 311.831493 162.938248 
L 312.917773 166.288262 
L 313.828154 170.839234 
L 314.076649 171.418281 
L 314.660128 171.860119 
L 315.08274 172.917409 
L 315.656638 172.363729 
L 316.198693 174.68041 
L 316.816882 173.573949 
L 317.260284 171.733024 
L 317.759287 170.217171 
L 318.112738 170.451008 
L 318.517323 169.439386 
L 319.063717 167.176646 
L 319.394105 167.077303 
L 319.93492 167.108353 
L 320.497584 168.46389 
L 321.090387 168.565328 
L 321.258099 168.20111 
L 321.546494 168.364965 
L 321.988398 169.728764 
L 322.500495 170.606451 
L 322.922538 170.719715 
L 323.848415 175.842501 
L 324.194402 176.803353 
L 324.735914 180.145792 
L 325.327968 180.547735 
L 325.937403 181.257874 
L 326.101215 181.105198 
L 326.62279 180.336942 
L 326.901475 180.400858 
L 327.153715 179.656928 
L 327.774254 179.252357 
L 328.012031 179.319991 
L 328.780061 178.545302 
L 329.916598 180.731183 
L 330.564228 182.061114 
L 331.03423 183.789283 
L 331.61443 183.960727 
L 332.010157 185.762937 
L 332.470474 187.116241 
L 332.956565 187.935977 
L 333.387285 189.138127 
L 333.796364 189.282911 
L 334.26244 189.294382 
L 335.281599 186.438295 
L 335.749689 186.031808 
L 336.227335 185.890933 
L 336.786565 182.903398 
L 337.350443 179.273015 
L 338.365547 174.44453 
L 338.845982 173.403901 
L 339.275954 171.495203 
L 339.839832 171.227537 
L 340.534284 171.489518 
L 340.814441 172.334924 
L 341.410679 171.865106 
L 341.972981 170.900536 
L 343.095985 168.089863 
L 343.77409 165.897841 
L 344.222915 162.576592 
L 345.005226 159.850316 
L 345.443591 159.284555 
L 345.608488 159.525269 
L 346.023352 161.292381 
L 346.573826 164.850156 
L 347.00762 166.268124 
L 347.538287 166.997767 
L 347.491542 167.261474 
L 348.644736 163.790353 
L 349.624769 158.570647 
L 350.522547 158.663215 
L 351.027336 159.129911 
L 351.460433 157.21195 
L 352.023097 155.396302 
L 352.415725 153.468595 
L 353.134892 154.110885 
L 354.194598 158.810143 
L 354.414064 159.410381 
L 355.20167 164.954093 
L 355.657571 167.075818 
L 356.237667 168.197113 
L 356.587812 169.905169 
L 357.648782 177.206971 
L 358.689893 182.248026 
L 359.372259 182.508865 
L 359.637592 184.027231 
L 360.213918 184.29944 
L 360.667572 184.353775 
L 361.180212 183.994264 
L 361.517805 184.791134 
L 361.996588 187.143155 
L 362.447401 188.647968 
L 363.137979 188.661774 
L 363.740957 186.874308 
L 364.350831 186.417421 
L 364.974314 188.903592 
L 365.405035 191.538367 
L 366.006851 193.214586 
L 366.365131 192.989657 
L 367.990263 186.659049 
L 368.138942 186.522716 
L 368.546239 185.248846 
L 369.065645 185.531714 
L 369.458014 184.192482 
L 369.950045 180.397254 
L 371.695913 175.496834 
L 371.877054 175.353712 
L 372.293364 175.680307 
L 372.736145 175.383494 
L 373.369727 174.421385 
L 374.020482 173.175914 
L 374.694042 169.142205 
L 375.209316 165.990535 
L 375.646312 164.661214 
L 376.293943 164.784362 
L 376.712706 164.217117 
L 377.48696 164.854191 
L 378.122763 165.243661 
L 378.714326 167.323689 
L 379.080689 165.492205 
L 379.652831 165.789944 
L 379.887819 165.15353 
L 380.424528 164.72551 
L 380.868833 163.637296 
L 381.43 163.834423 
L 381.915187 161.672423 
L 382.496678 160.999755 
L 383.72208 162.257319 
L 383.952084 161.825797 
L 384.597881 162.081586 
L 384.989682 161.443383 
L 385.353282 158.290076 
L 386.550922 156.646697 
L 387.148916 156.973609 
L 387.65089 155.704637 
L 388.092018 156.969789 
L 388.462642 156.37346 
L 388.883343 157.760911 
L 389.168536 157.809218 
L 389.648945 156.592907 
L 390.114634 156.282897 
L 390.512065 156.82149 
L 391.141721 159.213521 
L 391.765489 159.11575 
L 392.103134 161.006201 
L 392.390651 161.390227 
L 392.973304 160.531929 
L 393.664038 160.901122 
L 394.138998 160.873282 
L 394.618168 159.767633 
L 395.58224 158.501745 
L 396.663329 154.594966 
L 397.415037 152.293879 
L 397.988548 149.342826 
L 398.505759 147.270539 
L 399.051688 147.194568 
L 399.297265 147.741118 
L 399.693973 149.820093 
L 400.172859 149.039554 
L 400.741902 149.670576 
L 401.799954 148.463248 
L 402.545851 143.169653 
L 403.144646 140.873134 
L 403.522604 140.814472 
L 403.74579 140.413417 
L 404.209283 141.673125 
L 404.913524 142.532223 
L 405.429883 142.799826 
L 405.880231 145.147253 
L 406.247498 146.349835 
L 406.609677 146.832977 
L 407.272674 150.352532 
L 407.663675 151.594666 
L 408.190803 151.281788 
L 408.593322 150.375119 
L 408.927584 149.319605 
L 409.374136 147.443048 
L 409.605405 147.264105 
L 410.143973 146.180954 
L 410.546337 146.051423 
L 411.023544 146.769404 
L 411.301196 146.797815 
L 412.390343 150.293159 
L 412.741934 150.171596 
L 413.067079 150.775374 
L 413.368465 152.099874 
L 413.921986 152.699655 
L 414.336205 154.883734 
L 414.907159 155.567099 
L 415.355389 155.697899 
L 415.930191 157.631354 
L 417.651912 159.905209 
L 418.170776 161.019791 
L 418.55124 162.840553 
L 418.812183 162.745384 
L 419.17555 163.50614 
L 419.655856 165.930591 
L 420.713831 168.302306 
L 421.45978 169.42341 
L 421.968468 169.263273 
L 422.272049 167.459032 
L 422.782778 165.183146 
L 423.299937 163.624137 
L 423.779107 159.884171 
L 424.167138 158.898689 
L 424.708986 156.138405 
L 425.053966 155.644478 
L 425.463483 153.634887 
L 425.978938 153.828055 
L 426.683669 152.374443 
L 427.111523 152.224101 
L 427.665588 154.367512 
L 427.916329 153.404769 
L 428.605772 153.196171 
L 429.633969 155.483553 
L 430.115747 155.563203 
L 430.589468 157.211646 
L 431.019982 157.277033 
L 431.513743 158.344602 
L 431.879512 160.130214 
L 432.397136 160.953579 
L 433.022557 162.243792 
L 433.495709 162.675479 
L 434.143753 162.371636 
L 434.551257 164.481167 
L 435.067254 166.156574 
L 435.382611 166.078751 
L 435.934532 166.444339 
L 436.508146 167.452751 
L 436.508146 167.452751 
" clip-path="url(#p8edf5087cc)" style="fill: none; stroke: #ff0000; stroke-opacity: 0.5; stroke-width: 5; stroke-linecap: square"/>
   </g>
   <g id="line2d_2">
    <path d="M 58.222343 234.84747 
L 58.648706 233.694567 
L 59.025539 233.214005 
L 60.219362 226.297722 
L 61.083174 222.857994 
L 61.423155 220.186396 
L 62.547658 215.070065 
L 62.979143 211.961581 
L 63.505769 211.066403 
L 64.448539 206.713405 
L 64.915587 207.257217 
L 65.357421 206.990015 
L 65.810059 207.049905 
L 66.354639 206.965482 
L 66.618531 207.061729 
L 66.958411 204.323728 
L 67.356111 202.511093 
L 67.969339 201.527799 
L 68.441248 198.999345 
L 69.0322 197.19814 
L 69.477399 194.35065 
L 69.851339 193.796614 
L 70.367092 192.095789 
L 71.064436 193.023214 
L 71.378235 192.329287 
L 71.882979 190.487247 
L 72.221637 191.410673 
L 72.677551 193.858417 
L 74.120467 194.550872 
L 74.669928 193.708544 
L 75.178558 195.312041 
L 76.31625 198.055976 
L 76.60917 198.955713 
L 77.181099 197.523344 
L 77.839385 197.943125 
L 78.380155 196.942793 
L 78.894729 198.041625 
L 79.238695 199.534392 
L 80.165713 201.481691 
L 81.101201 205.016349 
L 81.610377 205.151529 
L 82.033911 204.010185 
L 82.92519 196.610177 
L 83.036844 196.495729 
L 83.634436 193.230933 
L 84.159369 193.634476 
L 84.863953 193.256586 
L 85.446095 193.805319 
L 86.114242 193.744222 
L 87.087226 188.85928 
L 87.579785 187.807287 
L 87.990961 187.484805 
L 88.344836 188.506512 
L 88.886433 189.669798 
L 89.880969 193.936427 
L 90.294868 196.274562 
L 90.850886 197.116453 
L 91.297836 197.385737 
L 92.231452 196.510085 
L 92.801477 197.778063 
L 93.420662 199.455711 
L 93.823589 199.328275 
L 94.356479 200.855721 
L 94.902467 199.835802 
L 95.460412 202.617376 
L 95.986753 202.728549 
L 96.710317 203.081269 
L 97.18031 203.692436 
L 97.872031 200.961586 
L 98.164104 201.054284 
L 98.597316 200.732715 
L 99.228674 201.666292 
L 99.756132 203.081558 
L 100.052125 203.206043 
L 100.438296 203.777821 
L 100.745551 205.090044 
L 101.119486 205.964115 
L 101.382618 207.256638 
L 101.907921 208.736259 
L 102.20553 209.151484 
L 102.57105 209.92 
L 102.938763 211.446255 
L 104.059801 215.266454 
L 105.002809 221.194089 
L 105.537494 223.853145 
L 106.090267 224.761417 
L 106.723845 224.68615 
L 107.374673 223.075658 
L 107.934165 222.747195 
L 109.001328 222.714978 
L 109.564028 220.123069 
L 110.000263 220.115482 
L 110.464621 218.600329 
L 111.269417 212.827464 
L 111.710167 210.590683 
L 112.203457 209.696118 
L 113.12659 206.000874 
L 113.720987 205.408793 
L 114.208869 205.956784 
L 114.4781 204.768463 
L 115.318682 202.160513 
L 115.624015 202.050641 
L 116.065322 201.021619 
L 116.527114 200.928132 
L 117.013653 199.918315 
L 117.560538 200.64424 
L 117.996675 202.32811 
L 118.940533 203.51546 
L 119.475235 202.777134 
L 120.191884 203.344118 
L 120.749273 205.996264 
L 121.392036 207.569455 
L 121.734301 209.200587 
L 122.412109 210.92484 
L 123.045218 211.441243 
L 123.584297 213.197027 
L 124.118447 213.68632 
L 124.588797 215.196504 
L 124.986409 215.672016 
L 125.928315 218.059871 
L 126.377789 217.238577 
L 127.437139 219.456639 
L 127.930655 222.444347 
L 128.750932 225.543259 
L 129.220726 226.89265 
L 129.807113 227.163033 
L 130.364064 229.300312 
L 130.896222 229.934733 
L 131.861207 233.981629 
L 132.192326 234.293731 
L 132.688781 237.170098 
L 133.195509 237.611452 
L 133.66292 236.79615 
L 134.025012 235.934336 
L 134.49482 233.665754 
L 134.927332 232.855289 
L 135.349842 230.869883 
L 135.702915 229.923592 
L 136.635295 226.67744 
L 137.444674 224.71036 
L 138.868422 229.771312 
L 139.267782 232.070757 
L 139.537102 232.79735 
L 140.161024 231.924805 
L 140.657562 230.841392 
L 141.292971 230.748754 
L 141.76133 229.284776 
L 142.378124 229.325549 
L 142.693169 228.360106 
L 143.119965 230.442092 
L 143.611879 230.366605 
L 144.188622 231.959048 
L 145.181818 231.918629 
L 146.179662 231.275864 
L 147.194381 228.759187 
L 148.01187 224.121816 
L 148.482591 223.821715 
L 148.698066 222.486164 
L 148.997276 221.687196 
L 149.48595 218.338007 
L 149.908438 217.545993 
L 150.661544 213.638581 
L 151.204975 213.488279 
L 151.77982 211.53078 
L 152.289238 211.245464 
L 152.83227 211.810535 
L 153.213954 213.119017 
L 153.721623 213.370241 
L 154.608518 217.069483 
L 155.111239 218.661151 
L 156.139856 223.687489 
L 156.249299 224.380185 
L 156.776323 226.545381 
L 157.889471 232.02181 
L 158.47864 233.386042 
L 158.779891 233.56236 
L 159.161023 232.056023 
L 160.283719 223.224521 
L 160.822162 221.014631 
L 161.442883 220.934403 
L 161.656816 221.677257 
L 162.244455 224.684081 
L 163.154556 230.26703 
L 163.908161 234.143208 
L 164.34436 235.229081 
L 164.801559 234.737388 
L 165.256185 233.852016 
L 166.356638 229.649398 
L 166.792169 225.584086 
L 167.186869 223.189461 
L 167.633397 222.12067 
L 168.211328 222.803092 
L 168.705417 220.670844 
L 169.101812 218.061503 
L 169.658278 216.292025 
L 170.076162 216.177419 
L 170.423277 214.021548 
L 170.606006 213.803463 
L 171.145866 213.50772 
L 171.435834 213.049738 
L 171.799246 211.355096 
L 172.30704 210.919684 
L 172.879792 211.25966 
L 173.42846 210.946325 
L 173.731892 210.196937 
L 174.35089 209.595509 
L 174.764945 210.549806 
L 175.345264 213.067772 
L 175.816807 213.462179 
L 176.277362 213.615175 
L 176.60444 213.174179 
L 177.1236 213.143586 
L 177.727812 214.821814 
L 178.159039 213.466965 
L 178.71568 213.423118 
L 179.137836 211.243171 
L 179.700191 210.720063 
L 180.023052 209.898617 
L 180.662661 211.143214 
L 181.291911 213.547082 
L 181.947825 213.900902 
L 182.573896 212.103305 
L 183.141722 209.448599 
L 184.15665 201.973637 
L 184.670984 202.055261 
L 185.230355 202.39613 
L 185.577209 203.581377 
L 186.001433 206.001294 
L 186.347917 206.89793 
L 186.895656 206.563025 
L 187.326666 206.475971 
L 187.809614 207.458943 
L 188.202184 206.68137 
L 189.035722 201.547801 
L 189.445783 201.718455 
L 189.862893 200.13442 
L 190.335215 196.980413 
L 190.740822 195.729977 
L 191.222311 195.571698 
L 191.709518 196.022756 
L 192.270156 194.877123 
L 192.533221 194.870448 
L 192.970674 194.551242 
L 193.551105 192.654147 
L 194.47383 190.89215 
L 194.877542 190.209092 
L 195.307291 190.455697 
L 195.809673 190.020972 
L 196.179292 190.964354 
L 196.477803 192.347975 
L 196.876129 192.898495 
L 197.395235 194.324365 
L 199.385454 204.036062 
L 200.125036 206.002854 
L 201.049405 209.899713 
L 201.640669 209.518451 
L 202.389397 206.932482 
L 202.946912 203.062718 
L 203.557326 200.453476 
L 204.081934 200.267568 
L 204.451013 198.873436 
L 204.936259 198.543356 
L 205.401678 198.990512 
L 205.909652 200.964641 
L 206.2304 201.486276 
L 206.69733 202.696901 
L 208.845146 214.684037 
L 209.30861 215.224973 
L 209.803723 214.84935 
L 210.679719 213.001755 
L 211.484829 209.286799 
L 211.902504 207.664445 
L 212.424524 206.921267 
L 212.739612 207.236502 
L 213.564887 205.642695 
L 214.872938 200.281811 
L 215.378672 199.041076 
L 216.017811 198.738976 
L 216.396055 198.791245 
L 216.877373 197.830352 
L 217.235301 196.034254 
L 217.729295 195.028676 
L 218.006546 193.978455 
L 218.502115 192.648772 
L 219.082355 193.49596 
L 219.248667 193.403372 
L 219.547907 193.937488 
L 220.069253 195.28612 
L 220.466492 197.231574 
L 221.122481 198.968947 
L 221.640513 197.775038 
L 222.248292 198.122566 
L 222.850868 197.114425 
L 223.280858 198.45867 
L 223.833356 196.619802 
L 224.32793 193.408964 
L 224.715797 192.335431 
L 225.188543 193.065943 
L 225.745993 191.703378 
L 226.306055 189.094334 
L 227.344961 186.436441 
L 227.682518 184.830849 
L 228.047709 183.784984 
L 228.604894 183.888874 
L 228.845077 183.139763 
L 229.206123 183.219202 
L 230.77295 192.838498 
L 231.448534 193.108746 
L 231.702174 193.528695 
L 232.106321 192.404166 
L 232.588174 191.63789 
L 233.113538 188.950012 
L 234.272288 185.749285 
L 234.860273 187.595143 
L 235.320152 186.466041 
L 236.110399 183.774658 
L 236.366489 182.616523 
L 237.016622 180.70847 
L 237.500135 179.970042 
L 237.733473 178.102088 
L 238.669127 172.817815 
L 238.973927 172.232138 
L 239.428139 172.789062 
L 240.021309 172.731469 
L 243.057522 189.328484 
L 243.970208 191.397216 
L 244.378345 190.403246 
L 244.895675 189.930727 
L 245.473002 188.852107 
L 245.790118 187.678348 
L 246.264669 187.200438 
L 246.635378 186.645247 
L 247.065542 186.784892 
L 247.717723 188.439091 
L 248.215489 187.157589 
L 248.665684 187.293624 
L 249.196198 189.311161 
L 249.647009 189.874328 
L 250.172811 190.074375 
L 250.626455 188.812106 
L 251.173865 188.566388 
L 251.631723 189.160784 
L 252.098767 188.592792 
L 252.407161 187.601981 
L 252.931929 187.001767 
L 253.912071 190.004026 
L 254.481274 190.922569 
L 254.783898 190.004898 
L 255.341917 190.936562 
L 255.856962 191.482176 
L 256.492688 190.722784 
L 257.004672 187.708128 
L 257.659015 186.236424 
L 258.051383 186.396544 
L 258.460852 187.003116 
L 258.895023 189.093607 
L 259.46967 190.168721 
L 259.953609 192.553849 
L 260.487326 193.760463 
L 261.095334 194.029779 
L 261.512538 195.926337 
L 262.155444 196.741158 
L 262.745598 197.096709 
L 263.032664 197.61975 
L 263.609503 200.602487 
L 264.158466 202.442621 
L 265.666285 198.391384 
L 266.244953 198.31099 
L 266.468968 198.708034 
L 266.931931 198.388692 
L 267.515698 198.886685 
L 268.130543 200.64306 
L 268.695863 200.25866 
L 269.165954 200.831552 
L 269.771137 202.637864 
L 270.273076 205.689668 
L 270.600869 206.782008 
L 271.636951 212.79259 
L 272.141333 214.864421 
L 272.720929 214.828637 
L 273.307417 213.508417 
L 273.693092 211.984468 
L 274.034853 209.775239 
L 274.911709 205.800023 
L 275.185269 203.424603 
L 276.069265 198.564857 
L 277.599297 193.334757 
L 278.141222 191.574865 
L 278.421962 190.661435 
L 278.809776 191.137704 
L 279.460344 190.854273 
L 280.189419 191.462751 
L 280.51966 191.977295 
L 280.882747 190.846357 
L 281.38135 191.527335 
L 281.721448 193.492737 
L 282.296972 195.049346 
L 283.272937 198.367494 
L 283.713593 197.491502 
L 284.024602 197.569102 
L 284.763018 196.567743 
L 285.363811 193.62072 
L 285.832374 191.97215 
L 286.049164 191.771282 
L 286.511004 193.797267 
L 286.669659 193.779749 
L 287.169775 195.580744 
L 287.67828 198.364129 
L 288.048451 199.301521 
L 288.520108 199.181583 
L 288.787739 198.884764 
L 289.448062 200.454452 
L 289.955441 199.346522 
L 290.448623 197.860487 
L 290.875286 197.438088 
L 291.133059 198.928161 
L 291.740452 203.527205 
L 292.611356 207.943635 
L 293.203755 208.563112 
L 293.702482 209.362848 
L 294.012838 208.653312 
L 294.355811 205.971292 
L 294.75007 203.794091 
L 295.266427 202.279548 
L 296.010112 198.035479 
L 296.523947 196.898345 
L 297.089902 197.171174 
L 297.478572 196.284714 
L 298.013703 195.53869 
L 298.54069 196.371698 
L 299.046769 199.051223 
L 299.311742 199.668251 
L 299.837032 199.361801 
L 300.470099 200.033161 
L 300.989878 199.599965 
L 301.456171 196.368914 
L 301.89737 196.271762 
L 302.198954 193.931176 
L 302.743738 191.765932 
L 303.056987 189.873294 
L 303.463761 189.141842 
L 304.018921 187.517378 
L 304.428989 184.192164 
L 307.470173 167.089613 
L 307.927643 166.900706 
L 308.78958 162.517359 
L 309.397165 160.615981 
L 309.786938 160.93483 
L 310.402154 160.728469 
L 310.830578 161.29988 
L 311.234704 162.306565 
L 311.83149 162.938252 
L 312.917766 166.288265 
L 313.828145 170.839237 
L 314.07664 171.418279 
L 314.660129 171.860121 
L 315.082728 172.917416 
L 315.656647 172.363724 
L 316.198706 174.680416 
L 316.816877 173.573954 
L 317.260276 171.733022 
L 317.759277 170.217168 
L 318.112742 170.451005 
L 318.517317 169.439388 
L 319.063728 167.17665 
L 319.394107 167.077308 
L 319.934915 167.108352 
L 320.49759 168.463888 
L 321.090381 168.565324 
L 321.258088 168.201112 
L 321.546495 168.36497 
L 321.988387 169.72877 
L 322.500499 170.606446 
L 322.922547 170.719719 
L 323.848421 175.842497 
L 324.194393 176.803349 
L 324.735907 180.145793 
L 325.327972 180.54773 
L 325.93739 181.257873 
L 326.101225 181.105195 
L 326.622791 180.336943 
L 326.901472 180.400855 
L 327.153708 179.656932 
L 327.774249 179.252353 
L 328.012033 179.319994 
L 328.780056 178.545301 
L 329.916607 180.731183 
L 330.564239 182.061108 
L 331.034241 183.789284 
L 331.614424 183.960731 
L 332.01016 185.762941 
L 332.470461 187.116235 
L 332.956577 187.935978 
L 333.387279 189.13813 
L 333.796363 189.282911 
L 334.262435 189.294383 
L 335.281592 186.438297 
L 335.749691 186.031813 
L 336.227328 185.890932 
L 336.786553 182.903394 
L 337.350448 179.273012 
L 338.365538 174.444529 
L 338.845987 173.403895 
L 339.275958 171.495201 
L 339.83982 171.22754 
L 340.534293 171.489517 
L 340.814453 172.334922 
L 341.410676 171.865103 
L 341.972973 170.900541 
L 343.09598 168.089866 
L 343.77408 165.897841 
L 344.222919 162.576596 
L 345.005239 159.850321 
L 345.443582 159.284559 
L 345.608499 159.525264 
L 346.023353 161.29238 
L 346.57383 164.850154 
L 347.007611 166.268121 
L 347.538275 166.99777 
L 347.491532 167.261473 
L 348.64474 163.790353 
L 349.624771 158.57065 
L 350.522542 158.66321 
L 351.027333 159.129911 
L 351.460436 157.211953 
L 352.023105 155.396305 
L 352.415734 153.468598 
L 353.134894 154.110887 
L 354.194594 158.810142 
L 354.414066 159.410379 
L 355.201674 164.9541 
L 355.657561 167.075821 
L 356.237667 168.197113 
L 356.587806 169.905166 
L 357.648782 177.206968 
L 358.689889 182.248028 
L 359.372249 182.508867 
L 359.637595 184.02723 
L 360.213914 184.299443 
L 360.667565 184.353777 
L 361.180219 183.99427 
L 361.517793 184.791134 
L 361.996578 187.143157 
L 362.447406 188.647974 
L 363.137983 188.661769 
L 363.74097 186.874306 
L 364.35084 186.417418 
L 364.974326 188.903597 
L 365.405035 191.538365 
L 366.00684 193.214585 
L 366.365142 192.989652 
L 367.990271 186.659053 
L 368.138943 186.522721 
L 368.546232 185.248847 
L 369.065634 185.531709 
L 369.458014 184.192482 
L 369.950051 180.397254 
L 371.695923 175.496829 
L 371.877053 175.353709 
L 372.293359 175.680312 
L 372.736137 175.383494 
L 373.369728 174.421389 
L 374.020483 173.175918 
L 374.694045 169.142203 
L 375.209319 165.990539 
L 375.646305 164.661216 
L 376.293932 164.784361 
L 376.7127 164.217117 
L 377.486967 164.854193 
L 378.122764 165.243667 
L 378.71432 167.323687 
L 379.080697 165.4922 
L 379.652831 165.789948 
L 379.887812 165.153528 
L 380.424532 164.725515 
L 380.868833 163.63729 
L 381.430002 163.834421 
L 381.915194 161.672418 
L 382.496683 160.999756 
L 383.722084 162.257315 
L 383.952097 161.825802 
L 384.597882 162.081581 
L 384.989673 161.443379 
L 385.353271 158.290075 
L 386.550921 156.646697 
L 387.148908 156.973614 
L 387.650889 155.704636 
L 388.092011 156.969784 
L 388.462654 156.373463 
L 388.883331 157.760906 
L 389.168536 157.809219 
L 389.648941 156.592903 
L 390.114631 156.282894 
L 390.512069 156.821496 
L 391.141708 159.213517 
L 391.765479 159.115756 
L 392.103142 161.006207 
L 392.390642 161.390233 
L 392.973296 160.531925 
L 393.664035 160.901125 
L 394.138987 160.873287 
L 394.618158 159.767632 
L 395.582243 158.501746 
L 396.663341 154.594961 
L 397.415038 152.293885 
L 397.988537 149.342823 
L 398.505749 147.270542 
L 399.051698 147.194571 
L 399.297271 147.741116 
L 399.693967 149.820094 
L 400.172868 149.039551 
L 400.741907 149.670581 
L 401.799961 148.463254 
L 402.545854 143.169659 
L 403.144635 140.873138 
L 403.522615 140.814469 
L 403.745794 140.413421 
L 404.209279 141.673124 
L 404.91353 142.532217 
L 405.429882 142.799832 
L 405.880236 145.147253 
L 406.247495 146.349832 
L 406.609671 146.832981 
L 407.272667 150.352532 
L 407.663663 151.594672 
L 408.190814 151.281786 
L 408.59331 150.375122 
L 408.927577 149.319605 
L 409.374135 147.443046 
L 409.605412 147.264105 
L 410.143966 146.180953 
L 410.546329 146.051424 
L 411.023534 146.769402 
L 411.301184 146.79782 
L 412.390332 150.293155 
L 412.741926 150.1716 
L 413.067088 150.775379 
L 413.368463 152.099868 
L 413.921977 152.699656 
L 414.336203 154.883731 
L 414.907167 155.567098 
L 415.355382 155.697904 
L 415.930187 157.631356 
L 417.651907 159.905205 
L 418.170787 161.019795 
L 418.551235 162.84055 
L 418.81219 162.745387 
L 419.175561 163.506134 
L 419.655854 165.930593 
L 420.713818 168.302301 
L 421.459773 169.42341 
L 421.968477 169.263271 
L 422.27205 167.459032 
L 422.782776 165.183141 
L 423.299947 163.62414 
L 423.779109 159.884164 
L 424.167128 158.898688 
L 424.708976 156.1384 
L 425.053966 155.644479 
L 425.463492 153.634884 
L 425.978943 153.828058 
L 426.683675 152.374446 
L 427.111515 152.224095 
L 427.665596 154.36751 
L 427.916338 153.40477 
L 428.605769 153.19617 
L 429.633973 155.483556 
L 430.115757 155.563198 
L 430.589467 157.211646 
L 431.019989 157.277036 
L 431.51375 158.344598 
L 431.879521 160.130211 
L 432.397147 160.953584 
L 433.022556 162.243788 
L 433.495706 162.675482 
L 434.143749 162.371641 
L 434.551269 164.481168 
L 435.067266 166.156579 
L 435.38261 166.078753 
L 435.934542 166.444337 
L 436.508138 167.452757 
L 436.947911 167.70386 
L 436.947911 167.70386 
" clip-path="url(#p8edf5087cc)" style="fill: none; stroke: #0000ff; stroke-opacity: 0.5; stroke-width: 5; stroke-linecap: square"/>
   </g>
   <g id="matplotlib.axis_1">
    <g id="xtick_1">
     <g id="line2d_3">
      <defs>
       <path id="m49e7e28f8c" d="M 0 0 
L 0 3.5 
" style="stroke: #000000; stroke-width: 0.8"/>
      </defs>
      <g>
       <use xlink:href="#m49e7e28f8c" x="57.6" y="307.584" style="stroke: #000000; stroke-width: 0.8"/>
      </g>
     </g>
     <g id="text_1">
      <!-- 0 -->
      <g transform="translate(54.41875 322.182437) scale(0.1 -0.1)">
       <defs>
        <path id="DejaVuSans-30" d="M 2034 4250 
Q 1547 4250 1301 3770 
Q 1056 3291 1056 2328 
Q 1056 1369 1301 889 
Q 1547 409 2034 409 
Q 2525 409 2770 889 
Q 3016 1369 3016 2328 
Q 3016 3291 2770 3770 
Q 2525 4250 2034 4250 
z
M 2034 4750 
Q 2819 4750 3233 4129 
Q 3647 3509 3647 2328 
Q 3647 1150 3233 529 
Q 2819 -91 2034 -91 
Q 1250 -91 836 529 
Q 422 1150 422 2328 
Q 422 3509 836 4129 
Q 1250 4750 2034 4750 
z
" transform="scale(0.015625)"/>
       </defs>
       <use xlink:href="#DejaVuSans-30"/>
      </g>
     </g>
    </g>
    <g id="xtick_2">
     <g id="line2d_4">
      <g>
       <use xlink:href="#m49e7e28f8c" x="99.912796" y="307.584" style="stroke: #000000; stroke-width: 0.8"/>
      </g>
     </g>
     <g id="text_2">
      <!-- 50 -->
      <g transform="translate(93.550296 322.182437) scale(0.1 -0.1)">
       <defs>
        <path id="DejaVuSans-35" d="M 691 4666 
L 3169 4666 
L 3169 4134 
L 1269 4134 
L 1269 2991 
Q 1406 3038 1543 3061 
Q 1681 3084 1819 3084 
Q 2600 3084 3056 2656 
Q 3513 2228 3513 1497 
Q 3513 744 3044 326 
Q 2575 -91 1722 -91 
Q 1428 -91 1123 -41 
Q 819 9 494 109 
L 494 744 
Q 775 591 1075 516 
Q 1375 441 1709 441 
Q 2250 441 2565 725 
Q 2881 1009 2881 1497 
Q 2881 1984 2565 2268 
Q 2250 2553 1709 2553 
Q 1456 2553 1204 2497 
Q 953 2441 691 2322 
L 691 4666 
z
" transform="scale(0.015625)"/>
       </defs>
       <use xlink:href="#DejaVuSans-35"/>
       <use xlink:href="#DejaVuSans-30" x="63.623047"/>
      </g>
     </g>
    </g>
    <g id="xtick_3">
     <g id="line2d_5">
      <g>
       <use xlink:href="#m49e7e28f8c" x="142.225592" y="307.584" style="stroke: #000000; stroke-width: 0.8"/>
      </g>
     </g>
     <g id="text_3">
      <!-- 100 -->
      <g transform="translate(132.681842 322.182437) scale(0.1 -0.1)">
       <defs>
        <path id="DejaVuSans-31" d="M 794 531 
L 1825 531 
L 1825 4091 
L 703 3866 
L 703 4441 
L 1819 4666 
L 2450 4666 
L 2450 531 
L 3481 531 
L 3481 0 
L 794 0 
L 794 531 
z
" transform="scale(0.015625)"/>
       </defs>
       <use xlink:href="#DejaVuSans-31"/>
       <use xlink:href="#DejaVuSans-30" x="63.623047"/>
       <use xlink:href="#DejaVuSans-30" x="127.246094"/>
      </g>
     </g>
    </g>
    <g id="xtick_4">
     <g id="line2d_6">
      <g>
       <use xlink:href="#m49e7e28f8c" x="184.538389" y="307.584" style="stroke: #000000; stroke-width: 0.8"/>
      </g>
     </g>
     <g id="text_4">
      <!-- 150 -->
      <g transform="translate(174.994639 322.182437) scale(0.1 -0.1)">
       <use xlink:href="#DejaVuSans-31"/>
       <use xlink:href="#DejaVuSans-35" x="63.623047"/>
       <use xlink:href="#DejaVuSans-30" x="127.246094"/>
      </g>
     </g>
    </g>
    <g id="xtick_5">
     <g id="line2d_7">
      <g>
       <use xlink:href="#m49e7e28f8c" x="226.851185" y="307.584" style="stroke: #000000; stroke-width: 0.8"/>
      </g>
     </g>
     <g id="text_5">
      <!-- 200 -->
      <g transform="translate(217.307435 322.182437) scale(0.1 -0.1)">
       <defs>
        <path id="DejaVuSans-32" d="M 1228 531 
L 3431 531 
L 3431 0 
L 469 0 
L 469 531 
Q 828 903 1448 1529 
Q 2069 2156 2228 2338 
Q 2531 2678 2651 2914 
Q 2772 3150 2772 3378 
Q 2772 3750 2511 3984 
Q 2250 4219 1831 4219 
Q 1534 4219 1204 4116 
Q 875 4013 500 3803 
L 500 4441 
Q 881 4594 1212 4672 
Q 1544 4750 1819 4750 
Q 2544 4750 2975 4387 
Q 3406 4025 3406 3419 
Q 3406 3131 3298 2873 
Q 3191 2616 2906 2266 
Q 2828 2175 2409 1742 
Q 1991 1309 1228 531 
z
" transform="scale(0.015625)"/>
       </defs>
       <use xlink:href="#DejaVuSans-32"/>
       <use xlink:href="#DejaVuSans-30" x="63.623047"/>
       <use xlink:href="#DejaVuSans-30" x="127.246094"/>
      </g>
     </g>
    </g>
    <g id="xtick_6">
     <g id="line2d_8">
      <g>
       <use xlink:href="#m49e7e28f8c" x="269.163981" y="307.584" style="stroke: #000000; stroke-width: 0.8"/>
      </g>
     </g>
     <g id="text_6">
      <!-- 250 -->
      <g transform="translate(259.620231 322.182437) scale(0.1 -0.1)">
       <use xlink:href="#DejaVuSans-32"/>
       <use xlink:href="#DejaVuSans-35" x="63.623047"/>
       <use xlink:href="#DejaVuSans-30" x="127.246094"/>
      </g>
     </g>
    </g>
    <g id="xtick_7">
     <g id="line2d_9">
      <g>
       <use xlink:href="#m49e7e28f8c" x="311.476777" y="307.584" style="stroke: #000000; stroke-width: 0.8"/>
      </g>
     </g>
     <g id="text_7">
      <!-- 300 -->
      <g transform="translate(301.933027 322.182437) scale(0.1 -0.1)">
       <defs>
        <path id="DejaVuSans-33" d="M 2597 2516 
Q 3050 2419 3304 2112 
Q 3559 1806 3559 1356 
Q 3559 666 3084 287 
Q 2609 -91 1734 -91 
Q 1441 -91 1130 -33 
Q 819 25 488 141 
L 488 750 
Q 750 597 1062 519 
Q 1375 441 1716 441 
Q 2309 441 2620 675 
Q 2931 909 2931 1356 
Q 2931 1769 2642 2001 
Q 2353 2234 1838 2234 
L 1294 2234 
L 1294 2753 
L 1863 2753 
Q 2328 2753 2575 2939 
Q 2822 3125 2822 3475 
Q 2822 3834 2567 4026 
Q 2313 4219 1838 4219 
Q 1578 4219 1281 4162 
Q 984 4106 628 3988 
L 628 4550 
Q 988 4650 1302 4700 
Q 1616 4750 1894 4750 
Q 2613 4750 3031 4423 
Q 3450 4097 3450 3541 
Q 3450 3153 3228 2886 
Q 3006 2619 2597 2516 
z
" transform="scale(0.015625)"/>
       </defs>
       <use xlink:href="#DejaVuSans-33"/>
       <use xlink:href="#DejaVuSans-30" x="63.623047"/>
       <use xlink:href="#DejaVuSans-30" x="127.246094"/>
      </g>
     </g>
    </g>
    <g id="xtick_8">
     <g id="line2d_10">
      <g>
       <use xlink:href="#m49e7e28f8c" x="353.789573" y="307.584" style="stroke: #000000; stroke-width: 0.8"/>
      </g>
     </g>
     <g id="text_8">
      <!-- 350 -->
      <g transform="translate(344.245823 322.182437) scale(0.1 -0.1)">
       <use xlink:href="#DejaVuSans-33"/>
       <use xlink:href="#DejaVuSans-35" x="63.623047"/>
       <use xlink:href="#DejaVuSans-30" x="127.246094"/>
      </g>
     </g>
    </g>
    <g id="xtick_9">
     <g id="line2d_11">
      <g>
       <use xlink:href="#m49e7e28f8c" x="396.10237" y="307.584" style="stroke: #000000; stroke-width: 0.8"/>
      </g>
     </g>
     <g id="text_9">
      <!-- 400 -->
      <g transform="translate(386.55862 322.182437) scale(0.1 -0.1)">
       <defs>
        <path id="DejaVuSans-34" d="M 2419 4116 
L 825 1625 
L 2419 1625 
L 2419 4116 
z
M 2253 4666 
L 3047 4666 
L 3047 1625 
L 3713 1625 
L 3713 1100 
L 3047 1100 
L 3047 0 
L 2419 0 
L 2419 1100 
L 313 1100 
L 313 1709 
L 2253 4666 
z
" transform="scale(0.015625)"/>
       </defs>
       <use xlink:href="#DejaVuSans-34"/>
       <use xlink:href="#DejaVuSans-30" x="63.623047"/>
       <use xlink:href="#DejaVuSans-30" x="127.246094"/>
      </g>
     </g>
    </g>
    <g id="text_10">
     <!-- X -->
     <g transform="translate(232.735 335.860562) scale(0.1 -0.1)">
      <defs>
       <path id="DejaVuSans-58" d="M 403 4666 
L 1081 4666 
L 2241 2931 
L 3406 4666 
L 4084 4666 
L 2584 2425 
L 4184 0 
L 3506 0 
L 2194 1984 
L 872 0 
L 191 0 
L 1856 2491 
L 403 4666 
z
" transform="scale(0.015625)"/>
      </defs>
      <use xlink:href="#DejaVuSans-58"/>
     </g>
    </g>
   </g>
   <g id="matplotlib.axis_2">
    <g id="ytick_1">
     <g id="line2d_12">
      <defs>
       <path id="me525c425f2" d="M 0 0 
L -3.5 0 
" style="stroke: #000000; stroke-width: 0.8"/>
      </defs>
      <g>
       <use xlink:href="#me525c425f2" x="57.6" y="307.584" style="stroke: #000000; stroke-width: 0.8"/>
      </g>
     </g>
     <g id="text_11">
      <!-- 0 -->
      <g transform="translate(44.2375 311.383219) scale(0.1 -0.1)">
       <use xlink:href="#DejaVuSans-30"/>
      </g>
     </g>
    </g>
    <g id="ytick_2">
     <g id="line2d_13">
      <g>
       <use xlink:href="#me525c425f2" x="57.6" y="274.32" style="stroke: #000000; stroke-width: 0.8"/>
      </g>
     </g>
     <g id="text_12">
      <!-- 5 -->
      <g transform="translate(44.2375 278.119219) scale(0.1 -0.1)">
       <use xlink:href="#DejaVuSans-35"/>
      </g>
     </g>
    </g>
    <g id="ytick_3">
     <g id="line2d_14">
      <g>
       <use xlink:href="#me525c425f2" x="57.6" y="241.056" style="stroke: #000000; stroke-width: 0.8"/>
      </g>
     </g>
     <g id="text_13">
      <!-- 10 -->
      <g transform="translate(37.875 244.855219) scale(0.1 -0.1)">
       <use xlink:href="#DejaVuSans-31"/>
       <use xlink:href="#DejaVuSans-30" x="63.623047"/>
      </g>
     </g>
    </g>
    <g id="ytick_4">
     <g id="line2d_15">
      <g>
       <use xlink:href="#me525c425f2" x="57.6" y="207.792" style="stroke: #000000; stroke-width: 0.8"/>
      </g>
     </g>
     <g id="text_14">
      <!-- 15 -->
      <g transform="translate(37.875 211.591219) scale(0.1 -0.1)">
       <use xlink:href="#DejaVuSans-31"/>
       <use xlink:href="#DejaVuSans-35" x="63.623047"/>
      </g>
     </g>
    </g>
    <g id="ytick_5">
     <g id="line2d_16">
      <g>
       <use xlink:href="#me525c425f2" x="57.6" y="174.528" style="stroke: #000000; stroke-width: 0.8"/>
      </g>
     </g>
     <g id="text_15">
      <!-- 20 -->
      <g transform="translate(37.875 178.327219) scale(0.1 -0.1)">
       <use xlink:href="#DejaVuSans-32"/>
       <use xlink:href="#DejaVuSans-30" x="63.623047"/>
      </g>
     </g>
    </g>
    <g id="ytick_6">
     <g id="line2d_17">
      <g>
       <use xlink:href="#me525c425f2" x="57.6" y="141.264" style="stroke: #000000; stroke-width: 0.8"/>
      </g>
     </g>
     <g id="text_16">
      <!-- 25 -->
      <g transform="translate(37.875 145.063219) scale(0.1 -0.1)">
       <use xlink:href="#DejaVuSans-32"/>
       <use xlink:href="#DejaVuSans-35" x="63.623047"/>
      </g>
     </g>
    </g>
    <g id="ytick_7">
     <g id="line2d_18">
      <g>
       <use xlink:href="#me525c425f2" x="57.6" y="108" style="stroke: #000000; stroke-width: 0.8"/>
      </g>
     </g>
     <g id="text_17">
      <!-- 30 -->
      <g transform="translate(37.875 111.799219) scale(0.1 -0.1)">
       <use xlink:href="#DejaVuSans-33"/>
       <use xlink:href="#DejaVuSans-30" x="63.623047"/>
      </g>
     </g>
    </g>
    <g id="ytick_8">
     <g id="line2d_19">
      <g>
       <use xlink:href="#me525c425f2" x="57.6" y="74.736" style="stroke: #000000; stroke-width: 0.8"/>
      </g>
     </g>
     <g id="text_18">
      <!-- 35 -->
      <g transform="translate(37.875 78.535219) scale(0.1 -0.1)">
       <use xlink:href="#DejaVuSans-33"/>
       <use xlink:href="#DejaVuSans-35" x="63.623047"/>
      </g>
     </g>
    </g>
    <g id="ytick_9">
     <g id="line2d_20">
      <g>
       <use xlink:href="#me525c425f2" x="57.6" y="41.472" style="stroke: #000000; stroke-width: 0.8"/>
      </g>
     </g>
     <g id="text_19">
      <!-- 40 -->
      <g transform="translate(37.875 45.271219) scale(0.1 -0.1)">
       <use xlink:href="#DejaVuSans-34"/>
       <use xlink:href="#DejaVuSans-30" x="63.623047"/>
      </g>
     </g>
    </g>
    <g id="text_20">
     <!-- Y -->
     <g transform="translate(31.795313 177.581906) rotate(-90) scale(0.1 -0.1)">
      <defs>
       <path id="DejaVuSans-59" d="M -13 4666 
L 666 4666 
L 1959 2747 
L 3244 4666 
L 3922 4666 
L 2272 2222 
L 2272 0 
L 1638 0 
L 1638 2222 
L -13 4666 
z
" transform="scale(0.015625)"/>
      </defs>
      <use xlink:href="#DejaVuSans-59"/>
     </g>
    </g>
   </g>
   <g id="patch_3">
    <path d="M 57.6 307.584 
L 57.6 41.472 
" style="fill: none; stroke: #000000; stroke-width: 0.8; stroke-linejoin: miter; stroke-linecap: square"/>
   </g>
   <g id="patch_4">
    <path d="M 414.72 307.584 
L 414.72 41.472 
" style="fill: none; stroke: #000000; stroke-width: 0.8; stroke-linejoin: miter; stroke-linecap: square"/>
   </g>
   <g id="patch_5">
    <path d="M 57.6 307.584 
L 414.72 307.584 
" style="fill: none; stroke: #000000; stroke-width: 0.8; stroke-linejoin: miter; stroke-linecap: square"/>
   </g>
   <g id="patch_6">
    <path d="M 57.6 41.472 
L 414.72 41.472 
" style="fill: none; stroke: #000000; stroke-width: 0.8; stroke-linejoin: miter; stroke-linecap: square"/>
   </g>
   <g id="text_21">
    <!-- Primerjava segmentev nivojev: Generiran nivo 10 (neurejen) vs Generiran nivo 10 (urejen) -->
    <g transform="translate(-35.882812 35.472) scale(0.12 -0.12)">
     <defs>
      <path id="DejaVuSans-50" d="M 1259 4147 
L 1259 2394 
L 2053 2394 
Q 2494 2394 2734 2622 
Q 2975 2850 2975 3272 
Q 2975 3691 2734 3919 
Q 2494 4147 2053 4147 
L 1259 4147 
z
M 628 4666 
L 2053 4666 
Q 2838 4666 3239 4311 
Q 3641 3956 3641 3272 
Q 3641 2581 3239 2228 
Q 2838 1875 2053 1875 
L 1259 1875 
L 1259 0 
L 628 0 
L 628 4666 
z
" transform="scale(0.015625)"/>
      <path id="DejaVuSans-72" d="M 2631 2963 
Q 2534 3019 2420 3045 
Q 2306 3072 2169 3072 
Q 1681 3072 1420 2755 
Q 1159 2438 1159 1844 
L 1159 0 
L 581 0 
L 581 3500 
L 1159 3500 
L 1159 2956 
Q 1341 3275 1631 3429 
Q 1922 3584 2338 3584 
Q 2397 3584 2469 3576 
Q 2541 3569 2628 3553 
L 2631 2963 
z
" transform="scale(0.015625)"/>
      <path id="DejaVuSans-69" d="M 603 3500 
L 1178 3500 
L 1178 0 
L 603 0 
L 603 3500 
z
M 603 4863 
L 1178 4863 
L 1178 4134 
L 603 4134 
L 603 4863 
z
" transform="scale(0.015625)"/>
      <path id="DejaVuSans-6d" d="M 3328 2828 
Q 3544 3216 3844 3400 
Q 4144 3584 4550 3584 
Q 5097 3584 5394 3201 
Q 5691 2819 5691 2113 
L 5691 0 
L 5113 0 
L 5113 2094 
Q 5113 2597 4934 2840 
Q 4756 3084 4391 3084 
Q 3944 3084 3684 2787 
Q 3425 2491 3425 1978 
L 3425 0 
L 2847 0 
L 2847 2094 
Q 2847 2600 2669 2842 
Q 2491 3084 2119 3084 
Q 1678 3084 1418 2786 
Q 1159 2488 1159 1978 
L 1159 0 
L 581 0 
L 581 3500 
L 1159 3500 
L 1159 2956 
Q 1356 3278 1631 3431 
Q 1906 3584 2284 3584 
Q 2666 3584 2933 3390 
Q 3200 3197 3328 2828 
z
" transform="scale(0.015625)"/>
      <path id="DejaVuSans-65" d="M 3597 1894 
L 3597 1613 
L 953 1613 
Q 991 1019 1311 708 
Q 1631 397 2203 397 
Q 2534 397 2845 478 
Q 3156 559 3463 722 
L 3463 178 
Q 3153 47 2828 -22 
Q 2503 -91 2169 -91 
Q 1331 -91 842 396 
Q 353 884 353 1716 
Q 353 2575 817 3079 
Q 1281 3584 2069 3584 
Q 2775 3584 3186 3129 
Q 3597 2675 3597 1894 
z
M 3022 2063 
Q 3016 2534 2758 2815 
Q 2500 3097 2075 3097 
Q 1594 3097 1305 2825 
Q 1016 2553 972 2059 
L 3022 2063 
z
" transform="scale(0.015625)"/>
      <path id="DejaVuSans-6a" d="M 603 3500 
L 1178 3500 
L 1178 -63 
Q 1178 -731 923 -1031 
Q 669 -1331 103 -1331 
L -116 -1331 
L -116 -844 
L 38 -844 
Q 366 -844 484 -692 
Q 603 -541 603 -63 
L 603 3500 
z
M 603 4863 
L 1178 4863 
L 1178 4134 
L 603 4134 
L 603 4863 
z
" transform="scale(0.015625)"/>
      <path id="DejaVuSans-61" d="M 2194 1759 
Q 1497 1759 1228 1600 
Q 959 1441 959 1056 
Q 959 750 1161 570 
Q 1363 391 1709 391 
Q 2188 391 2477 730 
Q 2766 1069 2766 1631 
L 2766 1759 
L 2194 1759 
z
M 3341 1997 
L 3341 0 
L 2766 0 
L 2766 531 
Q 2569 213 2275 61 
Q 1981 -91 1556 -91 
Q 1019 -91 701 211 
Q 384 513 384 1019 
Q 384 1609 779 1909 
Q 1175 2209 1959 2209 
L 2766 2209 
L 2766 2266 
Q 2766 2663 2505 2880 
Q 2244 3097 1772 3097 
Q 1472 3097 1187 3025 
Q 903 2953 641 2809 
L 641 3341 
Q 956 3463 1253 3523 
Q 1550 3584 1831 3584 
Q 2591 3584 2966 3190 
Q 3341 2797 3341 1997 
z
" transform="scale(0.015625)"/>
      <path id="DejaVuSans-76" d="M 191 3500 
L 800 3500 
L 1894 563 
L 2988 3500 
L 3597 3500 
L 2284 0 
L 1503 0 
L 191 3500 
z
" transform="scale(0.015625)"/>
      <path id="DejaVuSans-20" transform="scale(0.015625)"/>
      <path id="DejaVuSans-73" d="M 2834 3397 
L 2834 2853 
Q 2591 2978 2328 3040 
Q 2066 3103 1784 3103 
Q 1356 3103 1142 2972 
Q 928 2841 928 2578 
Q 928 2378 1081 2264 
Q 1234 2150 1697 2047 
L 1894 2003 
Q 2506 1872 2764 1633 
Q 3022 1394 3022 966 
Q 3022 478 2636 193 
Q 2250 -91 1575 -91 
Q 1294 -91 989 -36 
Q 684 19 347 128 
L 347 722 
Q 666 556 975 473 
Q 1284 391 1588 391 
Q 1994 391 2212 530 
Q 2431 669 2431 922 
Q 2431 1156 2273 1281 
Q 2116 1406 1581 1522 
L 1381 1569 
Q 847 1681 609 1914 
Q 372 2147 372 2553 
Q 372 3047 722 3315 
Q 1072 3584 1716 3584 
Q 2034 3584 2315 3537 
Q 2597 3491 2834 3397 
z
" transform="scale(0.015625)"/>
      <path id="DejaVuSans-67" d="M 2906 1791 
Q 2906 2416 2648 2759 
Q 2391 3103 1925 3103 
Q 1463 3103 1205 2759 
Q 947 2416 947 1791 
Q 947 1169 1205 825 
Q 1463 481 1925 481 
Q 2391 481 2648 825 
Q 2906 1169 2906 1791 
z
M 3481 434 
Q 3481 -459 3084 -895 
Q 2688 -1331 1869 -1331 
Q 1566 -1331 1297 -1286 
Q 1028 -1241 775 -1147 
L 775 -588 
Q 1028 -725 1275 -790 
Q 1522 -856 1778 -856 
Q 2344 -856 2625 -561 
Q 2906 -266 2906 331 
L 2906 616 
Q 2728 306 2450 153 
Q 2172 0 1784 0 
Q 1141 0 747 490 
Q 353 981 353 1791 
Q 353 2603 747 3093 
Q 1141 3584 1784 3584 
Q 2172 3584 2450 3431 
Q 2728 3278 2906 2969 
L 2906 3500 
L 3481 3500 
L 3481 434 
z
" transform="scale(0.015625)"/>
      <path id="DejaVuSans-6e" d="M 3513 2113 
L 3513 0 
L 2938 0 
L 2938 2094 
Q 2938 2591 2744 2837 
Q 2550 3084 2163 3084 
Q 1697 3084 1428 2787 
Q 1159 2491 1159 1978 
L 1159 0 
L 581 0 
L 581 3500 
L 1159 3500 
L 1159 2956 
Q 1366 3272 1645 3428 
Q 1925 3584 2291 3584 
Q 2894 3584 3203 3211 
Q 3513 2838 3513 2113 
z
" transform="scale(0.015625)"/>
      <path id="DejaVuSans-74" d="M 1172 4494 
L 1172 3500 
L 2356 3500 
L 2356 3053 
L 1172 3053 
L 1172 1153 
Q 1172 725 1289 603 
Q 1406 481 1766 481 
L 2356 481 
L 2356 0 
L 1766 0 
Q 1100 0 847 248 
Q 594 497 594 1153 
L 594 3053 
L 172 3053 
L 172 3500 
L 594 3500 
L 594 4494 
L 1172 4494 
z
" transform="scale(0.015625)"/>
      <path id="DejaVuSans-6f" d="M 1959 3097 
Q 1497 3097 1228 2736 
Q 959 2375 959 1747 
Q 959 1119 1226 758 
Q 1494 397 1959 397 
Q 2419 397 2687 759 
Q 2956 1122 2956 1747 
Q 2956 2369 2687 2733 
Q 2419 3097 1959 3097 
z
M 1959 3584 
Q 2709 3584 3137 3096 
Q 3566 2609 3566 1747 
Q 3566 888 3137 398 
Q 2709 -91 1959 -91 
Q 1206 -91 779 398 
Q 353 888 353 1747 
Q 353 2609 779 3096 
Q 1206 3584 1959 3584 
z
" transform="scale(0.015625)"/>
      <path id="DejaVuSans-3a" d="M 750 794 
L 1409 794 
L 1409 0 
L 750 0 
L 750 794 
z
M 750 3309 
L 1409 3309 
L 1409 2516 
L 750 2516 
L 750 3309 
z
" transform="scale(0.015625)"/>
      <path id="DejaVuSans-47" d="M 3809 666 
L 3809 1919 
L 2778 1919 
L 2778 2438 
L 4434 2438 
L 4434 434 
Q 4069 175 3628 42 
Q 3188 -91 2688 -91 
Q 1594 -91 976 548 
Q 359 1188 359 2328 
Q 359 3472 976 4111 
Q 1594 4750 2688 4750 
Q 3144 4750 3555 4637 
Q 3966 4525 4313 4306 
L 4313 3634 
Q 3963 3931 3569 4081 
Q 3175 4231 2741 4231 
Q 1884 4231 1454 3753 
Q 1025 3275 1025 2328 
Q 1025 1384 1454 906 
Q 1884 428 2741 428 
Q 3075 428 3337 486 
Q 3600 544 3809 666 
z
" transform="scale(0.015625)"/>
      <path id="DejaVuSans-28" d="M 1984 4856 
Q 1566 4138 1362 3434 
Q 1159 2731 1159 2009 
Q 1159 1288 1364 580 
Q 1569 -128 1984 -844 
L 1484 -844 
Q 1016 -109 783 600 
Q 550 1309 550 2009 
Q 550 2706 781 3412 
Q 1013 4119 1484 4856 
L 1984 4856 
z
" transform="scale(0.015625)"/>
      <path id="DejaVuSans-75" d="M 544 1381 
L 544 3500 
L 1119 3500 
L 1119 1403 
Q 1119 906 1312 657 
Q 1506 409 1894 409 
Q 2359 409 2629 706 
Q 2900 1003 2900 1516 
L 2900 3500 
L 3475 3500 
L 3475 0 
L 2900 0 
L 2900 538 
Q 2691 219 2414 64 
Q 2138 -91 1772 -91 
Q 1169 -91 856 284 
Q 544 659 544 1381 
z
M 1991 3584 
L 1991 3584 
z
" transform="scale(0.015625)"/>
      <path id="DejaVuSans-29" d="M 513 4856 
L 1013 4856 
Q 1481 4119 1714 3412 
Q 1947 2706 1947 2009 
Q 1947 1309 1714 600 
Q 1481 -109 1013 -844 
L 513 -844 
Q 928 -128 1133 580 
Q 1338 1288 1338 2009 
Q 1338 2731 1133 3434 
Q 928 4138 513 4856 
z
" transform="scale(0.015625)"/>
     </defs>
     <use xlink:href="#DejaVuSans-50"/>
     <use xlink:href="#DejaVuSans-72" x="58.552734"/>
     <use xlink:href="#DejaVuSans-69" x="99.666016"/>
     <use xlink:href="#DejaVuSans-6d" x="127.449219"/>
     <use xlink:href="#DejaVuSans-65" x="224.861328"/>
     <use xlink:href="#DejaVuSans-72" x="286.384766"/>
     <use xlink:href="#DejaVuSans-6a" x="327.498047"/>
     <use xlink:href="#DejaVuSans-61" x="355.28125"/>
     <use xlink:href="#DejaVuSans-76" x="416.560547"/>
     <use xlink:href="#DejaVuSans-61" x="475.740234"/>
     <use xlink:href="#DejaVuSans-20" x="537.019531"/>
     <use xlink:href="#DejaVuSans-73" x="568.806641"/>
     <use xlink:href="#DejaVuSans-65" x="620.90625"/>
     <use xlink:href="#DejaVuSans-67" x="682.429688"/>
     <use xlink:href="#DejaVuSans-6d" x="745.90625"/>
     <use xlink:href="#DejaVuSans-65" x="843.318359"/>
     <use xlink:href="#DejaVuSans-6e" x="904.841797"/>
     <use xlink:href="#DejaVuSans-74" x="968.220703"/>
     <use xlink:href="#DejaVuSans-65" x="1007.429688"/>
     <use xlink:href="#DejaVuSans-76" x="1068.953125"/>
     <use xlink:href="#DejaVuSans-20" x="1128.132812"/>
     <use xlink:href="#DejaVuSans-6e" x="1159.919922"/>
     <use xlink:href="#DejaVuSans-69" x="1223.298828"/>
     <use xlink:href="#DejaVuSans-76" x="1251.082031"/>
     <use xlink:href="#DejaVuSans-6f" x="1310.261719"/>
     <use xlink:href="#DejaVuSans-6a" x="1371.443359"/>
     <use xlink:href="#DejaVuSans-65" x="1399.226562"/>
     <use xlink:href="#DejaVuSans-76" x="1460.75"/>
     <use xlink:href="#DejaVuSans-3a" x="1514.429688"/>
     <use xlink:href="#DejaVuSans-20" x="1548.121094"/>
     <use xlink:href="#DejaVuSans-47" x="1579.908203"/>
     <use xlink:href="#DejaVuSans-65" x="1657.398438"/>
     <use xlink:href="#DejaVuSans-6e" x="1718.921875"/>
     <use xlink:href="#DejaVuSans-65" x="1782.300781"/>
     <use xlink:href="#DejaVuSans-72" x="1843.824219"/>
     <use xlink:href="#DejaVuSans-69" x="1884.9375"/>
     <use xlink:href="#DejaVuSans-72" x="1912.720703"/>
     <use xlink:href="#DejaVuSans-61" x="1953.833984"/>
     <use xlink:href="#DejaVuSans-6e" x="2015.113281"/>
     <use xlink:href="#DejaVuSans-20" x="2078.492188"/>
     <use xlink:href="#DejaVuSans-6e" x="2110.279297"/>
     <use xlink:href="#DejaVuSans-69" x="2173.658203"/>
     <use xlink:href="#DejaVuSans-76" x="2201.441406"/>
     <use xlink:href="#DejaVuSans-6f" x="2260.621094"/>
     <use xlink:href="#DejaVuSans-20" x="2321.802734"/>
     <use xlink:href="#DejaVuSans-31" x="2353.589844"/>
     <use xlink:href="#DejaVuSans-30" x="2417.212891"/>
     <use xlink:href="#DejaVuSans-20" x="2480.835938"/>
     <use xlink:href="#DejaVuSans-28" x="2512.623047"/>
     <use xlink:href="#DejaVuSans-6e" x="2551.636719"/>
     <use xlink:href="#DejaVuSans-65" x="2615.015625"/>
     <use xlink:href="#DejaVuSans-75" x="2676.539062"/>
     <use xlink:href="#DejaVuSans-72" x="2739.917969"/>
     <use xlink:href="#DejaVuSans-65" x="2778.78125"/>
     <use xlink:href="#DejaVuSans-6a" x="2840.304688"/>
     <use xlink:href="#DejaVuSans-65" x="2868.087891"/>
     <use xlink:href="#DejaVuSans-6e" x="2929.611328"/>
     <use xlink:href="#DejaVuSans-29" x="2992.990234"/>
     <use xlink:href="#DejaVuSans-20" x="3032.003906"/>
     <use xlink:href="#DejaVuSans-76" x="3063.791016"/>
     <use xlink:href="#DejaVuSans-73" x="3122.970703"/>
     <use xlink:href="#DejaVuSans-20" x="3175.070312"/>
     <use xlink:href="#DejaVuSans-47" x="3206.857422"/>
     <use xlink:href="#DejaVuSans-65" x="3284.347656"/>
     <use xlink:href="#DejaVuSans-6e" x="3345.871094"/>
     <use xlink:href="#DejaVuSans-65" x="3409.25"/>
     <use xlink:href="#DejaVuSans-72" x="3470.773438"/>
     <use xlink:href="#DejaVuSans-69" x="3511.886719"/>
     <use xlink:href="#DejaVuSans-72" x="3539.669922"/>
     <use xlink:href="#DejaVuSans-61" x="3580.783203"/>
     <use xlink:href="#DejaVuSans-6e" x="3642.0625"/>
     <use xlink:href="#DejaVuSans-20" x="3705.441406"/>
     <use xlink:href="#DejaVuSans-6e" x="3737.228516"/>
     <use xlink:href="#DejaVuSans-69" x="3800.607422"/>
     <use xlink:href="#DejaVuSans-76" x="3828.390625"/>
     <use xlink:href="#DejaVuSans-6f" x="3887.570312"/>
     <use xlink:href="#DejaVuSans-20" x="3948.751953"/>
     <use xlink:href="#DejaVuSans-31" x="3980.539062"/>
     <use xlink:href="#DejaVuSans-30" x="4044.162109"/>
     <use xlink:href="#DejaVuSans-20" x="4107.785156"/>
     <use xlink:href="#DejaVuSans-28" x="4139.572266"/>
     <use xlink:href="#DejaVuSans-75" x="4178.585938"/>
     <use xlink:href="#DejaVuSans-72" x="4241.964844"/>
     <use xlink:href="#DejaVuSans-65" x="4280.828125"/>
     <use xlink:href="#DejaVuSans-6a" x="4342.351562"/>
     <use xlink:href="#DejaVuSans-65" x="4370.134766"/>
     <use xlink:href="#DejaVuSans-6e" x="4431.658203"/>
     <use xlink:href="#DejaVuSans-29" x="4495.037109"/>
    </g>
   </g>
   <g id="legend_1">
    <g id="patch_7">
     <path d="M 306.109062 78.82825 
L 407.72 78.82825 
Q 409.72 78.82825 409.72 76.82825 
L 409.72 48.472 
Q 409.72 46.472 407.72 46.472 
L 306.109062 46.472 
Q 304.109062 46.472 304.109062 48.472 
L 304.109062 76.82825 
Q 304.109062 78.82825 306.109062 78.82825 
z
" style="fill: #ffffff; opacity: 0.8; stroke: #cccccc; stroke-linejoin: miter"/>
    </g>
    <g id="line2d_21">
     <path d="M 308.109062 54.570437 
L 318.109062 54.570437 
L 328.109062 54.570437 
" style="fill: none; stroke: #ff0000; stroke-opacity: 0.5; stroke-width: 5; stroke-linecap: square"/>
    </g>
    <g id="text_22">
     <!-- Urejen nivo -->
     <g transform="translate(336.109062 58.070437) scale(0.1 -0.1)">
      <defs>
       <path id="DejaVuSans-55" d="M 556 4666 
L 1191 4666 
L 1191 1831 
Q 1191 1081 1462 751 
Q 1734 422 2344 422 
Q 2950 422 3222 751 
Q 3494 1081 3494 1831 
L 3494 4666 
L 4128 4666 
L 4128 1753 
Q 4128 841 3676 375 
Q 3225 -91 2344 -91 
Q 1459 -91 1007 375 
Q 556 841 556 1753 
L 556 4666 
z
" transform="scale(0.015625)"/>
      </defs>
      <use xlink:href="#DejaVuSans-55"/>
      <use xlink:href="#DejaVuSans-72" x="73.193359"/>
      <use xlink:href="#DejaVuSans-65" x="112.056641"/>
      <use xlink:href="#DejaVuSans-6a" x="173.580078"/>
      <use xlink:href="#DejaVuSans-65" x="201.363281"/>
      <use xlink:href="#DejaVuSans-6e" x="262.886719"/>
      <use xlink:href="#DejaVuSans-20" x="326.265625"/>
      <use xlink:href="#DejaVuSans-6e" x="358.052734"/>
      <use xlink:href="#DejaVuSans-69" x="421.431641"/>
      <use xlink:href="#DejaVuSans-76" x="449.214844"/>
      <use xlink:href="#DejaVuSans-6f" x="508.394531"/>
     </g>
    </g>
    <g id="line2d_22">
     <path d="M 308.109062 69.248562 
L 318.109062 69.248562 
L 328.109062 69.248562 
" style="fill: none; stroke: #0000ff; stroke-opacity: 0.5; stroke-width: 5; stroke-linecap: square"/>
    </g>
    <g id="text_23">
     <!-- Neurejen nivo -->
     <g transform="translate(336.109062 72.748562) scale(0.1 -0.1)">
      <defs>
       <path id="DejaVuSans-4e" d="M 628 4666 
L 1478 4666 
L 3547 763 
L 3547 4666 
L 4159 4666 
L 4159 0 
L 3309 0 
L 1241 3903 
L 1241 0 
L 628 0 
L 628 4666 
z
" transform="scale(0.015625)"/>
      </defs>
      <use xlink:href="#DejaVuSans-4e"/>
      <use xlink:href="#DejaVuSans-65" x="74.804688"/>
      <use xlink:href="#DejaVuSans-75" x="136.328125"/>
      <use xlink:href="#DejaVuSans-72" x="199.707031"/>
      <use xlink:href="#DejaVuSans-65" x="238.570312"/>
      <use xlink:href="#DejaVuSans-6a" x="300.09375"/>
      <use xlink:href="#DejaVuSans-65" x="327.876953"/>
      <use xlink:href="#DejaVuSans-6e" x="389.400391"/>
      <use xlink:href="#DejaVuSans-20" x="452.779297"/>
      <use xlink:href="#DejaVuSans-6e" x="484.566406"/>
      <use xlink:href="#DejaVuSans-69" x="547.945312"/>
      <use xlink:href="#DejaVuSans-76" x="575.728516"/>
      <use xlink:href="#DejaVuSans-6f" x="634.908203"/>
     </g>
    </g>
   </g>
  </g>
 </g>
 <defs>
  <clipPath id="p8edf5087cc">
   <rect x="57.6" y="41.472" width="357.12" height="266.112"/>
  </clipPath>
 </defs>
</svg>
