<?xml version="1.0" encoding="utf-8" standalone="no"?>
<!DOCTYPE svg PUBLIC "-//W3C//DTD SVG 1.1//EN"
  "http://www.w3.org/Graphics/SVG/1.1/DTD/svg11.dtd">
<svg xmlns:xlink="http://www.w3.org/1999/xlink" width="460.8pt" height="345.6pt" viewBox="0 0 460.8 345.6" xmlns="http://www.w3.org/2000/svg" version="1.1">
 <metadata>
  <rdf:RDF xmlns:dc="http://purl.org/dc/elements/1.1/" xmlns:cc="http://creativecommons.org/ns#" xmlns:rdf="http://www.w3.org/1999/02/22-rdf-syntax-ns#">
   <cc:Work>
    <dc:type rdf:resource="http://purl.org/dc/dcmitype/StillImage"/>
    <dc:date>2024-08-28T18:18:04.098263</dc:date>
    <dc:format>image/svg+xml</dc:format>
    <dc:creator>
     <cc:Agent>
      <dc:title>Matplotlib v3.7.1, https://matplotlib.org/</dc:title>
     </cc:Agent>
    </dc:creator>
   </cc:Work>
  </rdf:RDF>
 </metadata>
 <defs>
  <style type="text/css">*{stroke-linejoin: round; stroke-linecap: butt}</style>
 </defs>
 <g id="figure_1">
  <g id="patch_1">
   <path d="M 0 345.6 
L 460.8 345.6 
L 460.8 0 
L 0 0 
z
" style="fill: #ffffff"/>
  </g>
  <g id="axes_1">
   <g id="patch_2">
    <path d="M 57.6 307.584 
L 414.72 307.584 
L 414.72 41.472 
L 57.6 41.472 
z
" style="fill: #ffffff"/>
   </g>
   <g id="line2d_1">
    <path d="M 57.989413 198.090808 
L 58.423028 197.598708 
L 58.835331 197.333973 
L 61.806245 191.740011 
L 62.188902 191.214094 
L 62.577934 190.449544 
L 63.742757 189.055444 
L 64.576859 187.566365 
L 65.394155 186.552269 
L 65.821942 186.447824 
L 66.224206 185.977258 
L 66.623883 185.763165 
L 67.468848 184.873182 
L 69.047231 182.534599 
L 69.497881 181.817012 
L 70.651033 180.95412 
L 71.05985 181.13489 
L 71.844253 182.183806 
L 72.230836 182.527937 
L 72.661072 182.590926 
L 73.490642 182.460063 
L 73.918904 182.593617 
L 74.332427 182.250107 
L 74.710337 181.477131 
L 75.133499 181.131794 
L 75.510283 181.131794 
L 75.910379 181.266958 
L 77.078749 182.731538 
L 77.508348 183.030416 
L 77.911354 183.118369 
L 78.35345 183.345888 
L 78.757855 183.171339 
L 79.629441 181.991208 
L 80.383346 180.349974 
L 82.811025 175.759373 
L 84.339955 170.667673 
L 84.72168 170.17583 
L 85.115654 170.062652 
L 85.51983 170.245117 
L 86.33315 171.591485 
L 86.774191 172.060295 
L 87.190609 172.146194 
L 87.565206 171.959896 
L 88.394501 171.133574 
L 88.770175 170.877899 
L 89.21279 170.253729 
L 89.609216 169.911309 
L 89.988556 170.137338 
L 90.412178 169.759149 
L 90.820265 169.820831 
L 91.226705 170.031108 
L 91.638873 169.84694 
L 92.028371 169.402053 
L 92.42674 168.285141 
L 93.189289 166.683997 
L 93.585045 166.446542 
L 93.997314 166.450038 
L 94.442733 166.636209 
L 95.301224 167.252558 
L 96.887469 167.904615 
L 97.284428 168.307557 
L 98.936534 170.601745 
L 99.699256 172.54194 
L 95.030613 176.823909 
L 95.865625 175.957769 
L 96.171252 176.198864 
L 96.811891 175.452079 
L 97.186434 175.483827 
L 97.924028 175.742586 
L 99.518425 173.076634 
L 99.483309 173.099842 
L 99.681185 172.881702 
L 101.45087 174.411843 
L 101.826114 173.614491 
L 102.294967 173.158542 
L 103.062851 171.425349 
L 103.430567 170.637311 
L 103.82632 170.211537 
L 104.216859 169.540164 
L 104.570526 169.220104 
L 105.021829 169.022076 
L 105.43638 168.963769 
L 105.886751 169.029652 
L 106.277729 168.839148 
L 106.693571 169.168383 
L 107.977801 169.47621 
L 108.416305 169.864119 
L 109.196025 170.99672 
L 110.013056 171.724472 
L 110.442243 172.255972 
L 110.882793 172.482538 
L 111.670144 173.237165 
L 112.061055 173.271058 
L 113.275824 173.012337 
L 113.670731 173.075441 
L 114.089888 173.748324 
L 114.900853 175.841282 
L 115.308505 176.621402 
L 115.723498 177.000074 
L 116.118082 176.919269 
L 116.515914 177.155009 
L 116.949817 177.061134 
L 117.376496 177.411026 
L 117.787112 177.939786 
L 118.561882 179.634734 
L 134.577181 188.559613 
L 134.869405 188.404462 
L 135.1351 188.679551 
L 135.619364 188.994878 
L 135.988419 188.730816 
L 136.372776 188.665923 
L 136.718886 188.411429 
L 137.831546 186.394123 
L 138.179199 186.254377 
L 138.435951 185.702029 
L 138.846638 186.036085 
L 139.579964 185.174297 
L 139.893275 185.121193 
L 140.499049 185.558894 
L 140.767268 186.161721 
L 141.211708 185.860593 
L 141.548295 186.015833 
L 141.783612 185.562752 
L 142.205326 186.503733 
L 142.607587 186.200626 
L 143.09912 185.155213 
L 143.279035 185.163346 
L 143.634577 184.667782 
L 143.953279 185.237857 
L 144.374806 185.114011 
L 144.761003 185.14836 
L 145.172574 184.868804 
L 145.519807 184.435379 
L 155.745898 211.109771 
L 156.02878 209.329723 
L 156.44161 208.026617 
L 156.882926 204.759381 
L 157.365575 203.690194 
L 158.152025 199.092164 
L 158.727086 199.489095 
L 159.330671 197.489948 
L 159.776435 196.972115 
L 160.330015 197.14937 
L 160.742419 198.682759 
L 161.274505 199.114015 
L 162.203487 203.407123 
L 163.231162 207.981545 
L 165.142043 218.874736 
L 165.56437 221.122128 
L 166.154455 223.628291 
L 166.566956 224.009907 
L 167.042884 221.952206 
L 168.424468 210.424243 
L 169.040965 208.441859 
L 169.715313 209.023665 
L 170.01298 210.206959 
L 170.582694 213.427087 
L 171.527798 219.939361 
L 172.754389 226.377002 
L 173.264523 226.181513 
L 173.720514 225.199723 
L 174.75921 220.101434 
L 175.516484 212.949643 
L 175.964366 211.948128 
L 176.597172 211.905829 
L 178.069159 204.222437 
L 178.543693 203.407796 
L 179.086755 200.454313 
L 180.10093 198.499667 
L 180.453011 196.32164 
L 181.021008 196.358096 
L 181.621546 196.608886 
L 182.184765 195.278131 
L 182.577819 193.901656 
L 183.19198 192.828885 
L 183.627659 194.003093 
L 184.331796 197.488527 
L 184.823801 198.158137 
L 185.376225 198.692682 
L 185.745119 198.641278 
L 185.848435 198.294977 
L 186.418459 198.636825 
L 187.043079 200.493649 
L 187.543297 199.060035 
L 188.083377 198.693736 
L 188.539135 196.253715 
L 189.04905 195.578141 
L 189.561832 194.298194 
L 190.456473 196.290235 
L 191.122582 198.782814 
L 191.77805 198.782585 
L 192.53185 195.994919 
L 193.299738 192.835762 
L 194.34746 184.781642 
L 194.902854 184.364776 
L 195.495076 184.647213 
L 195.972412 186.150199 
L 196.397671 188.815796 
L 196.808157 190.503778 
L 197.923981 190.637357 
L 198.45253 191.857361 
L 198.932125 190.823025 
L 199.813272 185.34852 
L 200.359666 185.798454 
L 200.885141 183.694329 
L 201.281978 180.144447 
L 201.680791 178.312709 
L 202.149437 177.737748 
L 202.660786 178.169397 
L 203.196617 177.132892 
L 203.530543 177.198292 
L 203.979652 176.911884 
L 204.573694 174.686476 
L 205.655764 172.145969 
L 206.08265 171.549272 
L 207.10004 170.888608 
L 207.574122 172.358627 
L 207.882583 174.008808 
L 208.386404 174.702718 
L 209.007021 175.777113 
L 209.931929 180.907766 
L 210.435284 184.173626 
L 210.774466 185.555011 
L 211.249129 188.401303 
L 211.797434 190.128608 
L 213.08017 196.205483 
L 213.646036 196.031387 
L 214.527725 192.496186 
L 215.063208 188.34075 
L 215.624077 185.522121 
L 216.118664 185.123451 
L 216.495577 183.219169 
L 216.985452 182.668394 
L 217.521838 183.582728 
L 218.027221 186.204851 
L 218.493271 186.915218 
L 218.908393 188.406695 
L 220.520561 199.430116 
L 221.375004 203.807937 
L 221.883847 204.644651 
L 222.398579 204.52418 
L 223.361683 202.601688 
L 223.81176 199.938801 
L 224.332677 199.101212 
L 224.772153 196.688485 
L 225.343662 196.277951 
L 225.592635 196.340649 
L 226.558025 193.565595 
L 227.098272 191.361467 
L 227.910735 187.444244 
L 228.364402 185.901363 
L 229.02368 184.955345 
L 229.544326 185.365511 
L 230.04453 184.506515 
L 230.514545 182.342903 
L 231.081948 181.236836 
L 231.431834 179.72767 
L 231.941207 178.231231 
L 232.505188 179.12393 
L 232.779121 178.815747 
L 233.12401 179.206181 
L 233.62756 180.771395 
L 234.044451 183.03916 
L 234.731879 185.06772 
L 235.283154 184.5013 
L 235.843945 184.91413 
L 236.487431 183.502659 
L 237.005972 185.34984 
L 237.591272 183.857703 
L 238.06046 180.246874 
L 238.562925 179.033722 
L 239.093281 180.059252 
L 239.673481 178.114681 
L 240.224149 175.055554 
L 241.144641 172.826453 
L 241.487489 170.851822 
L 241.984969 170.070623 
L 242.628584 170.236751 
L 242.952077 169.477175 
L 243.439136 169.521955 
L 244.171578 174.645527 
L 244.67168 178.133905 
L 245.113751 180.106011 
L 245.821529 180.98031 
L 246.194543 181.675095 
L 246.677212 180.30626 
L 247.242549 179.148763 
L 247.908567 174.51361 
L 248.397809 172.652167 
L 249.065054 170.786955 
L 249.654939 172.546999 
L 251.520263 166.643154 
L 252.142546 163.863773 
L 252.643783 162.673741 
L 252.957243 159.815865 
L 253.920011 153.897135 
L 254.412713 153.097436 
L 254.950327 153.975428 
L 255.572596 154.566364 
L 255.919616 156.386162 
L 256.855319 162.187744 
L 257.357345 164.702301 
L 258.175296 170.684489 
L 258.832869 173.148417 
L 259.843428 176.074561 
L 260.28067 175.031939 
L 260.795724 174.651517 
L 261.396275 173.184365 
L 261.760133 171.676671 
L 262.28389 170.836049 
L 262.747332 169.839223 
L 263.175458 169.989679 
L 263.801782 171.937193 
L 264.384926 170.640179 
L 264.87808 170.967674 
L 265.391159 173.185748 
L 265.871517 173.561171 
L 266.474598 173.66488 
L 267.003611 172.149928 
L 267.612116 172.028683 
L 268.014583 172.991794 
L 268.968687 170.646079 
L 269.505151 170.474381 
L 270.483092 174.366238 
L 271.059224 175.254483 
L 271.462919 174.14773 
L 272.031316 175.296814 
L 272.524186 175.964875 
L 273.129217 174.7803 
L 273.68221 171.720309 
L 274.375242 170.255074 
L 274.797931 170.49957 
L 275.148024 171.572835 
L 275.744933 174.913549 
L 276.322033 176.329893 
L 276.822819 179.200319 
L 277.381739 180.681277 
L 277.97529 181.357827 
L 278.427007 183.736001 
L 279.045455 184.482951 
L 279.364066 185.106575 
L 279.982643 185.688971 
L 280.335499 186.354901 
L 281.248721 190.719811 
L 281.610152 192.06804 
L 283.268264 188.835895 
L 283.915326 189.380998 
L 284.221825 190.030254 
L 284.765947 189.845931 
L 285.359292 190.72726 
L 285.99308 192.713616 
L 286.582577 193.170897 
L 287.10144 193.936069 
L 287.67756 195.91773 
L 288.171837 199.144697 
L 288.465785 200.261107 
L 289.493441 206.587185 
L 290.004557 208.94793 
L 290.62427 208.727969 
L 291.268982 206.935383 
L 291.748643 204.974012 
L 292.104107 202.576773 
L 293.127347 197.931393 
L 293.452905 194.8184 
L 294.284182 189.436323 
L 295.126874 186.464371 
L 296.346647 181.054225 
L 296.783798 180.459571 
L 297.186808 179.014993 
L 297.609471 179.094859 
L 298.234246 178.637603 
L 298.950934 179.484545 
L 299.343097 180.354974 
L 299.799618 178.949187 
L 300.283359 179.716986 
L 300.630559 181.924223 
L 302.372372 188.413865 
L 302.875431 187.704348 
L 303.327019 187.369086 
L 304.176012 186.460881 
L 305.22314 182.210123 
L 305.538937 181.903983 
L 306.027429 183.825041 
L 306.327808 183.438401 
L 307.67986 189.687011 
L 308.227803 190.370059 
L 308.617564 189.786317 
L 309.274415 191.640667 
L 310.361728 189.397748 
L 310.903602 189.006096 
L 311.660734 194.38113 
L 312.32621 198.804322 
L 312.811268 201.350818 
L 313.960201 203.814047 
L 314.398979 202.379183 
L 314.731846 199.623855 
L 315.15828 197.129245 
L 316.122404 193.22357 
L 316.579648 189.998011 
L 317.072428 188.457122 
L 317.652989 188.476651 
L 318.127407 187.144436 
L 318.761169 186.657171 
L 319.303973 187.601781 
L 319.853156 190.770962 
L 320.247592 192.228368 
L 320.798376 192.225208 
L 321.453754 193.579185 
L 322.005262 192.72128 
L 322.488073 189.156044 
L 322.970187 188.626155 
L 323.27493 186.044028 
L 324.178131 180.218527 
L 324.663603 179.280578 
L 325.252376 177.89847 
L 325.641802 174.4257 
L 327.874432 159.736329 
L 328.409256 158.09734 
L 328.861515 155.781458 
L 329.291332 155.851451 
L 330.759393 147.881118 
L 331.215552 148.088828 
L 331.898073 148.873033 
L 332.403533 150.249927 
L 332.864599 152.079038 
L 333.456059 153.223402 
L 334.055551 154.742059 
L 334.686136 157.045112 
L 335.842584 163.074453 
L 336.427304 163.732478 
L 336.907016 165.113343 
L 337.531093 164.494287 
L 338.116846 167.293501 
L 338.632714 167.055109 
L 338.899596 166.192624 
L 339.927303 162.27412 
L 340.413575 162.193416 
L 340.895766 160.852307 
L 341.406056 157.951541 
L 342.411708 157.300635 
L 343.014195 158.354474 
L 343.483138 158.910642 
L 343.823521 158.691537 
L 344.10923 157.857729 
L 344.457722 157.99962 
L 344.948565 159.616682 
L 346.09334 161.257042 
L 347.004444 166.76525 
L 347.42486 167.961804 
L 347.94969 171.500989 
L 349.244073 173.210505 
L 349.566016 172.934768 
L 350.06644 172.248054 
L 350.458964 171.922842 
L 350.851928 170.965124 
L 351.472158 170.488581 
L 351.827545 170.716783 
L 352.315521 170.216638 
L 352.746423 170.079963 
L 353.25147 171.76174 
L 353.594305 172.406415 
L 354.694712 175.484195 
L 355.14927 177.438803 
L 355.806792 177.466415 
L 356.226614 179.530987 
L 356.740674 181.12045 
L 357.339003 181.283608 
L 357.80557 183.051875 
L 358.264932 183.34209 
L 358.763522 183.880924 
L 359.340907 182.736548 
L 359.882213 181.252329 
L 360.948762 180.431198 
L 363.141285 167.694239 
L 363.638455 166.768663 
L 364.080229 164.284179 
L 364.656349 163.779339 
L 365.370119 163.474912 
L 365.725816 164.553647 
L 366.420243 164.125272 
L 366.989647 162.661445 
L 368.202835 160.503556 
L 369.865259 151.50843 
L 370.295309 150.138439 
L 370.730316 149.345503 
L 370.991931 149.852374 
L 371.435745 152.013727 
L 372.090478 156.522647 
L 372.544132 157.817035 
L 373.157311 158.959673 
L 373.283882 158.312967 
L 374.176702 155.370492 
L 374.661295 153.720108 
L 375.106788 151.458104 
L 375.741325 147.904682 
L 376.191725 148.122226 
L 376.699509 148.141513 
L 377.20076 148.369856 
L 377.713865 146.136441 
L 378.283683 144.312075 
L 378.748726 142.129632 
L 379.488631 142.832513 
L 380.99946 149.989671 
L 382.231939 158.622686 
L 382.822262 160.521182 
L 383.202571 162.494303 
L 384.336783 170.675214 
L 385.653041 177.599677 
L 386.325387 179.193099 
L 386.657608 181.240693 
L 387.229802 181.910874 
L 387.675837 181.8548 
L 388.228326 181.946708 
L 388.673096 183.27424 
L 389.565683 188.022657 
L 390.230643 188.857137 
L 390.841394 187.287901 
L 391.455632 187.544603 
L 392.13508 190.650528 
L 392.603429 193.615666 
L 393.230373 195.29219 
L 393.654224 194.688945 
L 394.213996 192.494372 
L 395.211745 186.351577 
L 395.428784 185.818655 
L 395.753387 184.26443 
L 396.304352 184.712296 
L 396.797339 182.515603 
L 397.278445 178.643161 
L 397.742791 177.705086 
L 398.063649 176.305352 
L 398.514876 175.579859 
L 399.166096 174.063283 
L 399.450179 174.054845 
L 399.947994 174.646771 
L 400.432562 174.215465 
L 401.041764 172.43607 
L 401.71318 171.221154 
L 402.901678 164.229641 
L 403.390377 163.056892 
L 404.082454 162.939834 
L 404.517952 161.903113 
L 404.942552 161.845808 
L 406.213021 163.816557 
L 406.779688 165.86528 
L 407.189748 164.252177 
L 407.761503 164.526873 
L 408.094396 163.547672 
L 408.62687 163.050217 
L 409.065028 162.043696 
L 409.618162 162.363997 
L 410.098159 159.79159 
L 410.714928 158.665372 
L 411.927831 160.982726 
L 412.369037 160.099976 
L 413.050215 160.234431 
L 413.443566 159.142106 
L 413.869044 155.582808 
L 414.513214 154.371572 
L 415.161722 153.5284 
L 415.736137 153.523489 
L 416.267888 152.343519 
L 416.735901 153.751514 
L 417.162309 153.260784 
L 417.632207 155.268649 
L 418.017191 155.096659 
L 418.464956 153.985731 
L 418.930619 154.203186 
L 419.417252 155.138635 
L 420.039031 157.811769 
L 420.653915 158.155329 
L 421.099227 161.056615 
L 421.378894 161.691901 
L 421.963251 161.627985 
L 422.674826 162.285045 
L 423.179409 162.119184 
L 423.744758 160.564439 
L 424.889404 159.5726 
L 425.985343 155.644236 
L 426.825917 153.473493 
L 427.377554 150.237834 
L 427.876893 148.094094 
L 428.463524 148.519081 
L 428.82999 149.366974 
L 429.263009 151.734552 
L 429.723145 151.339346 
L 430.27207 152.261775 
L 430.949375 151.861812 
L 431.422088 150.85425 
L 432.163956 144.724157 
L 432.742038 142.359104 
L 433.245433 142.367365 
L 433.563683 141.764361 
L 433.967984 143.020567 
L 434.675297 144.367755 
L 435.216423 145.054305 
L 435.711062 148.029467 
L 436.03427 149.166992 
L 436.459904 149.539027 
L 437.214814 154.129919 
L 437.694035 155.677749 
L 438.256984 155.119182 
L 439.071655 152.850847 
L 439.547622 150.489981 
L 439.83093 150.314185 
L 440.406765 148.282681 
L 440.813494 147.86683 
L 441.247313 148.996766 
L 441.589194 149.138631 
L 442.686734 152.933288 
L 443.142712 153.068124 
L 443.596521 153.967649 
L 443.970812 156.029455 
L 444.535233 156.652965 
L 445.01417 159.328688 
L 445.590237 159.267805 
L 446.053628 159.621758 
L 446.684626 161.345993 
L 447.234662 161.977763 
L 447.936759 162.062388 
L 448.542681 162.557419 
L 449.131687 164.018581 
L 449.551871 166.158426 
L 449.929985 166.196913 
L 450.352467 167.015988 
L 451.410829 171.889 
L 451.864019 173.89472 
L 452.514774 175.704899 
L 452.768615 176.006661 
L 453.32725 175.457776 
L 453.602526 173.812722 
L 454.1436 171.692799 
L 454.676513 170.266697 
L 455.324582 165.114548 
L 455.755226 163.656063 
L 456.290669 160.85119 
L 456.702847 160.133666 
L 457.146455 158.31166 
L 457.685644 158.735074 
L 458.557157 156.943827 
L 458.979898 156.82413 
L 459.552272 159.638495 
L 460.129244 158.600581 
L 460.864217 158.562628 
L 461.8 160.723301 
L 461.8 160.723301 
" clip-path="url(#p031f9eb881)" style="fill: none; stroke: #ff0000; stroke-opacity: 0.5; stroke-width: 5; stroke-linecap: square"/>
   </g>
   <g id="line2d_2">
    <path d="M 58.217057 221.373795 
L 59.049371 219.648266 
L 59.350235 217.616518 
L 59.862239 214.987111 
L 60.289967 211.411671 
L 60.844688 209.262351 
L 62.114784 201.894655 
L 62.884168 199.043538 
L 63.333605 195.411213 
L 63.915283 194.166832 
L 64.870391 188.93873 
L 65.503217 188.947442 
L 66.035194 189.158299 
L 66.614454 189.027533 
L 67.516563 189.332641 
L 67.843113 186.678981 
L 68.32478 184.308998 
L 68.950758 182.470085 
L 69.398504 179.43614 
L 69.922913 177.513943 
L 70.389581 174.450746 
L 71.282117 171.824653 
L 71.99896 172.584259 
L 72.405616 171.898314 
L 73.00892 169.815742 
L 73.467342 171.441436 
L 73.921294 173.867003 
L 74.641337 175.564306 
L 75.36476 174.892332 
L 75.904352 174.08017 
L 76.408174 175.992111 
L 77.017949 177.535172 
L 78.025524 179.541085 
L 78.623839 177.499634 
L 79.309781 177.590069 
L 79.876728 175.756547 
L 80.472157 176.336687 
L 80.806085 178.094024 
L 81.456563 179.164482 
L 81.969238 180.689618 
L 82.400053 182.910892 
L 82.932199 184.885725 
L 83.501639 185.398281 
L 83.920569 184.174806 
L 84.922218 175.515806 
L 85.243154 174.929741 
L 85.847348 171.431538 
L 86.486209 171.526505 
L 86.877437 171.365795 
L 87.362564 170.995363 
L 87.985361 171.751613 
L 88.714373 171.469698 
L 89.732114 165.890624 
L 90.249714 164.285526 
L 90.766314 164.351215 
L 91.761913 167.479732 
L 93.190507 174.947368 
L 93.720545 176.225835 
L 94.23999 176.18669 
L 94.834884 174.907443 
L 95.326083 174.317879 
L 96.57273 177.458857 
L 97.079409 176.747484 
L 97.623899 178.021742 
L 98.214303 177.771143 
L 98.732726 180.822527 
L 99.966081 181.488028 
L 100.476214 182.048261 
L 101.253764 179.045417 
L 101.697403 179.041966 
L 102.121495 178.921294 
L 102.801648 180.046913 
L 103.298023 181.975897 
L 103.713216 181.979201 
L 104.141663 183.281163 
L 104.673834 185.872107 
L 105.14767 186.852693 
L 105.99272 190.447413 
L 106.370325 191.320784 
L 106.843422 193.099687 
L 107.749264 197.577063 
L 108.371944 199.941631 
L 109.869422 209.562099 
L 110.408271 210.947996 
L 111.107826 211.208807 
L 111.740933 209.375761 
L 112.329143 209.523385 
L 112.955215 209.481038 
L 113.467818 209.180252 
L 113.969801 205.978921 
L 114.455265 205.85673 
L 114.931998 203.715551 
L 115.763063 197.304092 
L 116.256188 194.792049 
L 116.779326 193.378784 
L 117.32909 190.706993 
L 117.797145 189.271214 
L 118.491536 188.010044 
L 119.015243 187.979395 
L 120.232808 181.78754 
L 120.590628 181.356255 
L 121.170188 180.183291 
L 121.578525 179.978196 
L 122.209786 179.423061 
L 122.823583 180.257746 
L 123.308036 182.60497 
L 123.955706 183.39721 
L 124.370927 184.294427 
L 124.908897 183.664452 
L 125.649723 184.171431 
L 126.196647 186.715244 
L 126.844979 188.115506 
L 127.18948 189.812157 
L 127.767071 191.899849 
L 128.739562 193.101594 
L 129.266975 194.831412 
L 129.851284 196.021994 
L 130.390261 198.156355 
L 130.923551 198.882131 
L 131.912324 201.882023 
L 132.400726 200.827578 
L 132.98512 202.48948 
L 133.446648 203.139329 
L 134.383557 208.479913 
L 134.797981 210.718016 
L 135.286154 212.353763 
L 135.877802 213.04906 
L 136.471668 215.664197 
L 137.103709 216.265791 
L 138.450551 221.236771 
L 138.953728 224.435241 
L 139.458118 225.551974 
L 139.911769 224.810966 
L 140.33863 223.132044 
L 140.740943 220.442489 
L 141.222912 219.637025 
L 141.552845 217.407187 
L 141.732169 217.178983 
L 143.5487 209.829679 
L 143.941762 208.567711 
L 145.370488 215.347621 
L 145.793851 218.172989 
L 146.157342 219.307591 
L 146.800502 218.57535 
L 147.376548 216.852514 
L 148.032695 216.726161 
L 148.513359 214.956623 
L 149.200611 215.739758 
L 149.548804 214.840347 
L 150.005566 217.116343 
L 150.57151 217.375798 
L 151.121782 219.607629 
L 151.664061 219.833276 
L 152.219362 219.875018 
L 152.820019 219.613973 
L 153.843539 218.261801 
L 154.382957 216.961693 
L 154.84365 213.701497 
L 155.261994 211.725773 
L 155.745901 211.109769 
L 156.02878 209.329723 
L 156.441611 208.026616 
L 156.882924 204.759382 
L 157.365575 203.690197 
L 158.152027 199.092163 
L 158.727088 199.489091 
L 159.330671 197.489948 
L 159.776435 196.97212 
L 160.330015 197.14937 
L 160.742422 198.682764 
L 161.274505 199.11401 
L 162.20349 203.407126 
L 163.231159 207.981545 
L 165.142041 218.874734 
L 165.564372 221.122129 
L 166.154458 223.628294 
L 166.566962 224.009906 
L 167.042887 221.952203 
L 168.424463 210.42424 
L 169.040971 208.441859 
L 169.715309 209.023663 
L 170.012981 210.206959 
L 170.582697 213.427086 
L 171.527795 219.939358 
L 172.754387 226.377002 
L 173.264528 226.181511 
L 173.72051 225.199724 
L 174.759213 220.101433 
L 175.516488 212.949645 
L 175.964366 211.948131 
L 176.597168 211.905826 
L 178.069159 204.222434 
L 178.543687 203.407795 
L 179.086752 200.454311 
L 180.100933 198.499664 
L 180.453008 196.321645 
L 181.02101 196.358102 
L 181.621544 196.60889 
L 182.184768 195.278136 
L 182.57782 193.901658 
L 183.191975 192.828882 
L 183.627654 194.003091 
L 184.3318 197.488531 
L 184.823799 198.158134 
L 185.376226 198.692688 
L 185.74512 198.641281 
L 185.848439 198.294971 
L 186.418462 198.63683 
L 187.043082 200.493647 
L 187.543292 199.060031 
L 188.083379 198.693731 
L 188.539138 196.253716 
L 189.049051 195.578147 
L 189.561836 194.298194 
L 190.456477 196.290235 
L 191.122578 198.782817 
L 191.778053 198.78258 
L 192.53185 195.994916 
L 193.299742 192.835756 
L 194.347459 184.781646 
L 194.902848 184.364782 
L 195.495072 184.647212 
L 195.972418 186.150203 
L 196.397664 188.81579 
L 196.808163 190.503777 
L 197.923986 190.637351 
L 198.452526 191.857364 
L 198.932132 190.823021 
L 199.813269 185.348514 
L 200.359672 185.798459 
L 200.885147 183.694328 
L 201.281984 180.144443 
L 201.680789 178.312709 
L 202.149441 177.737752 
L 202.660784 178.169403 
L 203.196611 177.132891 
L 203.530547 177.198296 
L 203.979646 176.911885 
L 204.573692 174.686479 
L 205.655765 172.145967 
L 206.082645 171.549275 
L 207.100038 170.888603 
L 207.574126 172.35863 
L 207.88258 174.008806 
L 208.3864 174.702714 
L 209.007021 175.777114 
L 209.931927 180.90777 
L 210.435281 184.173629 
L 210.77446 185.555007 
L 211.24913 188.401299 
L 211.797431 190.128608 
L 213.080175 196.205478 
L 213.646039 196.031386 
L 214.527726 192.496182 
L 215.063206 188.340756 
L 215.624076 185.522125 
L 216.118668 185.123452 
L 216.495579 183.219168 
L 216.985452 182.668395 
L 217.521836 183.582727 
L 218.027223 186.204857 
L 218.493268 186.91522 
L 218.908389 188.406696 
L 220.520556 199.43011 
L 221.375007 203.807936 
L 221.883845 204.644649 
L 222.398582 204.524179 
L 223.361679 202.601691 
L 223.811757 199.938801 
L 224.33268 199.101214 
L 224.772149 196.688481 
L 225.343664 196.277952 
L 225.592631 196.340654 
L 226.558027 193.565597 
L 227.098266 191.361469 
L 227.910732 187.444249 
L 228.364408 185.901359 
L 229.023686 184.955339 
L 229.544328 185.365513 
L 230.044532 184.506517 
L 230.514543 182.342909 
L 231.081951 181.236841 
L 231.431832 179.727669 
L 231.941203 178.231226 
L 232.505192 179.123932 
L 232.779118 178.815753 
L 233.124009 179.206179 
L 233.627553 180.771399 
L 234.044449 183.039164 
L 234.73188 185.067716 
L 235.283155 184.501293 
L 235.843948 184.914129 
L 236.487437 183.502656 
L 237.005975 185.349845 
L 237.591278 183.857707 
L 238.060461 180.246868 
L 238.562918 179.033719 
L 239.093279 180.059248 
L 239.673478 178.114682 
L 240.224148 175.055559 
L 241.144642 172.826451 
L 241.487493 170.851826 
L 241.984973 170.070619 
L 242.628585 170.236746 
L 242.952071 169.477178 
L 243.439138 169.521951 
L 244.17158 174.645532 
L 244.671674 178.133899 
L 245.113756 180.106014 
L 245.821525 180.98031 
L 246.194548 181.675096 
L 246.677211 180.306254 
L 247.24255 179.148759 
L 247.908566 174.513614 
L 248.397811 172.652168 
L 249.065055 170.786958 
L 249.654943 172.547 
L 251.520263 166.643153 
L 252.142547 163.863776 
L 252.64378 162.673739 
L 252.957244 159.815862 
L 253.920012 153.89713 
L 254.412717 153.097437 
L 254.950325 153.975434 
L 255.572596 154.566366 
L 255.919613 156.386161 
L 256.855314 162.187749 
L 257.357338 164.702305 
L 258.175302 170.684492 
L 258.832873 173.148421 
L 259.843431 176.074558 
L 260.280666 175.031938 
L 260.795723 174.651512 
L 261.396278 173.184371 
L 261.760129 171.676667 
L 262.28389 170.836048 
L 262.747331 169.839222 
L 263.175459 169.989677 
L 263.801779 171.937189 
L 264.384926 170.640181 
L 264.878083 170.967677 
L 265.391153 173.185747 
L 265.871516 173.561177 
L 266.474602 173.664878 
L 267.003612 172.149923 
L 267.612119 172.028688 
L 268.014586 172.991799 
L 268.968686 170.646078 
L 269.505157 170.474377 
L 270.48309 174.366242 
L 271.059225 175.254484 
L 271.462916 174.147735 
L 272.031311 175.29682 
L 272.524191 175.964877 
L 273.129223 174.7803 
L 273.682211 171.720307 
L 274.375253 170.255077 
L 274.797934 170.499574 
L 275.148013 171.572841 
L 275.744937 174.913551 
L 276.322031 176.329892 
L 276.822809 179.200314 
L 277.381736 180.681277 
L 277.975294 181.357822 
L 278.427019 183.736003 
L 279.045442 184.482948 
L 279.364079 185.106574 
L 279.982631 185.688969 
L 280.335488 186.354901 
L 281.248726 190.719816 
L 281.610155 192.068037 
L 283.268261 188.835894 
L 283.915334 189.380993 
L 284.221833 190.030257 
L 284.765952 189.845931 
L 285.359291 190.727264 
L 285.993092 192.71361 
L 286.582565 193.170895 
L 287.101449 193.936073 
L 287.677548 195.917727 
L 288.171827 199.144698 
L 288.465788 200.26111 
L 289.493433 206.587184 
L 290.004563 208.947931 
L 290.624266 208.727968 
L 291.268974 206.935382 
L 291.748639 204.974012 
L 292.10412 202.576775 
L 293.127341 197.931398 
L 293.452896 194.818397 
L 294.284179 189.436326 
L 295.126869 186.464376 
L 296.346659 181.054229 
L 296.7838 180.459573 
L 297.186796 179.014997 
L 297.609476 179.094859 
L 298.234236 178.637605 
L 298.950928 179.484541 
L 299.3431 180.354968 
L 299.799611 178.949193 
L 300.283364 179.716981 
L 300.630569 181.924227 
L 302.372374 188.413865 
L 302.875433 187.704345 
L 303.32703 187.369091 
L 304.176022 186.460881 
L 305.22313 182.210121 
L 305.538933 181.903989 
L 306.027426 183.825043 
L 306.327808 183.438398 
L 307.679859 189.687011 
L 308.227795 190.370061 
L 308.617564 189.786319 
L 309.274413 191.640669 
L 310.361739 189.397754 
L 310.9036 189.006094 
L 311.660744 194.38113 
L 312.326214 198.804318 
L 312.811275 201.350818 
L 313.960198 203.814047 
L 314.39897 202.379183 
L 314.731843 199.623851 
L 315.158288 197.129244 
L 316.122399 193.223569 
L 316.579652 189.99801 
L 317.072434 188.457123 
L 317.652977 188.476653 
L 318.127414 187.144435 
L 318.761173 186.657176 
L 319.303983 187.601787 
L 319.853147 190.770957 
L 320.2476 192.228373 
L 320.798383 192.225207 
L 321.453748 193.579185 
L 322.005274 192.721275 
L 322.488079 189.156043 
L 322.970177 188.626161 
L 323.274938 186.044023 
L 324.17812 180.218529 
L 324.663595 179.280578 
L 325.252375 177.898472 
L 325.641801 174.425701 
L 327.874445 159.736329 
L 328.409246 158.097338 
L 328.861513 155.781455 
L 329.291323 155.85145 
L 330.759386 147.881119 
L 331.215545 148.088826 
L 331.898076 148.873037 
L 332.403537 150.249923 
L 332.8646 152.079038 
L 333.456066 153.223402 
L 334.05554 154.742063 
L 334.686138 157.045106 
L 335.842595 163.074458 
L 336.427305 163.732474 
L 336.907007 165.113344 
L 337.531103 164.494285 
L 338.116835 167.2935 
L 338.632701 167.055109 
L 338.899607 166.192628 
L 339.927297 162.274121 
L 340.41357 162.193412 
L 340.895778 160.852304 
L 341.406044 157.951546 
L 342.411711 157.300639 
L 343.0142 158.35447 
L 343.483146 158.910648 
L 343.823533 158.691539 
L 344.109231 157.857731 
L 344.457728 157.999622 
L 344.948573 159.616688 
L 346.093344 161.257039 
L 347.004455 166.765248 
L 347.424865 167.961809 
L 347.949681 171.500995 
L 349.244067 173.210506 
L 349.566027 172.934767 
L 350.066427 172.248053 
L 350.45897 171.922843 
L 350.851922 170.965126 
L 351.472159 170.488579 
L 351.82754 170.71678 
L 352.315515 170.216642 
L 352.746431 170.079967 
L 353.251474 171.761742 
L 353.594312 172.406415 
L 354.694712 175.484192 
L 355.149279 177.438808 
L 355.806793 177.466409 
L 356.226622 179.530985 
L 356.740662 181.120445 
L 357.339012 181.283604 
L 357.805561 183.051877 
L 358.264929 183.342084 
L 358.76352 183.880921 
L 359.340918 182.736542 
L 359.882225 181.252332 
L 360.948765 180.431196 
L 363.14128 167.694238 
L 363.638451 166.768665 
L 364.08023 164.284177 
L 364.656343 163.77934 
L 365.370118 163.474908 
L 365.725806 164.553641 
L 366.420253 164.125276 
L 366.989658 162.661444 
L 368.202833 160.50356 
L 369.865268 151.508426 
L 370.295297 150.138438 
L 370.730318 149.345505 
L 370.991921 149.852373 
L 371.435741 152.013726 
L 372.090468 156.522646 
L 372.544127 157.817037 
L 373.157299 158.959671 
L 373.283874 158.312969 
L 374.17669 155.370486 
L 374.6613 153.720106 
L 375.106791 151.458107 
L 375.741328 147.904678 
L 376.191713 148.122227 
L 376.699522 148.141507 
L 377.200748 148.369858 
L 377.713872 146.136436 
L 378.283692 144.312073 
L 378.748719 142.129633 
L 379.488642 142.832509 
L 380.999453 149.989672 
L 382.231945 158.622681 
L 382.822272 160.521188 
L 383.202569 162.494309 
L 384.336781 170.675216 
L 385.653028 177.599683 
L 386.325396 179.193094 
L 386.657605 181.240696 
L 387.229798 181.91087 
L 387.675837 181.854803 
L 388.228322 181.946711 
L 388.673108 183.274235 
L 389.565673 188.022659 
L 390.230641 188.857131 
L 390.8414 187.287898 
L 391.45562 187.544607 
L 392.135082 190.65053 
L 392.603426 193.615664 
L 393.230385 195.292184 
L 393.654234 194.688947 
L 394.213991 192.494375 
L 395.211751 186.35158 
L 395.428787 185.818659 
L 395.753399 184.264425 
L 396.304353 184.712291 
L 396.797347 182.515607 
L 397.278457 178.643164 
L 397.742796 177.70509 
L 398.06366 176.305346 
L 398.514864 175.579855 
L 399.166089 174.06328 
L 399.45019 174.054851 
L 399.947999 174.646775 
L 400.432571 174.215463 
L 401.041765 172.436071 
L 401.713183 171.221155 
L 402.901667 164.229637 
L 403.390388 163.056896 
L 404.082443 162.939837 
L 404.517958 161.903119 
L 404.942541 161.845804 
L 406.213012 163.816554 
L 406.779684 165.865279 
L 407.189749 164.252181 
L 407.761508 164.526872 
L 408.094383 163.547677 
L 408.626861 163.050216 
L 409.065031 162.0437 
L 409.618172 162.363993 
L 410.098155 159.79159 
L 410.714922 158.665377 
L 411.927836 160.982728 
L 412.369049 160.099977 
L 413.050223 160.234433 
L 413.443569 159.142108 
L 413.86905 155.58281 
L 414.513212 154.371569 
L 415.161732 153.528403 
L 415.736142 153.523486 
L 416.267894 152.343521 
L 416.735905 153.751514 
L 417.162307 153.26079 
L 417.63222 155.268653 
L 418.017184 155.096654 
L 418.464958 153.985733 
L 418.930624 154.203182 
L 419.417256 155.138636 
L 420.039025 157.811763 
L 420.653926 158.155333 
L 421.099232 161.056618 
L 421.378883 161.6919 
L 421.963247 161.627981 
L 422.674831 162.285048 
L 423.179401 162.119182 
L 423.744768 160.564444 
L 424.889405 159.572596 
L 425.985352 155.644231 
L 426.825925 153.473494 
L 427.377546 150.237834 
L 427.876891 148.094097 
L 428.463533 148.519082 
L 428.829979 149.366977 
L 429.262997 151.734546 
L 429.723157 151.339352 
L 430.272074 152.261782 
L 430.94937 151.861805 
L 431.422085 150.854252 
L 432.163953 144.72416 
L 432.742034 142.359106 
L 433.245438 142.367364 
L 433.563681 141.764355 
L 433.967984 143.020566 
L 434.675295 144.367749 
L 435.216431 145.054308 
L 435.711052 148.029467 
L 436.03427 149.166986 
L 436.459909 149.539025 
L 437.214824 154.129916 
L 437.694041 155.677752 
L 438.256973 155.119181 
L 439.07165 152.850848 
L 439.547623 150.489985 
L 439.830923 150.314184 
L 440.406765 148.282687 
L 440.813503 147.866834 
L 441.247311 148.996769 
L 441.589199 149.138636 
L 442.686742 152.933286 
L 443.142717 153.068118 
L 443.596515 153.967653 
L 443.970818 156.029457 
L 444.535228 156.652959 
L 445.01418 159.328692 
L 445.590228 159.267805 
L 446.053624 159.621755 
L 446.684632 161.345992 
L 447.234666 161.977766 
L 447.936767 162.062391 
L 448.542691 162.557413 
L 449.131689 164.018575 
L 449.551876 166.158421 
L 449.929996 166.196914 
L 450.352457 167.015984 
L 451.410829 171.889003 
L 451.864022 173.894717 
L 452.51477 175.704899 
L 452.768606 176.006656 
L 453.327263 175.457778 
L 453.602518 173.812722 
L 454.143606 171.692804 
L 454.676514 170.266694 
L 455.324586 165.114547 
L 455.75523 163.656061 
L 456.29067 160.851187 
L 456.702851 160.13366 
L 457.146464 158.311655 
L 457.685654 158.735076 
L 458.557155 156.943833 
L 458.979889 156.824124 
L 459.552282 159.6385 
L 460.129249 158.600586 
L 460.864224 158.562633 
L 461.8 160.723271 
L 461.8 160.723271 
" clip-path="url(#p031f9eb881)" style="fill: none; stroke: #0000ff; stroke-opacity: 0.5; stroke-width: 5; stroke-linecap: square"/>
   </g>
   <g id="matplotlib.axis_1">
    <g id="xtick_1">
     <g id="line2d_3">
      <defs>
       <path id="m1c0af15b44" d="M 0 0 
L 0 3.5 
" style="stroke: #000000; stroke-width: 0.8"/>
      </defs>
      <g>
       <use xlink:href="#m1c0af15b44" x="57.6" y="307.584" style="stroke: #000000; stroke-width: 0.8"/>
      </g>
     </g>
     <g id="text_1">
      <!-- 0 -->
      <g transform="translate(54.41875 322.182437) scale(0.1 -0.1)">
       <defs>
        <path id="DejaVuSans-30" d="M 2034 4250 
Q 1547 4250 1301 3770 
Q 1056 3291 1056 2328 
Q 1056 1369 1301 889 
Q 1547 409 2034 409 
Q 2525 409 2770 889 
Q 3016 1369 3016 2328 
Q 3016 3291 2770 3770 
Q 2525 4250 2034 4250 
z
M 2034 4750 
Q 2819 4750 3233 4129 
Q 3647 3509 3647 2328 
Q 3647 1150 3233 529 
Q 2819 -91 2034 -91 
Q 1250 -91 836 529 
Q 422 1150 422 2328 
Q 422 3509 836 4129 
Q 1250 4750 2034 4750 
z
" transform="scale(0.015625)"/>
       </defs>
       <use xlink:href="#DejaVuSans-30"/>
      </g>
     </g>
    </g>
    <g id="xtick_2">
     <g id="line2d_4">
      <g>
       <use xlink:href="#m1c0af15b44" x="99.912796" y="307.584" style="stroke: #000000; stroke-width: 0.8"/>
      </g>
     </g>
     <g id="text_2">
      <!-- 50 -->
      <g transform="translate(93.550296 322.182437) scale(0.1 -0.1)">
       <defs>
        <path id="DejaVuSans-35" d="M 691 4666 
L 3169 4666 
L 3169 4134 
L 1269 4134 
L 1269 2991 
Q 1406 3038 1543 3061 
Q 1681 3084 1819 3084 
Q 2600 3084 3056 2656 
Q 3513 2228 3513 1497 
Q 3513 744 3044 326 
Q 2575 -91 1722 -91 
Q 1428 -91 1123 -41 
Q 819 9 494 109 
L 494 744 
Q 775 591 1075 516 
Q 1375 441 1709 441 
Q 2250 441 2565 725 
Q 2881 1009 2881 1497 
Q 2881 1984 2565 2268 
Q 2250 2553 1709 2553 
Q 1456 2553 1204 2497 
Q 953 2441 691 2322 
L 691 4666 
z
" transform="scale(0.015625)"/>
       </defs>
       <use xlink:href="#DejaVuSans-35"/>
       <use xlink:href="#DejaVuSans-30" x="63.623047"/>
      </g>
     </g>
    </g>
    <g id="xtick_3">
     <g id="line2d_5">
      <g>
       <use xlink:href="#m1c0af15b44" x="142.225592" y="307.584" style="stroke: #000000; stroke-width: 0.8"/>
      </g>
     </g>
     <g id="text_3">
      <!-- 100 -->
      <g transform="translate(132.681842 322.182437) scale(0.1 -0.1)">
       <defs>
        <path id="DejaVuSans-31" d="M 794 531 
L 1825 531 
L 1825 4091 
L 703 3866 
L 703 4441 
L 1819 4666 
L 2450 4666 
L 2450 531 
L 3481 531 
L 3481 0 
L 794 0 
L 794 531 
z
" transform="scale(0.015625)"/>
       </defs>
       <use xlink:href="#DejaVuSans-31"/>
       <use xlink:href="#DejaVuSans-30" x="63.623047"/>
       <use xlink:href="#DejaVuSans-30" x="127.246094"/>
      </g>
     </g>
    </g>
    <g id="xtick_4">
     <g id="line2d_6">
      <g>
       <use xlink:href="#m1c0af15b44" x="184.538389" y="307.584" style="stroke: #000000; stroke-width: 0.8"/>
      </g>
     </g>
     <g id="text_4">
      <!-- 150 -->
      <g transform="translate(174.994639 322.182437) scale(0.1 -0.1)">
       <use xlink:href="#DejaVuSans-31"/>
       <use xlink:href="#DejaVuSans-35" x="63.623047"/>
       <use xlink:href="#DejaVuSans-30" x="127.246094"/>
      </g>
     </g>
    </g>
    <g id="xtick_5">
     <g id="line2d_7">
      <g>
       <use xlink:href="#m1c0af15b44" x="226.851185" y="307.584" style="stroke: #000000; stroke-width: 0.8"/>
      </g>
     </g>
     <g id="text_5">
      <!-- 200 -->
      <g transform="translate(217.307435 322.182437) scale(0.1 -0.1)">
       <defs>
        <path id="DejaVuSans-32" d="M 1228 531 
L 3431 531 
L 3431 0 
L 469 0 
L 469 531 
Q 828 903 1448 1529 
Q 2069 2156 2228 2338 
Q 2531 2678 2651 2914 
Q 2772 3150 2772 3378 
Q 2772 3750 2511 3984 
Q 2250 4219 1831 4219 
Q 1534 4219 1204 4116 
Q 875 4013 500 3803 
L 500 4441 
Q 881 4594 1212 4672 
Q 1544 4750 1819 4750 
Q 2544 4750 2975 4387 
Q 3406 4025 3406 3419 
Q 3406 3131 3298 2873 
Q 3191 2616 2906 2266 
Q 2828 2175 2409 1742 
Q 1991 1309 1228 531 
z
" transform="scale(0.015625)"/>
       </defs>
       <use xlink:href="#DejaVuSans-32"/>
       <use xlink:href="#DejaVuSans-30" x="63.623047"/>
       <use xlink:href="#DejaVuSans-30" x="127.246094"/>
      </g>
     </g>
    </g>
    <g id="xtick_6">
     <g id="line2d_8">
      <g>
       <use xlink:href="#m1c0af15b44" x="269.163981" y="307.584" style="stroke: #000000; stroke-width: 0.8"/>
      </g>
     </g>
     <g id="text_6">
      <!-- 250 -->
      <g transform="translate(259.620231 322.182437) scale(0.1 -0.1)">
       <use xlink:href="#DejaVuSans-32"/>
       <use xlink:href="#DejaVuSans-35" x="63.623047"/>
       <use xlink:href="#DejaVuSans-30" x="127.246094"/>
      </g>
     </g>
    </g>
    <g id="xtick_7">
     <g id="line2d_9">
      <g>
       <use xlink:href="#m1c0af15b44" x="311.476777" y="307.584" style="stroke: #000000; stroke-width: 0.8"/>
      </g>
     </g>
     <g id="text_7">
      <!-- 300 -->
      <g transform="translate(301.933027 322.182437) scale(0.1 -0.1)">
       <defs>
        <path id="DejaVuSans-33" d="M 2597 2516 
Q 3050 2419 3304 2112 
Q 3559 1806 3559 1356 
Q 3559 666 3084 287 
Q 2609 -91 1734 -91 
Q 1441 -91 1130 -33 
Q 819 25 488 141 
L 488 750 
Q 750 597 1062 519 
Q 1375 441 1716 441 
Q 2309 441 2620 675 
Q 2931 909 2931 1356 
Q 2931 1769 2642 2001 
Q 2353 2234 1838 2234 
L 1294 2234 
L 1294 2753 
L 1863 2753 
Q 2328 2753 2575 2939 
Q 2822 3125 2822 3475 
Q 2822 3834 2567 4026 
Q 2313 4219 1838 4219 
Q 1578 4219 1281 4162 
Q 984 4106 628 3988 
L 628 4550 
Q 988 4650 1302 4700 
Q 1616 4750 1894 4750 
Q 2613 4750 3031 4423 
Q 3450 4097 3450 3541 
Q 3450 3153 3228 2886 
Q 3006 2619 2597 2516 
z
" transform="scale(0.015625)"/>
       </defs>
       <use xlink:href="#DejaVuSans-33"/>
       <use xlink:href="#DejaVuSans-30" x="63.623047"/>
       <use xlink:href="#DejaVuSans-30" x="127.246094"/>
      </g>
     </g>
    </g>
    <g id="xtick_8">
     <g id="line2d_10">
      <g>
       <use xlink:href="#m1c0af15b44" x="353.789573" y="307.584" style="stroke: #000000; stroke-width: 0.8"/>
      </g>
     </g>
     <g id="text_8">
      <!-- 350 -->
      <g transform="translate(344.245823 322.182437) scale(0.1 -0.1)">
       <use xlink:href="#DejaVuSans-33"/>
       <use xlink:href="#DejaVuSans-35" x="63.623047"/>
       <use xlink:href="#DejaVuSans-30" x="127.246094"/>
      </g>
     </g>
    </g>
    <g id="xtick_9">
     <g id="line2d_11">
      <g>
       <use xlink:href="#m1c0af15b44" x="396.10237" y="307.584" style="stroke: #000000; stroke-width: 0.8"/>
      </g>
     </g>
     <g id="text_9">
      <!-- 400 -->
      <g transform="translate(386.55862 322.182437) scale(0.1 -0.1)">
       <defs>
        <path id="DejaVuSans-34" d="M 2419 4116 
L 825 1625 
L 2419 1625 
L 2419 4116 
z
M 2253 4666 
L 3047 4666 
L 3047 1625 
L 3713 1625 
L 3713 1100 
L 3047 1100 
L 3047 0 
L 2419 0 
L 2419 1100 
L 313 1100 
L 313 1709 
L 2253 4666 
z
" transform="scale(0.015625)"/>
       </defs>
       <use xlink:href="#DejaVuSans-34"/>
       <use xlink:href="#DejaVuSans-30" x="63.623047"/>
       <use xlink:href="#DejaVuSans-30" x="127.246094"/>
      </g>
     </g>
    </g>
    <g id="text_10">
     <!-- X -->
     <g transform="translate(232.735 335.860562) scale(0.1 -0.1)">
      <defs>
       <path id="DejaVuSans-58" d="M 403 4666 
L 1081 4666 
L 2241 2931 
L 3406 4666 
L 4084 4666 
L 2584 2425 
L 4184 0 
L 3506 0 
L 2194 1984 
L 872 0 
L 191 0 
L 1856 2491 
L 403 4666 
z
" transform="scale(0.015625)"/>
      </defs>
      <use xlink:href="#DejaVuSans-58"/>
     </g>
    </g>
   </g>
   <g id="matplotlib.axis_2">
    <g id="ytick_1">
     <g id="line2d_12">
      <defs>
       <path id="mbf307ec4ed" d="M 0 0 
L -3.5 0 
" style="stroke: #000000; stroke-width: 0.8"/>
      </defs>
      <g>
       <use xlink:href="#mbf307ec4ed" x="57.6" y="307.584" style="stroke: #000000; stroke-width: 0.8"/>
      </g>
     </g>
     <g id="text_11">
      <!-- 0 -->
      <g transform="translate(44.2375 311.383219) scale(0.1 -0.1)">
       <use xlink:href="#DejaVuSans-30"/>
      </g>
     </g>
    </g>
    <g id="ytick_2">
     <g id="line2d_13">
      <g>
       <use xlink:href="#mbf307ec4ed" x="57.6" y="274.32" style="stroke: #000000; stroke-width: 0.8"/>
      </g>
     </g>
     <g id="text_12">
      <!-- 5 -->
      <g transform="translate(44.2375 278.119219) scale(0.1 -0.1)">
       <use xlink:href="#DejaVuSans-35"/>
      </g>
     </g>
    </g>
    <g id="ytick_3">
     <g id="line2d_14">
      <g>
       <use xlink:href="#mbf307ec4ed" x="57.6" y="241.056" style="stroke: #000000; stroke-width: 0.8"/>
      </g>
     </g>
     <g id="text_13">
      <!-- 10 -->
      <g transform="translate(37.875 244.855219) scale(0.1 -0.1)">
       <use xlink:href="#DejaVuSans-31"/>
       <use xlink:href="#DejaVuSans-30" x="63.623047"/>
      </g>
     </g>
    </g>
    <g id="ytick_4">
     <g id="line2d_15">
      <g>
       <use xlink:href="#mbf307ec4ed" x="57.6" y="207.792" style="stroke: #000000; stroke-width: 0.8"/>
      </g>
     </g>
     <g id="text_14">
      <!-- 15 -->
      <g transform="translate(37.875 211.591219) scale(0.1 -0.1)">
       <use xlink:href="#DejaVuSans-31"/>
       <use xlink:href="#DejaVuSans-35" x="63.623047"/>
      </g>
     </g>
    </g>
    <g id="ytick_5">
     <g id="line2d_16">
      <g>
       <use xlink:href="#mbf307ec4ed" x="57.6" y="174.528" style="stroke: #000000; stroke-width: 0.8"/>
      </g>
     </g>
     <g id="text_15">
      <!-- 20 -->
      <g transform="translate(37.875 178.327219) scale(0.1 -0.1)">
       <use xlink:href="#DejaVuSans-32"/>
       <use xlink:href="#DejaVuSans-30" x="63.623047"/>
      </g>
     </g>
    </g>
    <g id="ytick_6">
     <g id="line2d_17">
      <g>
       <use xlink:href="#mbf307ec4ed" x="57.6" y="141.264" style="stroke: #000000; stroke-width: 0.8"/>
      </g>
     </g>
     <g id="text_16">
      <!-- 25 -->
      <g transform="translate(37.875 145.063219) scale(0.1 -0.1)">
       <use xlink:href="#DejaVuSans-32"/>
       <use xlink:href="#DejaVuSans-35" x="63.623047"/>
      </g>
     </g>
    </g>
    <g id="ytick_7">
     <g id="line2d_18">
      <g>
       <use xlink:href="#mbf307ec4ed" x="57.6" y="108" style="stroke: #000000; stroke-width: 0.8"/>
      </g>
     </g>
     <g id="text_17">
      <!-- 30 -->
      <g transform="translate(37.875 111.799219) scale(0.1 -0.1)">
       <use xlink:href="#DejaVuSans-33"/>
       <use xlink:href="#DejaVuSans-30" x="63.623047"/>
      </g>
     </g>
    </g>
    <g id="ytick_8">
     <g id="line2d_19">
      <g>
       <use xlink:href="#mbf307ec4ed" x="57.6" y="74.736" style="stroke: #000000; stroke-width: 0.8"/>
      </g>
     </g>
     <g id="text_18">
      <!-- 35 -->
      <g transform="translate(37.875 78.535219) scale(0.1 -0.1)">
       <use xlink:href="#DejaVuSans-33"/>
       <use xlink:href="#DejaVuSans-35" x="63.623047"/>
      </g>
     </g>
    </g>
    <g id="ytick_9">
     <g id="line2d_20">
      <g>
       <use xlink:href="#mbf307ec4ed" x="57.6" y="41.472" style="stroke: #000000; stroke-width: 0.8"/>
      </g>
     </g>
     <g id="text_19">
      <!-- 40 -->
      <g transform="translate(37.875 45.271219) scale(0.1 -0.1)">
       <use xlink:href="#DejaVuSans-34"/>
       <use xlink:href="#DejaVuSans-30" x="63.623047"/>
      </g>
     </g>
    </g>
    <g id="text_20">
     <!-- Y -->
     <g transform="translate(31.795313 177.581906) rotate(-90) scale(0.1 -0.1)">
      <defs>
       <path id="DejaVuSans-59" d="M -13 4666 
L 666 4666 
L 1959 2747 
L 3244 4666 
L 3922 4666 
L 2272 2222 
L 2272 0 
L 1638 0 
L 1638 2222 
L -13 4666 
z
" transform="scale(0.015625)"/>
      </defs>
      <use xlink:href="#DejaVuSans-59"/>
     </g>
    </g>
   </g>
   <g id="patch_3">
    <path d="M 57.6 307.584 
L 57.6 41.472 
" style="fill: none; stroke: #000000; stroke-width: 0.8; stroke-linejoin: miter; stroke-linecap: square"/>
   </g>
   <g id="patch_4">
    <path d="M 414.72 307.584 
L 414.72 41.472 
" style="fill: none; stroke: #000000; stroke-width: 0.8; stroke-linejoin: miter; stroke-linecap: square"/>
   </g>
   <g id="patch_5">
    <path d="M 57.6 307.584 
L 414.72 307.584 
" style="fill: none; stroke: #000000; stroke-width: 0.8; stroke-linejoin: miter; stroke-linecap: square"/>
   </g>
   <g id="patch_6">
    <path d="M 57.6 41.472 
L 414.72 41.472 
" style="fill: none; stroke: #000000; stroke-width: 0.8; stroke-linejoin: miter; stroke-linecap: square"/>
   </g>
   <g id="text_21">
    <!-- Primerjava segmentev nivojev: Generiran nivo 7 (neurejen) vs Generiran nivo 7 (urejen) -->
    <g transform="translate(-28.247812 35.472) scale(0.12 -0.12)">
     <defs>
      <path id="DejaVuSans-50" d="M 1259 4147 
L 1259 2394 
L 2053 2394 
Q 2494 2394 2734 2622 
Q 2975 2850 2975 3272 
Q 2975 3691 2734 3919 
Q 2494 4147 2053 4147 
L 1259 4147 
z
M 628 4666 
L 2053 4666 
Q 2838 4666 3239 4311 
Q 3641 3956 3641 3272 
Q 3641 2581 3239 2228 
Q 2838 1875 2053 1875 
L 1259 1875 
L 1259 0 
L 628 0 
L 628 4666 
z
" transform="scale(0.015625)"/>
      <path id="DejaVuSans-72" d="M 2631 2963 
Q 2534 3019 2420 3045 
Q 2306 3072 2169 3072 
Q 1681 3072 1420 2755 
Q 1159 2438 1159 1844 
L 1159 0 
L 581 0 
L 581 3500 
L 1159 3500 
L 1159 2956 
Q 1341 3275 1631 3429 
Q 1922 3584 2338 3584 
Q 2397 3584 2469 3576 
Q 2541 3569 2628 3553 
L 2631 2963 
z
" transform="scale(0.015625)"/>
      <path id="DejaVuSans-69" d="M 603 3500 
L 1178 3500 
L 1178 0 
L 603 0 
L 603 3500 
z
M 603 4863 
L 1178 4863 
L 1178 4134 
L 603 4134 
L 603 4863 
z
" transform="scale(0.015625)"/>
      <path id="DejaVuSans-6d" d="M 3328 2828 
Q 3544 3216 3844 3400 
Q 4144 3584 4550 3584 
Q 5097 3584 5394 3201 
Q 5691 2819 5691 2113 
L 5691 0 
L 5113 0 
L 5113 2094 
Q 5113 2597 4934 2840 
Q 4756 3084 4391 3084 
Q 3944 3084 3684 2787 
Q 3425 2491 3425 1978 
L 3425 0 
L 2847 0 
L 2847 2094 
Q 2847 2600 2669 2842 
Q 2491 3084 2119 3084 
Q 1678 3084 1418 2786 
Q 1159 2488 1159 1978 
L 1159 0 
L 581 0 
L 581 3500 
L 1159 3500 
L 1159 2956 
Q 1356 3278 1631 3431 
Q 1906 3584 2284 3584 
Q 2666 3584 2933 3390 
Q 3200 3197 3328 2828 
z
" transform="scale(0.015625)"/>
      <path id="DejaVuSans-65" d="M 3597 1894 
L 3597 1613 
L 953 1613 
Q 991 1019 1311 708 
Q 1631 397 2203 397 
Q 2534 397 2845 478 
Q 3156 559 3463 722 
L 3463 178 
Q 3153 47 2828 -22 
Q 2503 -91 2169 -91 
Q 1331 -91 842 396 
Q 353 884 353 1716 
Q 353 2575 817 3079 
Q 1281 3584 2069 3584 
Q 2775 3584 3186 3129 
Q 3597 2675 3597 1894 
z
M 3022 2063 
Q 3016 2534 2758 2815 
Q 2500 3097 2075 3097 
Q 1594 3097 1305 2825 
Q 1016 2553 972 2059 
L 3022 2063 
z
" transform="scale(0.015625)"/>
      <path id="DejaVuSans-6a" d="M 603 3500 
L 1178 3500 
L 1178 -63 
Q 1178 -731 923 -1031 
Q 669 -1331 103 -1331 
L -116 -1331 
L -116 -844 
L 38 -844 
Q 366 -844 484 -692 
Q 603 -541 603 -63 
L 603 3500 
z
M 603 4863 
L 1178 4863 
L 1178 4134 
L 603 4134 
L 603 4863 
z
" transform="scale(0.015625)"/>
      <path id="DejaVuSans-61" d="M 2194 1759 
Q 1497 1759 1228 1600 
Q 959 1441 959 1056 
Q 959 750 1161 570 
Q 1363 391 1709 391 
Q 2188 391 2477 730 
Q 2766 1069 2766 1631 
L 2766 1759 
L 2194 1759 
z
M 3341 1997 
L 3341 0 
L 2766 0 
L 2766 531 
Q 2569 213 2275 61 
Q 1981 -91 1556 -91 
Q 1019 -91 701 211 
Q 384 513 384 1019 
Q 384 1609 779 1909 
Q 1175 2209 1959 2209 
L 2766 2209 
L 2766 2266 
Q 2766 2663 2505 2880 
Q 2244 3097 1772 3097 
Q 1472 3097 1187 3025 
Q 903 2953 641 2809 
L 641 3341 
Q 956 3463 1253 3523 
Q 1550 3584 1831 3584 
Q 2591 3584 2966 3190 
Q 3341 2797 3341 1997 
z
" transform="scale(0.015625)"/>
      <path id="DejaVuSans-76" d="M 191 3500 
L 800 3500 
L 1894 563 
L 2988 3500 
L 3597 3500 
L 2284 0 
L 1503 0 
L 191 3500 
z
" transform="scale(0.015625)"/>
      <path id="DejaVuSans-20" transform="scale(0.015625)"/>
      <path id="DejaVuSans-73" d="M 2834 3397 
L 2834 2853 
Q 2591 2978 2328 3040 
Q 2066 3103 1784 3103 
Q 1356 3103 1142 2972 
Q 928 2841 928 2578 
Q 928 2378 1081 2264 
Q 1234 2150 1697 2047 
L 1894 2003 
Q 2506 1872 2764 1633 
Q 3022 1394 3022 966 
Q 3022 478 2636 193 
Q 2250 -91 1575 -91 
Q 1294 -91 989 -36 
Q 684 19 347 128 
L 347 722 
Q 666 556 975 473 
Q 1284 391 1588 391 
Q 1994 391 2212 530 
Q 2431 669 2431 922 
Q 2431 1156 2273 1281 
Q 2116 1406 1581 1522 
L 1381 1569 
Q 847 1681 609 1914 
Q 372 2147 372 2553 
Q 372 3047 722 3315 
Q 1072 3584 1716 3584 
Q 2034 3584 2315 3537 
Q 2597 3491 2834 3397 
z
" transform="scale(0.015625)"/>
      <path id="DejaVuSans-67" d="M 2906 1791 
Q 2906 2416 2648 2759 
Q 2391 3103 1925 3103 
Q 1463 3103 1205 2759 
Q 947 2416 947 1791 
Q 947 1169 1205 825 
Q 1463 481 1925 481 
Q 2391 481 2648 825 
Q 2906 1169 2906 1791 
z
M 3481 434 
Q 3481 -459 3084 -895 
Q 2688 -1331 1869 -1331 
Q 1566 -1331 1297 -1286 
Q 1028 -1241 775 -1147 
L 775 -588 
Q 1028 -725 1275 -790 
Q 1522 -856 1778 -856 
Q 2344 -856 2625 -561 
Q 2906 -266 2906 331 
L 2906 616 
Q 2728 306 2450 153 
Q 2172 0 1784 0 
Q 1141 0 747 490 
Q 353 981 353 1791 
Q 353 2603 747 3093 
Q 1141 3584 1784 3584 
Q 2172 3584 2450 3431 
Q 2728 3278 2906 2969 
L 2906 3500 
L 3481 3500 
L 3481 434 
z
" transform="scale(0.015625)"/>
      <path id="DejaVuSans-6e" d="M 3513 2113 
L 3513 0 
L 2938 0 
L 2938 2094 
Q 2938 2591 2744 2837 
Q 2550 3084 2163 3084 
Q 1697 3084 1428 2787 
Q 1159 2491 1159 1978 
L 1159 0 
L 581 0 
L 581 3500 
L 1159 3500 
L 1159 2956 
Q 1366 3272 1645 3428 
Q 1925 3584 2291 3584 
Q 2894 3584 3203 3211 
Q 3513 2838 3513 2113 
z
" transform="scale(0.015625)"/>
      <path id="DejaVuSans-74" d="M 1172 4494 
L 1172 3500 
L 2356 3500 
L 2356 3053 
L 1172 3053 
L 1172 1153 
Q 1172 725 1289 603 
Q 1406 481 1766 481 
L 2356 481 
L 2356 0 
L 1766 0 
Q 1100 0 847 248 
Q 594 497 594 1153 
L 594 3053 
L 172 3053 
L 172 3500 
L 594 3500 
L 594 4494 
L 1172 4494 
z
" transform="scale(0.015625)"/>
      <path id="DejaVuSans-6f" d="M 1959 3097 
Q 1497 3097 1228 2736 
Q 959 2375 959 1747 
Q 959 1119 1226 758 
Q 1494 397 1959 397 
Q 2419 397 2687 759 
Q 2956 1122 2956 1747 
Q 2956 2369 2687 2733 
Q 2419 3097 1959 3097 
z
M 1959 3584 
Q 2709 3584 3137 3096 
Q 3566 2609 3566 1747 
Q 3566 888 3137 398 
Q 2709 -91 1959 -91 
Q 1206 -91 779 398 
Q 353 888 353 1747 
Q 353 2609 779 3096 
Q 1206 3584 1959 3584 
z
" transform="scale(0.015625)"/>
      <path id="DejaVuSans-3a" d="M 750 794 
L 1409 794 
L 1409 0 
L 750 0 
L 750 794 
z
M 750 3309 
L 1409 3309 
L 1409 2516 
L 750 2516 
L 750 3309 
z
" transform="scale(0.015625)"/>
      <path id="DejaVuSans-47" d="M 3809 666 
L 3809 1919 
L 2778 1919 
L 2778 2438 
L 4434 2438 
L 4434 434 
Q 4069 175 3628 42 
Q 3188 -91 2688 -91 
Q 1594 -91 976 548 
Q 359 1188 359 2328 
Q 359 3472 976 4111 
Q 1594 4750 2688 4750 
Q 3144 4750 3555 4637 
Q 3966 4525 4313 4306 
L 4313 3634 
Q 3963 3931 3569 4081 
Q 3175 4231 2741 4231 
Q 1884 4231 1454 3753 
Q 1025 3275 1025 2328 
Q 1025 1384 1454 906 
Q 1884 428 2741 428 
Q 3075 428 3337 486 
Q 3600 544 3809 666 
z
" transform="scale(0.015625)"/>
      <path id="DejaVuSans-37" d="M 525 4666 
L 3525 4666 
L 3525 4397 
L 1831 0 
L 1172 0 
L 2766 4134 
L 525 4134 
L 525 4666 
z
" transform="scale(0.015625)"/>
      <path id="DejaVuSans-28" d="M 1984 4856 
Q 1566 4138 1362 3434 
Q 1159 2731 1159 2009 
Q 1159 1288 1364 580 
Q 1569 -128 1984 -844 
L 1484 -844 
Q 1016 -109 783 600 
Q 550 1309 550 2009 
Q 550 2706 781 3412 
Q 1013 4119 1484 4856 
L 1984 4856 
z
" transform="scale(0.015625)"/>
      <path id="DejaVuSans-75" d="M 544 1381 
L 544 3500 
L 1119 3500 
L 1119 1403 
Q 1119 906 1312 657 
Q 1506 409 1894 409 
Q 2359 409 2629 706 
Q 2900 1003 2900 1516 
L 2900 3500 
L 3475 3500 
L 3475 0 
L 2900 0 
L 2900 538 
Q 2691 219 2414 64 
Q 2138 -91 1772 -91 
Q 1169 -91 856 284 
Q 544 659 544 1381 
z
M 1991 3584 
L 1991 3584 
z
" transform="scale(0.015625)"/>
      <path id="DejaVuSans-29" d="M 513 4856 
L 1013 4856 
Q 1481 4119 1714 3412 
Q 1947 2706 1947 2009 
Q 1947 1309 1714 600 
Q 1481 -109 1013 -844 
L 513 -844 
Q 928 -128 1133 580 
Q 1338 1288 1338 2009 
Q 1338 2731 1133 3434 
Q 928 4138 513 4856 
z
" transform="scale(0.015625)"/>
     </defs>
     <use xlink:href="#DejaVuSans-50"/>
     <use xlink:href="#DejaVuSans-72" x="58.552734"/>
     <use xlink:href="#DejaVuSans-69" x="99.666016"/>
     <use xlink:href="#DejaVuSans-6d" x="127.449219"/>
     <use xlink:href="#DejaVuSans-65" x="224.861328"/>
     <use xlink:href="#DejaVuSans-72" x="286.384766"/>
     <use xlink:href="#DejaVuSans-6a" x="327.498047"/>
     <use xlink:href="#DejaVuSans-61" x="355.28125"/>
     <use xlink:href="#DejaVuSans-76" x="416.560547"/>
     <use xlink:href="#DejaVuSans-61" x="475.740234"/>
     <use xlink:href="#DejaVuSans-20" x="537.019531"/>
     <use xlink:href="#DejaVuSans-73" x="568.806641"/>
     <use xlink:href="#DejaVuSans-65" x="620.90625"/>
     <use xlink:href="#DejaVuSans-67" x="682.429688"/>
     <use xlink:href="#DejaVuSans-6d" x="745.90625"/>
     <use xlink:href="#DejaVuSans-65" x="843.318359"/>
     <use xlink:href="#DejaVuSans-6e" x="904.841797"/>
     <use xlink:href="#DejaVuSans-74" x="968.220703"/>
     <use xlink:href="#DejaVuSans-65" x="1007.429688"/>
     <use xlink:href="#DejaVuSans-76" x="1068.953125"/>
     <use xlink:href="#DejaVuSans-20" x="1128.132812"/>
     <use xlink:href="#DejaVuSans-6e" x="1159.919922"/>
     <use xlink:href="#DejaVuSans-69" x="1223.298828"/>
     <use xlink:href="#DejaVuSans-76" x="1251.082031"/>
     <use xlink:href="#DejaVuSans-6f" x="1310.261719"/>
     <use xlink:href="#DejaVuSans-6a" x="1371.443359"/>
     <use xlink:href="#DejaVuSans-65" x="1399.226562"/>
     <use xlink:href="#DejaVuSans-76" x="1460.75"/>
     <use xlink:href="#DejaVuSans-3a" x="1514.429688"/>
     <use xlink:href="#DejaVuSans-20" x="1548.121094"/>
     <use xlink:href="#DejaVuSans-47" x="1579.908203"/>
     <use xlink:href="#DejaVuSans-65" x="1657.398438"/>
     <use xlink:href="#DejaVuSans-6e" x="1718.921875"/>
     <use xlink:href="#DejaVuSans-65" x="1782.300781"/>
     <use xlink:href="#DejaVuSans-72" x="1843.824219"/>
     <use xlink:href="#DejaVuSans-69" x="1884.9375"/>
     <use xlink:href="#DejaVuSans-72" x="1912.720703"/>
     <use xlink:href="#DejaVuSans-61" x="1953.833984"/>
     <use xlink:href="#DejaVuSans-6e" x="2015.113281"/>
     <use xlink:href="#DejaVuSans-20" x="2078.492188"/>
     <use xlink:href="#DejaVuSans-6e" x="2110.279297"/>
     <use xlink:href="#DejaVuSans-69" x="2173.658203"/>
     <use xlink:href="#DejaVuSans-76" x="2201.441406"/>
     <use xlink:href="#DejaVuSans-6f" x="2260.621094"/>
     <use xlink:href="#DejaVuSans-20" x="2321.802734"/>
     <use xlink:href="#DejaVuSans-37" x="2353.589844"/>
     <use xlink:href="#DejaVuSans-20" x="2417.212891"/>
     <use xlink:href="#DejaVuSans-28" x="2449"/>
     <use xlink:href="#DejaVuSans-6e" x="2488.013672"/>
     <use xlink:href="#DejaVuSans-65" x="2551.392578"/>
     <use xlink:href="#DejaVuSans-75" x="2612.916016"/>
     <use xlink:href="#DejaVuSans-72" x="2676.294922"/>
     <use xlink:href="#DejaVuSans-65" x="2715.158203"/>
     <use xlink:href="#DejaVuSans-6a" x="2776.681641"/>
     <use xlink:href="#DejaVuSans-65" x="2804.464844"/>
     <use xlink:href="#DejaVuSans-6e" x="2865.988281"/>
     <use xlink:href="#DejaVuSans-29" x="2929.367188"/>
     <use xlink:href="#DejaVuSans-20" x="2968.380859"/>
     <use xlink:href="#DejaVuSans-76" x="3000.167969"/>
     <use xlink:href="#DejaVuSans-73" x="3059.347656"/>
     <use xlink:href="#DejaVuSans-20" x="3111.447266"/>
     <use xlink:href="#DejaVuSans-47" x="3143.234375"/>
     <use xlink:href="#DejaVuSans-65" x="3220.724609"/>
     <use xlink:href="#DejaVuSans-6e" x="3282.248047"/>
     <use xlink:href="#DejaVuSans-65" x="3345.626953"/>
     <use xlink:href="#DejaVuSans-72" x="3407.150391"/>
     <use xlink:href="#DejaVuSans-69" x="3448.263672"/>
     <use xlink:href="#DejaVuSans-72" x="3476.046875"/>
     <use xlink:href="#DejaVuSans-61" x="3517.160156"/>
     <use xlink:href="#DejaVuSans-6e" x="3578.439453"/>
     <use xlink:href="#DejaVuSans-20" x="3641.818359"/>
     <use xlink:href="#DejaVuSans-6e" x="3673.605469"/>
     <use xlink:href="#DejaVuSans-69" x="3736.984375"/>
     <use xlink:href="#DejaVuSans-76" x="3764.767578"/>
     <use xlink:href="#DejaVuSans-6f" x="3823.947266"/>
     <use xlink:href="#DejaVuSans-20" x="3885.128906"/>
     <use xlink:href="#DejaVuSans-37" x="3916.916016"/>
     <use xlink:href="#DejaVuSans-20" x="3980.539062"/>
     <use xlink:href="#DejaVuSans-28" x="4012.326172"/>
     <use xlink:href="#DejaVuSans-75" x="4051.339844"/>
     <use xlink:href="#DejaVuSans-72" x="4114.71875"/>
     <use xlink:href="#DejaVuSans-65" x="4153.582031"/>
     <use xlink:href="#DejaVuSans-6a" x="4215.105469"/>
     <use xlink:href="#DejaVuSans-65" x="4242.888672"/>
     <use xlink:href="#DejaVuSans-6e" x="4304.412109"/>
     <use xlink:href="#DejaVuSans-29" x="4367.791016"/>
    </g>
   </g>
   <g id="legend_1">
    <g id="patch_7">
     <path d="M 306.109062 78.82825 
L 407.72 78.82825 
Q 409.72 78.82825 409.72 76.82825 
L 409.72 48.472 
Q 409.72 46.472 407.72 46.472 
L 306.109062 46.472 
Q 304.109062 46.472 304.109062 48.472 
L 304.109062 76.82825 
Q 304.109062 78.82825 306.109062 78.82825 
z
" style="fill: #ffffff; opacity: 0.8; stroke: #cccccc; stroke-linejoin: miter"/>
    </g>
    <g id="line2d_21">
     <path d="M 308.109062 54.570437 
L 318.109062 54.570437 
L 328.109062 54.570437 
" style="fill: none; stroke: #ff0000; stroke-opacity: 0.5; stroke-width: 5; stroke-linecap: square"/>
    </g>
    <g id="text_22">
     <!-- Urejen nivo -->
     <g transform="translate(336.109062 58.070437) scale(0.1 -0.1)">
      <defs>
       <path id="DejaVuSans-55" d="M 556 4666 
L 1191 4666 
L 1191 1831 
Q 1191 1081 1462 751 
Q 1734 422 2344 422 
Q 2950 422 3222 751 
Q 3494 1081 3494 1831 
L 3494 4666 
L 4128 4666 
L 4128 1753 
Q 4128 841 3676 375 
Q 3225 -91 2344 -91 
Q 1459 -91 1007 375 
Q 556 841 556 1753 
L 556 4666 
z
" transform="scale(0.015625)"/>
      </defs>
      <use xlink:href="#DejaVuSans-55"/>
      <use xlink:href="#DejaVuSans-72" x="73.193359"/>
      <use xlink:href="#DejaVuSans-65" x="112.056641"/>
      <use xlink:href="#DejaVuSans-6a" x="173.580078"/>
      <use xlink:href="#DejaVuSans-65" x="201.363281"/>
      <use xlink:href="#DejaVuSans-6e" x="262.886719"/>
      <use xlink:href="#DejaVuSans-20" x="326.265625"/>
      <use xlink:href="#DejaVuSans-6e" x="358.052734"/>
      <use xlink:href="#DejaVuSans-69" x="421.431641"/>
      <use xlink:href="#DejaVuSans-76" x="449.214844"/>
      <use xlink:href="#DejaVuSans-6f" x="508.394531"/>
     </g>
    </g>
    <g id="line2d_22">
     <path d="M 308.109062 69.248562 
L 318.109062 69.248562 
L 328.109062 69.248562 
" style="fill: none; stroke: #0000ff; stroke-opacity: 0.5; stroke-width: 5; stroke-linecap: square"/>
    </g>
    <g id="text_23">
     <!-- Neurejen nivo -->
     <g transform="translate(336.109062 72.748562) scale(0.1 -0.1)">
      <defs>
       <path id="DejaVuSans-4e" d="M 628 4666 
L 1478 4666 
L 3547 763 
L 3547 4666 
L 4159 4666 
L 4159 0 
L 3309 0 
L 1241 3903 
L 1241 0 
L 628 0 
L 628 4666 
z
" transform="scale(0.015625)"/>
      </defs>
      <use xlink:href="#DejaVuSans-4e"/>
      <use xlink:href="#DejaVuSans-65" x="74.804688"/>
      <use xlink:href="#DejaVuSans-75" x="136.328125"/>
      <use xlink:href="#DejaVuSans-72" x="199.707031"/>
      <use xlink:href="#DejaVuSans-65" x="238.570312"/>
      <use xlink:href="#DejaVuSans-6a" x="300.09375"/>
      <use xlink:href="#DejaVuSans-65" x="327.876953"/>
      <use xlink:href="#DejaVuSans-6e" x="389.400391"/>
      <use xlink:href="#DejaVuSans-20" x="452.779297"/>
      <use xlink:href="#DejaVuSans-6e" x="484.566406"/>
      <use xlink:href="#DejaVuSans-69" x="547.945312"/>
      <use xlink:href="#DejaVuSans-76" x="575.728516"/>
      <use xlink:href="#DejaVuSans-6f" x="634.908203"/>
     </g>
    </g>
   </g>
  </g>
 </g>
 <defs>
  <clipPath id="p031f9eb881">
   <rect x="57.6" y="41.472" width="357.12" height="266.112"/>
  </clipPath>
 </defs>
</svg>
