<?xml version="1.0" encoding="utf-8" standalone="no"?>
<!DOCTYPE svg PUBLIC "-//W3C//DTD SVG 1.1//EN"
  "http://www.w3.org/Graphics/SVG/1.1/DTD/svg11.dtd">
<svg xmlns:xlink="http://www.w3.org/1999/xlink" width="460.8pt" height="345.6pt" viewBox="0 0 460.8 345.6" xmlns="http://www.w3.org/2000/svg" version="1.1">
 <metadata>
  <rdf:RDF xmlns:dc="http://purl.org/dc/elements/1.1/" xmlns:cc="http://creativecommons.org/ns#" xmlns:rdf="http://www.w3.org/1999/02/22-rdf-syntax-ns#">
   <cc:Work>
    <dc:type rdf:resource="http://purl.org/dc/dcmitype/StillImage"/>
    <dc:date>2024-08-28T18:18:04.567675</dc:date>
    <dc:format>image/svg+xml</dc:format>
    <dc:creator>
     <cc:Agent>
      <dc:title>Matplotlib v3.7.1, https://matplotlib.org/</dc:title>
     </cc:Agent>
    </dc:creator>
   </cc:Work>
  </rdf:RDF>
 </metadata>
 <defs>
  <style type="text/css">*{stroke-linejoin: round; stroke-linecap: butt}</style>
 </defs>
 <g id="figure_1">
  <g id="patch_1">
   <path d="M 0 345.6 
L 460.8 345.6 
L 460.8 0 
L 0 0 
z
" style="fill: #ffffff"/>
  </g>
  <g id="axes_1">
   <g id="patch_2">
    <path d="M 57.6 307.584 
L 414.72 307.584 
L 414.72 41.472 
L 57.6 41.472 
z
" style="fill: #ffffff"/>
   </g>
   <g id="line2d_1">
    <path d="M 57.989413 239.989599 
L 58.423028 239.497505 
L 58.835331 239.23277 
L 61.806245 233.638808 
L 62.188902 233.112891 
L 62.577934 232.348335 
L 63.742757 230.954235 
L 64.576859 229.465169 
L 65.394155 228.451066 
L 65.821942 228.346622 
L 66.224206 227.876055 
L 66.623883 227.661963 
L 67.468848 226.77198 
L 69.047231 224.433396 
L 69.497881 223.715803 
L 69.94335 223.715803 
L 70.292432 223.495899 
L 70.990713 222.363717 
L 71.400179 223.273736 
L 72.061842 223.43657 
L 72.4319 224.198881 
L 72.896953 224.016917 
L 73.209248 224.246637 
L 73.630414 224.168617 
L 74.058674 224.302184 
L 74.472198 223.958674 
L 74.850109 223.185692 
L 75.273269 222.840361 
L 75.650053 222.720842 
L 76.050149 222.856001 
L 77.218521 224.320583 
L 77.648118 224.619458 
L 78.051125 224.707413 
L 78.49322 224.934931 
L 78.897624 224.760378 
L 79.769212 223.58025 
L 80.523117 221.939016 
L 82.950796 217.348415 
L 84.479726 212.256715 
L 84.861451 211.764873 
L 85.255425 211.651694 
L 85.6596 211.834159 
L 86.472921 213.180527 
L 86.913962 213.649337 
L 87.33038 213.735236 
L 87.704977 213.548938 
L 88.534272 212.722616 
L 88.909946 212.466942 
L 89.35256 211.842771 
L 89.748987 211.500351 
L 90.128327 211.72638 
L 90.551949 211.348191 
L 90.960035 211.409873 
L 91.366476 211.620151 
L 91.778643 211.435982 
L 92.168142 210.991095 
L 92.566511 209.874183 
L 93.329059 208.27304 
L 93.724816 208.035584 
L 94.137085 208.03908 
L 94.582504 208.225251 
L 95.440995 208.841601 
L 97.02724 209.493657 
L 97.424198 209.8966 
L 99.076305 212.190787 
L 99.839026 214.130983 
L 101.108139 216.285098 
L 101.527112 216.621529 
L 102.781076 216.70425 
L 103.180949 215.818426 
L 103.580735 215.595227 
L 104.385923 214.317103 
L 104.782173 213.880031 
L 106.682844 192.59921 
L 107.105972 192.064132 
L 107.952227 190.408951 
L 108.375355 189.546605 
L 108.798483 188.960402 
L 109.644739 188.553763 
L 111.337251 186.225788 
L 112.183507 184.873373 
L 113.029763 182.961642 
L 113.876019 180.799718 
L 114.722275 177.748597 
L 115.145403 176.181467 
L 115.568531 175.9414 
L 115.991659 176.699124 
L 116.837915 178.858104 
L 117.261043 179.592707 
L 118.107299 180.458505 
L 118.953555 181.305446 
L 119.79981 182.652558 
L 120.646066 184.15628 
L 121.069194 183.578248 
L 121.91545 180.570982 
L 122.338578 180.27257 
L 122.761706 181.136248 
L 123.607962 183.74435 
L 124.03109 184.57043 
L 124.454218 184.759563 
L 124.877346 185.259543 
L 126.569858 188.881843 
L 128.26237 192.862067 
L 128.685498 194.96019 
L 129.531754 201.134733 
L 130.378009 207.287864 
L 131.224265 211.443079 
L 132.493649 215.891002 
L 132.80696 215.837904 
L 133.412734 216.275599 
L 133.680953 216.878419 
L 134.125393 216.577298 
L 134.461979 216.732537 
L 134.697297 216.279457 
L 135.119011 217.220431 
L 135.521271 216.91733 
L 136.012805 215.871924 
L 136.19272 215.880057 
L 136.548262 215.384487 
L 136.866964 215.954568 
L 137.28849 215.830715 
L 137.674688 215.865065 
L 138.086259 215.585509 
L 138.433491 215.152084 
L 139.468707 213.217455 
L 140.400401 210.677862 
L 140.897817 210.767816 
L 141.339242 209.871381 
L 141.631111 209.564061 
L 142.003259 210.009769 
L 142.709998 210.18311 
L 143.196122 210.329867 
L 143.570342 210.220302 
L 143.997615 209.961525 
L 144.442327 209.612001 
L 144.834561 209.853901 
L 145.518076 210.437764 
L 145.639631 210.438912 
L 145.864993 210.145163 
L 146.196052 210.235174 
L 146.958465 208.05506 
L 147.43143 206.893407 
L 147.898623 205.878207 
L 148.579194 205.880053 
L 148.706031 205.784662 
L 149.222996 205.891962 
L 149.606992 205.349898 
L 149.888227 204.190466 
L 150.323829 204.070122 
L 150.814278 203.584081 
L 159.150711 190.44674 
L 159.573839 189.997935 
L 159.996967 189.855993 
L 160.843223 189.966072 
L 161.266351 189.435689 
L 162.535735 185.076197 
L 162.958863 184.548465 
L 163.805118 182.767789 
L 164.228246 182.581067 
L 164.651374 183.412832 
L 165.074502 185.1108 
L 165.920758 190.279724 
L 167.190142 199.136767 
L 167.61327 201.118694 
L 168.036398 201.725137 
L 168.459526 201.196162 
L 169.72891 197.30442 
L 170.152038 196.69233 
L 170.575166 196.795341 
L 170.998294 197.420323 
L 171.84455 199.065403 
L 172.267678 199.425725 
L 173.113934 199.682555 
L 173.96019 200.446813 
L 174.806445 201.771262 
L 175.229573 202.785022 
L 175.652701 204.919753 
L 178.191469 222.595238 
L 178.614597 224.365059 
L 179.037725 224.765606 
L 179.460853 224.224094 
L 179.883981 223.941245 
L 180.307109 225.031781 
L 181.153365 228.45769 
L 181.576493 229.517277 
L 181.999621 229.963151 
L 182.422749 230.225557 
L 182.845877 230.84644 
L 183.269005 231.231006 
L 183.692133 230.739432 
L 184.115261 229.074068 
L 184.961517 223.914446 
L 185.384645 222.29338 
L 185.807773 222.272862 
L 186.2309 223.760342 
L 186.654028 225.677129 
L 187.077156 226.627253 
L 188.769668 224.371587 
L 189.192796 223.874437 
L 189.615924 222.06559 
L 190.46218 217.012106 
L 190.885308 215.561298 
L 191.084372 215.561298 
L 191.25397 216.018852 
L 191.741778 216.449492 
L 192.009151 216.527937 
L 192.14023 216.37297 
L 192.716026 216.94958 
L 193.059805 216.474223 
L 193.438512 215.330126 
L 193.646926 215.396319 
L 193.965485 215.173776 
L 194.441388 213.839912 
L 195.679433 212.052567 
L 196.022746 212.361511 
L 196.380367 212.306649 
L 196.512724 212.524028 
L 196.8185 212.811071 
L 196.983759 213.263073 
L 197.611503 214.425982 
L 197.916182 215.54517 
L 198.227123 215.825075 
L 198.548485 215.757467 
L 198.838159 215.5539 
L 199.394057 215.586784 
L 200.089852 214.370847 
L 200.280278 213.743816 
L 200.592329 213.576985 
L 200.982555 212.506606 
L 201.236189 212.190124 
L 202.503585 209.669273 
L 202.986925 209.403384 
L 203.367131 209.722746 
L 203.82901 209.053872 
L 204.141256 207.927997 
L 204.437373 207.281653 
L 204.62284 207.230483 
L 204.985433 206.855238 
L 205.371217 206.686992 
L 205.538683 206.476015 
L 205.923434 206.253205 
L 206.227428 205.801945 
L 206.490967 205.940378 
L 206.868344 205.683383 
L 207.176161 204.442087 
L 207.592161 204.083484 
L 208.42531 204.432278 
L 208.656011 204.286784 
L 209.050589 203.550499 
L 209.555429 204.332604 
L 217.119242 249.251281 
L 217.54237 249.599505 
L 217.965498 248.9449 
L 218.811754 246.974361 
L 219.234882 246.41268 
L 220.081137 246.255372 
L 220.504265 245.912294 
L 221.350521 244.790161 
L 221.773649 245.24894 
L 222.619905 247.247814 
L 223.043033 247.371553 
L 223.466161 247.316234 
L 223.889289 247.409633 
L 224.312417 247.943741 
L 225.158673 249.755379 
L 225.581801 250.371123 
L 226.428057 251.215019 
L 226.851185 252.502555 
L 227.697441 255.909071 
L 228.120569 256.65251 
L 228.543697 255.871613 
L 228.966825 254.701296 
L 229.389953 254.433113 
L 229.813081 255.58713 
L 230.659336 259.608318 
L 231.082464 260.378591 
L 231.505592 259.838139 
L 232.351848 257.728434 
L 232.774976 257.996164 
L 233.198104 259.640707 
L 234.04436 263.810994 
L 234.467488 264.188009 
L 234.890616 263.156091 
L 235.313744 261.491483 
L 235.736872 260.297663 
L 236.583128 260.116648 
L 237.006256 259.573721 
L 237.429384 258.037724 
L 237.852512 255.240458 
L 239.121896 242.720602 
L 240.814408 227.18778 
L 242.506919 214.366063 
L 243.353175 210.310992 
L 244.199431 206.627372 
L 245.045687 203.208854 
L 245.468815 202.647224 
L 245.891943 203.126254 
L 246.738199 204.585348 
L 247.161327 204.502462 
L 247.584455 203.605081 
L 248.430711 201.27125 
L 249.276967 200.568922 
L 249.700095 199.728845 
L 250.969479 196.047287 
L 251.815735 194.325704 
L 252.238863 193.080055 
L 252.661991 192.433045 
L 253.085118 192.613891 
L 253.508246 193.599132 
L 255.200758 199.557236 
L 255.623886 201.902862 
L 257.316398 215.082204 
L 259.00891 227.780543 
L 260.278294 236.67158 
L 260.701422 237.013351 
L 261.12455 236.26649 
L 261.547678 235.850112 
L 261.970806 237.058392 
L 262.817062 241.765124 
L 263.24019 241.742239 
L 264.086445 239.726355 
L 264.509573 238.587486 
L 264.932701 237.105094 
L 266.625213 224.1981 
L 267.048341 223.235497 
L 267.471469 223.287231 
L 267.894597 224.224012 
L 268.317725 226.310727 
L 269.163981 231.735065 
L 269.587109 233.417109 
L 270.433365 235.65015 
L 272.125877 244.091614 
L 273.395261 252.263217 
L 273.818389 253.733357 
L 274.241517 254.099244 
L 275.5109 256.848485 
L 275.934028 256.098566 
L 276.780284 252.653683 
L 277.203412 252.363855 
L 278.049668 254.00726 
L 278.472796 254.26291 
L 278.895924 253.363892 
L 279.74218 250.099238 
L 280.165308 249.356817 
L 280.588436 248.987834 
L 281.434692 247.598753 
L 281.85782 247.632087 
L 282.280948 247.803461 
L 282.704076 247.674444 
L 283.127204 246.94201 
L 284.396588 243.590847 
L 284.819716 241.681172 
L 286.0891 234.078026 
L 286.512227 234.158044 
L 287.358483 238.59312 
L 287.781611 239.013126 
L 288.204739 236.927997 
L 289.050995 230.097244 
L 289.474123 227.704579 
L 290.320379 225.116869 
L 290.743507 223.689352 
L 292.012891 218.197418 
L 292.436019 217.260117 
L 292.859147 217.48686 
L 294.551659 222.639624 
L 294.974787 224.173325 
L 297.513555 237.07117 
L 297.936682 238.01394 
L 298.35981 238.332598 
L 298.782938 239.673124 
L 300.052322 250.631728 
L 300.47545 251.386894 
L 301.321706 249.889548 
L 301.744834 250.350408 
L 302.167962 251.215222 
L 302.59109 250.780661 
L 303.014218 247.768465 
L 303.860474 237.492547 
L 304.283602 235.17919 
L 304.70673 237.041648 
L 305.976114 251.551867 
L 306.399242 253.495358 
L 306.82237 254.221479 
L 307.245498 254.4735 
L 307.668626 254.004925 
L 308.938009 248.609588 
L 309.361137 248.417016 
L 310.207393 249.196438 
L 311.476777 249.31953 
L 311.899905 249.16653 
L 312.323033 249.659658 
L 312.746161 250.462822 
L 313.169289 250.802861 
L 313.592417 250.998503 
L 314.015545 251.852588 
L 314.861801 254.127985 
L 315.284929 254.613909 
L 315.708057 254.604744 
L 316.131185 254.452318 
L 316.554313 254.568802 
L 316.977441 254.867811 
L 317.400569 254.655266 
L 318.246825 252.864216 
L 319.939336 250.551563 
L 320.362464 250.701131 
L 320.785592 251.49906 
L 321.20872 251.691537 
L 322.054976 251.430259 
L 322.478104 249.907802 
L 323.32436 244.595718 
L 323.747488 243.099845 
L 324.170616 242.407179 
L 324.593744 242.204526 
L 325.016872 242.146549 
L 325.44 242.301033 
L 325.863128 242.870677 
L 327.55564 247.435265 
L 328.401896 248.98838 
L 328.825024 248.579902 
L 330.517536 236.144128 
L 330.940664 234.152379 
L 331.363791 230.850304 
L 331.786919 228.545081 
L 332.210047 229.101179 
L 333.056303 233.881705 
L 333.902559 235.959157 
L 335.171943 243.089896 
L 335.595071 242.997734 
L 336.018199 242.609635 
L 336.441327 243.665403 
L 337.287583 247.801799 
L 337.710711 249.021239 
L 338.133839 249.179574 
L 338.556967 248.573436 
L 338.980095 247.204531 
L 339.403223 245.051071 
L 339.826351 241.922413 
L 341.941991 222.453264 
L 343.211374 213.178671 
L 343.634502 211.885164 
L 344.05763 211.07723 
L 344.480758 210.634237 
L 346.17327 210.31136 
L 346.596398 210.588239 
L 347.442654 212.492001 
L 347.865782 213.004264 
L 348.28891 214.37532 
L 349.981422 221.969374 
L 350.40455 224.082337 
L 350.827678 225.511554 
L 351.250806 226.07545 
L 351.673934 226.421605 
L 352.097062 227.556864 
L 353.366445 235.338794 
L 354.212701 237.230292 
L 354.635829 238.911758 
L 355.058957 239.917486 
L 355.482085 239.864433 
L 355.905213 239.683237 
L 356.328341 240.021538 
L 357.174597 241.878743 
L 357.597725 243.21361 
L 358.443981 249.246409 
L 358.867109 250.452366 
L 359.713365 249.155903 
L 360.136493 250.947441 
L 361.405877 264.203468 
L 361.829005 264.273573 
L 363.098389 260.065942 
L 363.944645 258.98715 
L 364.367773 258.01593 
L 365.637156 250.297272 
L 366.060284 250.161618 
L 366.483412 251.215875 
L 366.90654 251.865924 
L 367.329668 251.969938 
L 367.752796 252.453213 
L 368.599052 255.384062 
L 369.02218 255.88415 
L 369.868436 256.086194 
L 370.291564 255.45409 
L 370.714692 253.807843 
L 371.560948 249.383401 
L 371.984076 247.846852 
L 372.407204 245.672474 
L 373.25346 237.46142 
L 374.099716 229.18463 
L 374.945972 219.991076 
L 375.3691 218.809609 
L 375.792227 220.633499 
L 376.638483 226.326798 
L 377.484739 233.168273 
L 377.907867 233.39397 
L 378.330995 230.774429 
L 379.177251 223.547125 
L 379.600379 221.210604 
L 380.023507 219.980017 
L 380.446635 219.981882 
L 380.869763 220.565104 
L 381.292891 221.587524 
L 381.716019 223.459068 
L 382.562275 229.195149 
L 382.985403 230.399038 
L 383.408531 229.281245 
L 384.677915 222.636554 
L 385.101043 220.887936 
L 385.524171 220.023744 
L 385.947299 220.602067 
L 386.370427 222.409144 
L 387.63981 229.526597 
L 388.062938 230.880536 
L 388.486066 231.202956 
L 388.909194 231.172743 
L 389.332322 230.587929 
L 389.75545 228.81328 
L 391.024834 216.084316 
L 391.447962 215.602024 
L 392.717346 219.064992 
L 393.140474 219.024761 
L 393.563602 218.626992 
L 393.98673 217.714029 
L 394.409858 215.526676 
L 395.256114 209.479195 
L 395.679242 208.382556 
L 396.525498 207.862241 
L 396.948626 207.969351 
L 397.794882 208.539547 
L 398.641137 208.4677 
L 399.064265 208.851784 
L 401.179905 220.818558 
L 401.603033 222.822596 
L 402.449289 224.830632 
L 403.295545 229.847057 
L 403.718673 231.845791 
L 404.564929 237.905346 
L 404.988057 240.140226 
L 405.834313 242.298324 
L 406.257441 242.992938 
L 406.680569 243.059429 
L 407.103697 241.880069 
L 407.949953 237.275326 
L 408.373081 236.89609 
L 408.796209 238.260643 
L 409.219336 238.95461 
L 410.065592 237.196501 
L 410.48872 237.885722 
L 410.911848 239.502194 
L 411.334976 240.335069 
L 411.758104 239.404671 
L 412.181232 235.694904 
L 413.027488 224.966965 
L 413.873744 218.46983 
L 414.72 213.647892 
L 415.143128 212.547192 
L 415.566256 212.801636 
L 415.989384 214.884684 
L 416.412512 217.824266 
L 416.83564 219.306309 
L 417.258768 219.069763 
L 417.681896 218.384818 
L 418.105024 218.444382 
L 418.528152 219.871746 
L 418.528152 219.871746 
" clip-path="url(#pe75504856e)" style="fill: none; stroke: #ff0000; stroke-opacity: 0.5; stroke-width: 5; stroke-linecap: square"/>
   </g>
   <g id="line2d_2">
    <path d="M 57.6 181.541938 
L 72.409479 198.953963 
L 73.255735 199.433044 
L 73.678863 200.023554 
L 74.101991 201.187047 
L 74.525118 203.111489 
L 76.21763 213.811554 
L 76.640758 215.216106 
L 77.063886 215.786976 
L 77.487014 215.859631 
L 77.910142 215.809504 
L 78.33327 215.949829 
L 78.756398 216.549654 
L 79.602654 217.991737 
L 80.025782 218.147377 
L 80.44891 217.67245 
L 81.295166 215.891918 
L 81.718294 215.739607 
L 82.141422 216.661894 
L 83.833934 222.338962 
L 84.68019 223.608695 
L 85.949573 225.928585 
L 86.372701 226.32674 
L 87.218957 226.505469 
L 87.642085 226.606965 
L 88.065213 226.925333 
L 88.488341 227.798286 
L 89.334597 230.001111 
L 89.757725 230.333018 
L 90.180853 229.908106 
L 91.027109 228.631102 
L 91.450237 228.820337 
L 92.719621 232.348268 
L 93.142749 232.833431 
L 93.565877 233.041139 
L 94.412133 233.136954 
L 94.835261 232.971553 
L 95.258389 232.326852 
L 97.374028 225.487925 
L 97.797156 223.763857 
L 98.220284 220.802023 
L 99.489668 209.20448 
L 99.912796 206.556067 
L 100.759052 203.216679 
L 102.028436 198.552913 
L 102.451564 198.052752 
L 102.874692 198.047021 
L 103.29782 198.208522 
L 103.720948 198.102841 
L 104.144076 197.301862 
L 104.990332 194.829105 
L 105.41346 193.942817 
L 106.259716 192.98402 
L 106.682844 192.599214 
L 107.105972 192.064138 
L 107.952227 190.408947 
L 108.375355 189.546606 
L 108.798483 188.960407 
L 109.644739 188.553769 
L 111.337251 186.225794 
L 112.183507 184.873368 
L 113.029763 182.961646 
L 113.876019 180.799717 
L 114.722275 177.748599 
L 115.145403 176.18147 
L 115.568531 175.941398 
L 115.991659 176.699129 
L 116.837915 178.858103 
L 117.261043 179.592704 
L 118.107299 180.458509 
L 118.953555 181.305441 
L 119.79981 182.652557 
L 120.646066 184.156285 
L 121.069194 183.578246 
L 121.91545 180.570979 
L 122.338578 180.27257 
L 122.761706 181.136249 
L 123.607962 183.744353 
L 124.03109 184.57043 
L 124.454218 184.759568 
L 124.877346 185.259545 
L 126.569858 188.88184 
L 128.26237 192.862064 
L 128.685498 194.960192 
L 129.531754 201.134732 
L 130.378009 207.287862 
L 131.224265 211.443077 
L 132.493649 215.891002 
L 133.339905 219.172872 
L 133.763033 220.284631 
L 134.186161 220.687771 
L 134.609289 220.86903 
L 135.032417 221.608144 
L 135.455545 223.527079 
L 137.148057 234.967431 
L 137.571185 236.231054 
L 137.994313 236.299928 
L 138.840569 235.147843 
L 139.263697 235.153895 
L 140.109953 236.928578 
L 140.533081 237.163757 
L 140.956209 235.822663 
L 141.379336 232.917654 
L 142.64872 221.420127 
L 143.071848 218.892423 
L 144.341232 213.035613 
L 145.610616 203.427996 
L 147.726256 190.72388 
L 148.149384 189.729152 
L 148.572512 190.408256 
L 149.418768 193.355502 
L 149.841896 194.117541 
L 150.265024 193.703336 
L 150.688152 192.423074 
L 152.380664 185.1225 
L 152.803791 184.66108 
L 153.650047 184.726195 
L 154.073175 184.338257 
L 154.919431 182.681905 
L 155.342559 183.006601 
L 155.765687 184.659659 
L 156.611943 189.55887 
L 157.035071 191.0431 
L 157.881327 191.128143 
L 158.304455 191.166674 
L 158.727583 190.99486 
L 159.573839 189.997934 
L 159.996967 189.855998 
L 160.843223 189.966077 
L 161.266351 189.435691 
L 162.535735 185.076191 
L 162.958863 184.548464 
L 163.805118 182.767792 
L 164.228246 182.581072 
L 164.651374 183.412836 
L 165.074502 185.110804 
L 165.920758 190.27972 
L 167.190142 199.136773 
L 167.61327 201.1187 
L 168.036398 201.725135 
L 168.459526 201.196161 
L 169.72891 197.304425 
L 170.152038 196.692328 
L 170.575166 196.795339 
L 170.998294 197.420327 
L 171.84455 199.065399 
L 172.267678 199.425721 
L 173.113934 199.682555 
L 173.96019 200.446808 
L 174.806445 201.771263 
L 175.229573 202.785025 
L 175.652701 204.919754 
L 178.191469 222.595237 
L 178.614597 224.365056 
L 179.037725 224.765604 
L 179.460853 224.224094 
L 179.883981 223.941247 
L 180.307109 225.031782 
L 181.153365 228.45769 
L 181.576493 229.517277 
L 181.999621 229.963152 
L 182.422749 230.225558 
L 182.845877 230.846437 
L 183.269005 231.231005 
L 183.692133 230.739433 
L 184.115261 229.07407 
L 184.961517 223.914448 
L 185.384645 222.293382 
L 185.807773 222.272859 
L 186.2309 223.76034 
L 186.654028 225.677131 
L 187.077156 226.627251 
L 188.769668 224.371589 
L 189.192796 223.874434 
L 189.615924 222.065589 
L 190.46218 217.012109 
L 191.308436 213.95111 
L 192.154692 210.630569 
L 192.57782 209.756891 
L 193.000948 209.811263 
L 193.847204 211.024825 
L 194.69346 210.851976 
L 195.962844 211.119191 
L 196.385972 210.396673 
L 196.8091 209.132125 
L 197.232227 208.307214 
L 197.655355 208.77125 
L 198.078483 210.355261 
L 198.924739 214.586029 
L 199.347867 216.087391 
L 199.770995 218.05378 
L 200.617251 224.564767 
L 201.463507 231.968861 
L 202.309763 239.531338 
L 202.732891 241.407862 
L 203.156019 240.804281 
L 204.425403 232.130498 
L 204.848531 230.643273 
L 205.271659 229.612025 
L 205.694787 229.103255 
L 206.117915 229.10321 
L 206.541043 230.46314 
L 207.387299 236.113214 
L 207.810427 237.770044 
L 208.233555 238.084834 
L 208.656682 237.592278 
L 209.07981 236.918057 
L 209.502938 236.681776 
L 210.772322 237.161051 
L 212.041706 236.429463 
L 212.464834 236.632754 
L 213.31109 237.811635 
L 213.734218 238.327562 
L 214.157346 239.512714 
L 215.42673 245.99885 
L 215.849858 247.095467 
L 216.272986 247.617742 
L 217.119242 249.251281 
L 217.54237 249.599502 
L 217.965498 248.944903 
L 218.811754 246.974362 
L 219.234882 246.412679 
L 220.081137 246.255375 
L 220.504265 245.912294 
L 221.350521 244.79016 
L 221.773649 245.248942 
L 222.619905 247.247812 
L 223.043033 247.371551 
L 223.466161 247.316231 
L 223.889289 247.409632 
L 224.312417 247.943739 
L 225.158673 249.75538 
L 225.581801 250.371126 
L 226.428057 251.215016 
L 226.851185 252.502554 
L 227.697441 255.90907 
L 228.120569 256.65251 
L 228.543697 255.871611 
L 228.966825 254.701295 
L 229.389953 254.433112 
L 229.813081 255.587131 
L 230.659336 259.608319 
L 231.082464 260.378592 
L 231.505592 259.838138 
L 232.351848 257.728435 
L 232.774976 257.996165 
L 233.198104 259.640706 
L 234.04436 263.810995 
L 234.467488 264.18801 
L 234.890616 263.156092 
L 235.313744 261.491484 
L 235.736872 260.297662 
L 236.583128 260.116648 
L 237.006256 259.57372 
L 237.429384 258.037726 
L 237.852512 255.240459 
L 239.121896 242.720604 
L 240.814408 227.187781 
L 242.506919 214.366064 
L 243.353175 210.310992 
L 244.199431 206.62737 
L 245.045687 203.208852 
L 245.468815 202.647227 
L 245.891943 203.126251 
L 246.738199 204.585347 
L 247.161327 204.502463 
L 247.584455 203.605084 
L 248.430711 201.271252 
L 249.276967 200.568915 
L 249.700095 199.728851 
L 250.969479 196.047284 
L 251.815735 194.325699 
L 252.238863 193.080058 
L 252.661991 192.433041 
L 253.085118 192.613895 
L 253.508246 193.599133 
L 255.200758 199.557243 
L 255.623886 201.902862 
L 257.316398 215.082207 
L 259.00891 227.780545 
L 260.278294 236.671581 
L 260.701422 237.013353 
L 261.12455 236.266488 
L 261.547678 235.850109 
L 261.970806 237.05839 
L 262.817062 241.765125 
L 263.24019 241.742239 
L 264.086445 239.726355 
L 264.509573 238.587486 
L 264.932701 237.105095 
L 266.625213 224.198098 
L 267.048341 223.235499 
L 267.471469 223.287231 
L 267.894597 224.224015 
L 268.317725 226.310726 
L 269.163981 231.735067 
L 269.587109 233.417107 
L 270.433365 235.650152 
L 272.125877 244.091614 
L 273.395261 252.263216 
L 273.818389 253.733359 
L 274.241517 254.099243 
L 275.5109 256.848486 
L 275.934028 256.098565 
L 276.780284 252.653681 
L 277.203412 252.363856 
L 278.049668 254.007261 
L 278.472796 254.262913 
L 278.895924 253.363891 
L 279.74218 250.099237 
L 280.165308 249.356815 
L 280.588436 248.987835 
L 281.434692 247.59875 
L 281.85782 247.632088 
L 282.280948 247.803461 
L 282.704076 247.674444 
L 283.127204 246.94201 
L 284.396588 243.590845 
L 284.819716 241.681171 
L 286.0891 234.078029 
L 286.512227 234.158042 
L 287.358483 238.593122 
L 287.781611 239.013126 
L 288.204739 236.927999 
L 289.050995 230.097242 
L 289.474123 227.704578 
L 290.320379 225.116872 
L 290.743507 223.689355 
L 292.012891 218.19742 
L 292.436019 217.260115 
L 292.859147 217.486859 
L 294.551659 222.639625 
L 294.974787 224.173326 
L 297.513555 237.071168 
L 297.936682 238.013942 
L 298.35981 238.3326 
L 298.782938 239.673126 
L 300.052322 250.631726 
L 300.47545 251.386894 
L 301.321706 249.889548 
L 301.744834 250.350406 
L 302.167962 251.215221 
L 302.59109 250.780661 
L 303.014218 247.768463 
L 303.860474 237.492546 
L 304.283602 235.179189 
L 304.70673 237.041646 
L 305.976114 251.551864 
L 306.399242 253.495356 
L 306.82237 254.22148 
L 307.245498 254.473499 
L 307.668626 254.004927 
L 308.938009 248.609591 
L 309.361137 248.417015 
L 310.207393 249.196437 
L 311.476777 249.319529 
L 311.899905 249.166527 
L 312.323033 249.65966 
L 312.746161 250.462824 
L 313.169289 250.80286 
L 313.592417 250.998506 
L 314.015545 251.85259 
L 314.861801 254.127988 
L 315.284929 254.613908 
L 315.708057 254.604745 
L 316.131185 254.452319 
L 316.554313 254.568801 
L 316.977441 254.867809 
L 317.400569 254.655268 
L 318.246825 252.864216 
L 319.939336 250.551565 
L 320.362464 250.701133 
L 320.785592 251.499063 
L 321.20872 251.691539 
L 322.054976 251.430261 
L 322.478104 249.907802 
L 323.32436 244.595718 
L 323.747488 243.099848 
L 324.170616 242.407178 
L 324.593744 242.204523 
L 325.016872 242.146548 
L 325.44 242.301035 
L 325.863128 242.870675 
L 327.55564 247.435263 
L 328.401896 248.988381 
L 328.825024 248.579902 
L 330.517536 236.144126 
L 330.940664 234.152377 
L 331.363791 230.850305 
L 331.786919 228.545083 
L 332.210047 229.101176 
L 333.056303 233.881707 
L 333.902559 235.959156 
L 335.171943 243.089894 
L 335.595071 242.997735 
L 336.018199 242.609633 
L 336.441327 243.6654 
L 337.287583 247.801799 
L 337.710711 249.021237 
L 338.133839 249.179575 
L 338.556967 248.573434 
L 338.980095 247.204533 
L 339.403223 245.051067 
L 339.826351 241.922416 
L 341.941991 222.453265 
L 343.211374 213.178672 
L 343.634502 211.885163 
L 344.05763 211.077231 
L 344.480758 210.634239 
L 346.17327 210.311357 
L 346.596398 210.58824 
L 347.442654 212.492 
L 347.865782 213.004264 
L 348.28891 214.375321 
L 349.981422 221.969372 
L 350.40455 224.082335 
L 350.827678 225.511556 
L 351.250806 226.075449 
L 351.673934 226.421605 
L 352.097062 227.556863 
L 353.366445 235.338792 
L 354.212701 237.230292 
L 354.635829 238.911759 
L 355.058957 239.917489 
L 355.482085 239.86443 
L 355.905213 239.683237 
L 356.328341 240.021538 
L 357.174597 241.878745 
L 357.597725 243.213611 
L 358.443981 249.246408 
L 358.867109 250.452365 
L 359.713365 249.155903 
L 360.136493 250.94744 
L 361.405877 264.203468 
L 361.829005 264.273573 
L 363.098389 260.065941 
L 363.944645 258.987148 
L 364.367773 258.01593 
L 365.637156 250.297275 
L 366.060284 250.161619 
L 366.483412 251.215876 
L 366.90654 251.865922 
L 367.329668 251.969938 
L 367.752796 252.453213 
L 368.599052 255.384061 
L 369.02218 255.884149 
L 369.868436 256.086193 
L 370.291564 255.454089 
L 370.714692 253.807841 
L 371.560948 249.383404 
L 371.984076 247.84685 
L 372.407204 245.672472 
L 373.25346 237.461421 
L 374.099716 229.184631 
L 374.945972 219.991076 
L 375.3691 218.809607 
L 375.792227 220.633501 
L 376.638483 226.326796 
L 377.484739 233.168276 
L 377.907867 233.393972 
L 378.330995 230.774426 
L 379.177251 223.547126 
L 379.600379 221.210607 
L 380.023507 219.980018 
L 380.446635 219.981881 
L 380.869763 220.565104 
L 381.292891 221.587523 
L 381.716019 223.459071 
L 382.562275 229.195146 
L 382.985403 230.399034 
L 383.408531 229.281245 
L 384.677915 222.636551 
L 385.101043 220.887937 
L 385.524171 220.023742 
L 385.947299 220.602064 
L 386.370427 222.409146 
L 387.63981 229.526596 
L 388.062938 230.880537 
L 388.486066 231.202957 
L 388.909194 231.172741 
L 389.332322 230.587932 
L 389.75545 228.813283 
L 391.024834 216.084316 
L 391.447962 215.602024 
L 392.717346 219.064992 
L 393.140474 219.024762 
L 393.563602 218.626994 
L 393.98673 217.714026 
L 394.409858 215.526673 
L 395.256114 209.479194 
L 395.679242 208.382554 
L 396.525498 207.862243 
L 396.948626 207.96935 
L 397.794882 208.53955 
L 398.641137 208.467699 
L 399.064265 208.851784 
L 401.179905 220.818561 
L 401.603033 222.822599 
L 402.449289 224.830633 
L 403.295545 229.847057 
L 403.718673 231.845791 
L 404.564929 237.905348 
L 404.988057 240.140228 
L 405.834313 242.298326 
L 406.257441 242.992937 
L 406.680569 243.059427 
L 407.103697 241.880069 
L 407.949953 237.275324 
L 408.373081 236.896092 
L 408.796209 238.260643 
L 409.219336 238.954613 
L 410.065592 237.196499 
L 410.48872 237.88572 
L 410.911848 239.502196 
L 411.334976 240.335072 
L 411.758104 239.404668 
L 412.181232 235.694903 
L 413.027488 224.966965 
L 413.873744 218.469828 
L 414.72 213.64789 
L 415.143128 212.547195 
L 415.566256 212.801636 
L 415.989384 214.884681 
L 416.412512 217.824265 
L 416.83564 219.306307 
L 417.258768 219.069766 
L 417.681896 218.384818 
L 418.105024 218.444383 
L 418.528152 219.871749 
L 418.669194 145.6992 
L 418.669194 145.6992 
" clip-path="url(#pe75504856e)" style="fill: none; stroke: #0000ff; stroke-opacity: 0.5; stroke-width: 5; stroke-linecap: square"/>
   </g>
   <g id="matplotlib.axis_1">
    <g id="xtick_1">
     <g id="line2d_3">
      <defs>
       <path id="m14add1710c" d="M 0 0 
L 0 3.5 
" style="stroke: #000000; stroke-width: 0.8"/>
      </defs>
      <g>
       <use xlink:href="#m14add1710c" x="57.6" y="307.584" style="stroke: #000000; stroke-width: 0.8"/>
      </g>
     </g>
     <g id="text_1">
      <!-- 0 -->
      <g transform="translate(54.41875 322.182437) scale(0.1 -0.1)">
       <defs>
        <path id="DejaVuSans-30" d="M 2034 4250 
Q 1547 4250 1301 3770 
Q 1056 3291 1056 2328 
Q 1056 1369 1301 889 
Q 1547 409 2034 409 
Q 2525 409 2770 889 
Q 3016 1369 3016 2328 
Q 3016 3291 2770 3770 
Q 2525 4250 2034 4250 
z
M 2034 4750 
Q 2819 4750 3233 4129 
Q 3647 3509 3647 2328 
Q 3647 1150 3233 529 
Q 2819 -91 2034 -91 
Q 1250 -91 836 529 
Q 422 1150 422 2328 
Q 422 3509 836 4129 
Q 1250 4750 2034 4750 
z
" transform="scale(0.015625)"/>
       </defs>
       <use xlink:href="#DejaVuSans-30"/>
      </g>
     </g>
    </g>
    <g id="xtick_2">
     <g id="line2d_4">
      <g>
       <use xlink:href="#m14add1710c" x="99.912796" y="307.584" style="stroke: #000000; stroke-width: 0.8"/>
      </g>
     </g>
     <g id="text_2">
      <!-- 50 -->
      <g transform="translate(93.550296 322.182437) scale(0.1 -0.1)">
       <defs>
        <path id="DejaVuSans-35" d="M 691 4666 
L 3169 4666 
L 3169 4134 
L 1269 4134 
L 1269 2991 
Q 1406 3038 1543 3061 
Q 1681 3084 1819 3084 
Q 2600 3084 3056 2656 
Q 3513 2228 3513 1497 
Q 3513 744 3044 326 
Q 2575 -91 1722 -91 
Q 1428 -91 1123 -41 
Q 819 9 494 109 
L 494 744 
Q 775 591 1075 516 
Q 1375 441 1709 441 
Q 2250 441 2565 725 
Q 2881 1009 2881 1497 
Q 2881 1984 2565 2268 
Q 2250 2553 1709 2553 
Q 1456 2553 1204 2497 
Q 953 2441 691 2322 
L 691 4666 
z
" transform="scale(0.015625)"/>
       </defs>
       <use xlink:href="#DejaVuSans-35"/>
       <use xlink:href="#DejaVuSans-30" x="63.623047"/>
      </g>
     </g>
    </g>
    <g id="xtick_3">
     <g id="line2d_5">
      <g>
       <use xlink:href="#m14add1710c" x="142.225592" y="307.584" style="stroke: #000000; stroke-width: 0.8"/>
      </g>
     </g>
     <g id="text_3">
      <!-- 100 -->
      <g transform="translate(132.681842 322.182437) scale(0.1 -0.1)">
       <defs>
        <path id="DejaVuSans-31" d="M 794 531 
L 1825 531 
L 1825 4091 
L 703 3866 
L 703 4441 
L 1819 4666 
L 2450 4666 
L 2450 531 
L 3481 531 
L 3481 0 
L 794 0 
L 794 531 
z
" transform="scale(0.015625)"/>
       </defs>
       <use xlink:href="#DejaVuSans-31"/>
       <use xlink:href="#DejaVuSans-30" x="63.623047"/>
       <use xlink:href="#DejaVuSans-30" x="127.246094"/>
      </g>
     </g>
    </g>
    <g id="xtick_4">
     <g id="line2d_6">
      <g>
       <use xlink:href="#m14add1710c" x="184.538389" y="307.584" style="stroke: #000000; stroke-width: 0.8"/>
      </g>
     </g>
     <g id="text_4">
      <!-- 150 -->
      <g transform="translate(174.994639 322.182437) scale(0.1 -0.1)">
       <use xlink:href="#DejaVuSans-31"/>
       <use xlink:href="#DejaVuSans-35" x="63.623047"/>
       <use xlink:href="#DejaVuSans-30" x="127.246094"/>
      </g>
     </g>
    </g>
    <g id="xtick_5">
     <g id="line2d_7">
      <g>
       <use xlink:href="#m14add1710c" x="226.851185" y="307.584" style="stroke: #000000; stroke-width: 0.8"/>
      </g>
     </g>
     <g id="text_5">
      <!-- 200 -->
      <g transform="translate(217.307435 322.182437) scale(0.1 -0.1)">
       <defs>
        <path id="DejaVuSans-32" d="M 1228 531 
L 3431 531 
L 3431 0 
L 469 0 
L 469 531 
Q 828 903 1448 1529 
Q 2069 2156 2228 2338 
Q 2531 2678 2651 2914 
Q 2772 3150 2772 3378 
Q 2772 3750 2511 3984 
Q 2250 4219 1831 4219 
Q 1534 4219 1204 4116 
Q 875 4013 500 3803 
L 500 4441 
Q 881 4594 1212 4672 
Q 1544 4750 1819 4750 
Q 2544 4750 2975 4387 
Q 3406 4025 3406 3419 
Q 3406 3131 3298 2873 
Q 3191 2616 2906 2266 
Q 2828 2175 2409 1742 
Q 1991 1309 1228 531 
z
" transform="scale(0.015625)"/>
       </defs>
       <use xlink:href="#DejaVuSans-32"/>
       <use xlink:href="#DejaVuSans-30" x="63.623047"/>
       <use xlink:href="#DejaVuSans-30" x="127.246094"/>
      </g>
     </g>
    </g>
    <g id="xtick_6">
     <g id="line2d_8">
      <g>
       <use xlink:href="#m14add1710c" x="269.163981" y="307.584" style="stroke: #000000; stroke-width: 0.8"/>
      </g>
     </g>
     <g id="text_6">
      <!-- 250 -->
      <g transform="translate(259.620231 322.182437) scale(0.1 -0.1)">
       <use xlink:href="#DejaVuSans-32"/>
       <use xlink:href="#DejaVuSans-35" x="63.623047"/>
       <use xlink:href="#DejaVuSans-30" x="127.246094"/>
      </g>
     </g>
    </g>
    <g id="xtick_7">
     <g id="line2d_9">
      <g>
       <use xlink:href="#m14add1710c" x="311.476777" y="307.584" style="stroke: #000000; stroke-width: 0.8"/>
      </g>
     </g>
     <g id="text_7">
      <!-- 300 -->
      <g transform="translate(301.933027 322.182437) scale(0.1 -0.1)">
       <defs>
        <path id="DejaVuSans-33" d="M 2597 2516 
Q 3050 2419 3304 2112 
Q 3559 1806 3559 1356 
Q 3559 666 3084 287 
Q 2609 -91 1734 -91 
Q 1441 -91 1130 -33 
Q 819 25 488 141 
L 488 750 
Q 750 597 1062 519 
Q 1375 441 1716 441 
Q 2309 441 2620 675 
Q 2931 909 2931 1356 
Q 2931 1769 2642 2001 
Q 2353 2234 1838 2234 
L 1294 2234 
L 1294 2753 
L 1863 2753 
Q 2328 2753 2575 2939 
Q 2822 3125 2822 3475 
Q 2822 3834 2567 4026 
Q 2313 4219 1838 4219 
Q 1578 4219 1281 4162 
Q 984 4106 628 3988 
L 628 4550 
Q 988 4650 1302 4700 
Q 1616 4750 1894 4750 
Q 2613 4750 3031 4423 
Q 3450 4097 3450 3541 
Q 3450 3153 3228 2886 
Q 3006 2619 2597 2516 
z
" transform="scale(0.015625)"/>
       </defs>
       <use xlink:href="#DejaVuSans-33"/>
       <use xlink:href="#DejaVuSans-30" x="63.623047"/>
       <use xlink:href="#DejaVuSans-30" x="127.246094"/>
      </g>
     </g>
    </g>
    <g id="xtick_8">
     <g id="line2d_10">
      <g>
       <use xlink:href="#m14add1710c" x="353.789573" y="307.584" style="stroke: #000000; stroke-width: 0.8"/>
      </g>
     </g>
     <g id="text_8">
      <!-- 350 -->
      <g transform="translate(344.245823 322.182437) scale(0.1 -0.1)">
       <use xlink:href="#DejaVuSans-33"/>
       <use xlink:href="#DejaVuSans-35" x="63.623047"/>
       <use xlink:href="#DejaVuSans-30" x="127.246094"/>
      </g>
     </g>
    </g>
    <g id="xtick_9">
     <g id="line2d_11">
      <g>
       <use xlink:href="#m14add1710c" x="396.10237" y="307.584" style="stroke: #000000; stroke-width: 0.8"/>
      </g>
     </g>
     <g id="text_9">
      <!-- 400 -->
      <g transform="translate(386.55862 322.182437) scale(0.1 -0.1)">
       <defs>
        <path id="DejaVuSans-34" d="M 2419 4116 
L 825 1625 
L 2419 1625 
L 2419 4116 
z
M 2253 4666 
L 3047 4666 
L 3047 1625 
L 3713 1625 
L 3713 1100 
L 3047 1100 
L 3047 0 
L 2419 0 
L 2419 1100 
L 313 1100 
L 313 1709 
L 2253 4666 
z
" transform="scale(0.015625)"/>
       </defs>
       <use xlink:href="#DejaVuSans-34"/>
       <use xlink:href="#DejaVuSans-30" x="63.623047"/>
       <use xlink:href="#DejaVuSans-30" x="127.246094"/>
      </g>
     </g>
    </g>
    <g id="text_10">
     <!-- X -->
     <g transform="translate(232.735 335.860562) scale(0.1 -0.1)">
      <defs>
       <path id="DejaVuSans-58" d="M 403 4666 
L 1081 4666 
L 2241 2931 
L 3406 4666 
L 4084 4666 
L 2584 2425 
L 4184 0 
L 3506 0 
L 2194 1984 
L 872 0 
L 191 0 
L 1856 2491 
L 403 4666 
z
" transform="scale(0.015625)"/>
      </defs>
      <use xlink:href="#DejaVuSans-58"/>
     </g>
    </g>
   </g>
   <g id="matplotlib.axis_2">
    <g id="ytick_1">
     <g id="line2d_12">
      <defs>
       <path id="m91964e8d54" d="M 0 0 
L -3.5 0 
" style="stroke: #000000; stroke-width: 0.8"/>
      </defs>
      <g>
       <use xlink:href="#m91964e8d54" x="57.6" y="307.584" style="stroke: #000000; stroke-width: 0.8"/>
      </g>
     </g>
     <g id="text_11">
      <!-- 0 -->
      <g transform="translate(44.2375 311.383219) scale(0.1 -0.1)">
       <use xlink:href="#DejaVuSans-30"/>
      </g>
     </g>
    </g>
    <g id="ytick_2">
     <g id="line2d_13">
      <g>
       <use xlink:href="#m91964e8d54" x="57.6" y="274.32" style="stroke: #000000; stroke-width: 0.8"/>
      </g>
     </g>
     <g id="text_12">
      <!-- 5 -->
      <g transform="translate(44.2375 278.119219) scale(0.1 -0.1)">
       <use xlink:href="#DejaVuSans-35"/>
      </g>
     </g>
    </g>
    <g id="ytick_3">
     <g id="line2d_14">
      <g>
       <use xlink:href="#m91964e8d54" x="57.6" y="241.056" style="stroke: #000000; stroke-width: 0.8"/>
      </g>
     </g>
     <g id="text_13">
      <!-- 10 -->
      <g transform="translate(37.875 244.855219) scale(0.1 -0.1)">
       <use xlink:href="#DejaVuSans-31"/>
       <use xlink:href="#DejaVuSans-30" x="63.623047"/>
      </g>
     </g>
    </g>
    <g id="ytick_4">
     <g id="line2d_15">
      <g>
       <use xlink:href="#m91964e8d54" x="57.6" y="207.792" style="stroke: #000000; stroke-width: 0.8"/>
      </g>
     </g>
     <g id="text_14">
      <!-- 15 -->
      <g transform="translate(37.875 211.591219) scale(0.1 -0.1)">
       <use xlink:href="#DejaVuSans-31"/>
       <use xlink:href="#DejaVuSans-35" x="63.623047"/>
      </g>
     </g>
    </g>
    <g id="ytick_5">
     <g id="line2d_16">
      <g>
       <use xlink:href="#m91964e8d54" x="57.6" y="174.528" style="stroke: #000000; stroke-width: 0.8"/>
      </g>
     </g>
     <g id="text_15">
      <!-- 20 -->
      <g transform="translate(37.875 178.327219) scale(0.1 -0.1)">
       <use xlink:href="#DejaVuSans-32"/>
       <use xlink:href="#DejaVuSans-30" x="63.623047"/>
      </g>
     </g>
    </g>
    <g id="ytick_6">
     <g id="line2d_17">
      <g>
       <use xlink:href="#m91964e8d54" x="57.6" y="141.264" style="stroke: #000000; stroke-width: 0.8"/>
      </g>
     </g>
     <g id="text_16">
      <!-- 25 -->
      <g transform="translate(37.875 145.063219) scale(0.1 -0.1)">
       <use xlink:href="#DejaVuSans-32"/>
       <use xlink:href="#DejaVuSans-35" x="63.623047"/>
      </g>
     </g>
    </g>
    <g id="ytick_7">
     <g id="line2d_18">
      <g>
       <use xlink:href="#m91964e8d54" x="57.6" y="108" style="stroke: #000000; stroke-width: 0.8"/>
      </g>
     </g>
     <g id="text_17">
      <!-- 30 -->
      <g transform="translate(37.875 111.799219) scale(0.1 -0.1)">
       <use xlink:href="#DejaVuSans-33"/>
       <use xlink:href="#DejaVuSans-30" x="63.623047"/>
      </g>
     </g>
    </g>
    <g id="ytick_8">
     <g id="line2d_19">
      <g>
       <use xlink:href="#m91964e8d54" x="57.6" y="74.736" style="stroke: #000000; stroke-width: 0.8"/>
      </g>
     </g>
     <g id="text_18">
      <!-- 35 -->
      <g transform="translate(37.875 78.535219) scale(0.1 -0.1)">
       <use xlink:href="#DejaVuSans-33"/>
       <use xlink:href="#DejaVuSans-35" x="63.623047"/>
      </g>
     </g>
    </g>
    <g id="ytick_9">
     <g id="line2d_20">
      <g>
       <use xlink:href="#m91964e8d54" x="57.6" y="41.472" style="stroke: #000000; stroke-width: 0.8"/>
      </g>
     </g>
     <g id="text_19">
      <!-- 40 -->
      <g transform="translate(37.875 45.271219) scale(0.1 -0.1)">
       <use xlink:href="#DejaVuSans-34"/>
       <use xlink:href="#DejaVuSans-30" x="63.623047"/>
      </g>
     </g>
    </g>
    <g id="text_20">
     <!-- Y -->
     <g transform="translate(31.795313 177.581906) rotate(-90) scale(0.1 -0.1)">
      <defs>
       <path id="DejaVuSans-59" d="M -13 4666 
L 666 4666 
L 1959 2747 
L 3244 4666 
L 3922 4666 
L 2272 2222 
L 2272 0 
L 1638 0 
L 1638 2222 
L -13 4666 
z
" transform="scale(0.015625)"/>
      </defs>
      <use xlink:href="#DejaVuSans-59"/>
     </g>
    </g>
   </g>
   <g id="patch_3">
    <path d="M 57.6 307.584 
L 57.6 41.472 
" style="fill: none; stroke: #000000; stroke-width: 0.8; stroke-linejoin: miter; stroke-linecap: square"/>
   </g>
   <g id="patch_4">
    <path d="M 414.72 307.584 
L 414.72 41.472 
" style="fill: none; stroke: #000000; stroke-width: 0.8; stroke-linejoin: miter; stroke-linecap: square"/>
   </g>
   <g id="patch_5">
    <path d="M 57.6 307.584 
L 414.72 307.584 
" style="fill: none; stroke: #000000; stroke-width: 0.8; stroke-linejoin: miter; stroke-linecap: square"/>
   </g>
   <g id="patch_6">
    <path d="M 57.6 41.472 
L 414.72 41.472 
" style="fill: none; stroke: #000000; stroke-width: 0.8; stroke-linejoin: miter; stroke-linecap: square"/>
   </g>
   <g id="text_21">
    <!-- Primerjava segmentev nivojev: Navaden nivo 10 (neurejen) vs Navaden nivo 10 (urejen) -->
    <g transform="translate(-29.447812 35.472) scale(0.12 -0.12)">
     <defs>
      <path id="DejaVuSans-50" d="M 1259 4147 
L 1259 2394 
L 2053 2394 
Q 2494 2394 2734 2622 
Q 2975 2850 2975 3272 
Q 2975 3691 2734 3919 
Q 2494 4147 2053 4147 
L 1259 4147 
z
M 628 4666 
L 2053 4666 
Q 2838 4666 3239 4311 
Q 3641 3956 3641 3272 
Q 3641 2581 3239 2228 
Q 2838 1875 2053 1875 
L 1259 1875 
L 1259 0 
L 628 0 
L 628 4666 
z
" transform="scale(0.015625)"/>
      <path id="DejaVuSans-72" d="M 2631 2963 
Q 2534 3019 2420 3045 
Q 2306 3072 2169 3072 
Q 1681 3072 1420 2755 
Q 1159 2438 1159 1844 
L 1159 0 
L 581 0 
L 581 3500 
L 1159 3500 
L 1159 2956 
Q 1341 3275 1631 3429 
Q 1922 3584 2338 3584 
Q 2397 3584 2469 3576 
Q 2541 3569 2628 3553 
L 2631 2963 
z
" transform="scale(0.015625)"/>
      <path id="DejaVuSans-69" d="M 603 3500 
L 1178 3500 
L 1178 0 
L 603 0 
L 603 3500 
z
M 603 4863 
L 1178 4863 
L 1178 4134 
L 603 4134 
L 603 4863 
z
" transform="scale(0.015625)"/>
      <path id="DejaVuSans-6d" d="M 3328 2828 
Q 3544 3216 3844 3400 
Q 4144 3584 4550 3584 
Q 5097 3584 5394 3201 
Q 5691 2819 5691 2113 
L 5691 0 
L 5113 0 
L 5113 2094 
Q 5113 2597 4934 2840 
Q 4756 3084 4391 3084 
Q 3944 3084 3684 2787 
Q 3425 2491 3425 1978 
L 3425 0 
L 2847 0 
L 2847 2094 
Q 2847 2600 2669 2842 
Q 2491 3084 2119 3084 
Q 1678 3084 1418 2786 
Q 1159 2488 1159 1978 
L 1159 0 
L 581 0 
L 581 3500 
L 1159 3500 
L 1159 2956 
Q 1356 3278 1631 3431 
Q 1906 3584 2284 3584 
Q 2666 3584 2933 3390 
Q 3200 3197 3328 2828 
z
" transform="scale(0.015625)"/>
      <path id="DejaVuSans-65" d="M 3597 1894 
L 3597 1613 
L 953 1613 
Q 991 1019 1311 708 
Q 1631 397 2203 397 
Q 2534 397 2845 478 
Q 3156 559 3463 722 
L 3463 178 
Q 3153 47 2828 -22 
Q 2503 -91 2169 -91 
Q 1331 -91 842 396 
Q 353 884 353 1716 
Q 353 2575 817 3079 
Q 1281 3584 2069 3584 
Q 2775 3584 3186 3129 
Q 3597 2675 3597 1894 
z
M 3022 2063 
Q 3016 2534 2758 2815 
Q 2500 3097 2075 3097 
Q 1594 3097 1305 2825 
Q 1016 2553 972 2059 
L 3022 2063 
z
" transform="scale(0.015625)"/>
      <path id="DejaVuSans-6a" d="M 603 3500 
L 1178 3500 
L 1178 -63 
Q 1178 -731 923 -1031 
Q 669 -1331 103 -1331 
L -116 -1331 
L -116 -844 
L 38 -844 
Q 366 -844 484 -692 
Q 603 -541 603 -63 
L 603 3500 
z
M 603 4863 
L 1178 4863 
L 1178 4134 
L 603 4134 
L 603 4863 
z
" transform="scale(0.015625)"/>
      <path id="DejaVuSans-61" d="M 2194 1759 
Q 1497 1759 1228 1600 
Q 959 1441 959 1056 
Q 959 750 1161 570 
Q 1363 391 1709 391 
Q 2188 391 2477 730 
Q 2766 1069 2766 1631 
L 2766 1759 
L 2194 1759 
z
M 3341 1997 
L 3341 0 
L 2766 0 
L 2766 531 
Q 2569 213 2275 61 
Q 1981 -91 1556 -91 
Q 1019 -91 701 211 
Q 384 513 384 1019 
Q 384 1609 779 1909 
Q 1175 2209 1959 2209 
L 2766 2209 
L 2766 2266 
Q 2766 2663 2505 2880 
Q 2244 3097 1772 3097 
Q 1472 3097 1187 3025 
Q 903 2953 641 2809 
L 641 3341 
Q 956 3463 1253 3523 
Q 1550 3584 1831 3584 
Q 2591 3584 2966 3190 
Q 3341 2797 3341 1997 
z
" transform="scale(0.015625)"/>
      <path id="DejaVuSans-76" d="M 191 3500 
L 800 3500 
L 1894 563 
L 2988 3500 
L 3597 3500 
L 2284 0 
L 1503 0 
L 191 3500 
z
" transform="scale(0.015625)"/>
      <path id="DejaVuSans-20" transform="scale(0.015625)"/>
      <path id="DejaVuSans-73" d="M 2834 3397 
L 2834 2853 
Q 2591 2978 2328 3040 
Q 2066 3103 1784 3103 
Q 1356 3103 1142 2972 
Q 928 2841 928 2578 
Q 928 2378 1081 2264 
Q 1234 2150 1697 2047 
L 1894 2003 
Q 2506 1872 2764 1633 
Q 3022 1394 3022 966 
Q 3022 478 2636 193 
Q 2250 -91 1575 -91 
Q 1294 -91 989 -36 
Q 684 19 347 128 
L 347 722 
Q 666 556 975 473 
Q 1284 391 1588 391 
Q 1994 391 2212 530 
Q 2431 669 2431 922 
Q 2431 1156 2273 1281 
Q 2116 1406 1581 1522 
L 1381 1569 
Q 847 1681 609 1914 
Q 372 2147 372 2553 
Q 372 3047 722 3315 
Q 1072 3584 1716 3584 
Q 2034 3584 2315 3537 
Q 2597 3491 2834 3397 
z
" transform="scale(0.015625)"/>
      <path id="DejaVuSans-67" d="M 2906 1791 
Q 2906 2416 2648 2759 
Q 2391 3103 1925 3103 
Q 1463 3103 1205 2759 
Q 947 2416 947 1791 
Q 947 1169 1205 825 
Q 1463 481 1925 481 
Q 2391 481 2648 825 
Q 2906 1169 2906 1791 
z
M 3481 434 
Q 3481 -459 3084 -895 
Q 2688 -1331 1869 -1331 
Q 1566 -1331 1297 -1286 
Q 1028 -1241 775 -1147 
L 775 -588 
Q 1028 -725 1275 -790 
Q 1522 -856 1778 -856 
Q 2344 -856 2625 -561 
Q 2906 -266 2906 331 
L 2906 616 
Q 2728 306 2450 153 
Q 2172 0 1784 0 
Q 1141 0 747 490 
Q 353 981 353 1791 
Q 353 2603 747 3093 
Q 1141 3584 1784 3584 
Q 2172 3584 2450 3431 
Q 2728 3278 2906 2969 
L 2906 3500 
L 3481 3500 
L 3481 434 
z
" transform="scale(0.015625)"/>
      <path id="DejaVuSans-6e" d="M 3513 2113 
L 3513 0 
L 2938 0 
L 2938 2094 
Q 2938 2591 2744 2837 
Q 2550 3084 2163 3084 
Q 1697 3084 1428 2787 
Q 1159 2491 1159 1978 
L 1159 0 
L 581 0 
L 581 3500 
L 1159 3500 
L 1159 2956 
Q 1366 3272 1645 3428 
Q 1925 3584 2291 3584 
Q 2894 3584 3203 3211 
Q 3513 2838 3513 2113 
z
" transform="scale(0.015625)"/>
      <path id="DejaVuSans-74" d="M 1172 4494 
L 1172 3500 
L 2356 3500 
L 2356 3053 
L 1172 3053 
L 1172 1153 
Q 1172 725 1289 603 
Q 1406 481 1766 481 
L 2356 481 
L 2356 0 
L 1766 0 
Q 1100 0 847 248 
Q 594 497 594 1153 
L 594 3053 
L 172 3053 
L 172 3500 
L 594 3500 
L 594 4494 
L 1172 4494 
z
" transform="scale(0.015625)"/>
      <path id="DejaVuSans-6f" d="M 1959 3097 
Q 1497 3097 1228 2736 
Q 959 2375 959 1747 
Q 959 1119 1226 758 
Q 1494 397 1959 397 
Q 2419 397 2687 759 
Q 2956 1122 2956 1747 
Q 2956 2369 2687 2733 
Q 2419 3097 1959 3097 
z
M 1959 3584 
Q 2709 3584 3137 3096 
Q 3566 2609 3566 1747 
Q 3566 888 3137 398 
Q 2709 -91 1959 -91 
Q 1206 -91 779 398 
Q 353 888 353 1747 
Q 353 2609 779 3096 
Q 1206 3584 1959 3584 
z
" transform="scale(0.015625)"/>
      <path id="DejaVuSans-3a" d="M 750 794 
L 1409 794 
L 1409 0 
L 750 0 
L 750 794 
z
M 750 3309 
L 1409 3309 
L 1409 2516 
L 750 2516 
L 750 3309 
z
" transform="scale(0.015625)"/>
      <path id="DejaVuSans-4e" d="M 628 4666 
L 1478 4666 
L 3547 763 
L 3547 4666 
L 4159 4666 
L 4159 0 
L 3309 0 
L 1241 3903 
L 1241 0 
L 628 0 
L 628 4666 
z
" transform="scale(0.015625)"/>
      <path id="DejaVuSans-64" d="M 2906 2969 
L 2906 4863 
L 3481 4863 
L 3481 0 
L 2906 0 
L 2906 525 
Q 2725 213 2448 61 
Q 2172 -91 1784 -91 
Q 1150 -91 751 415 
Q 353 922 353 1747 
Q 353 2572 751 3078 
Q 1150 3584 1784 3584 
Q 2172 3584 2448 3432 
Q 2725 3281 2906 2969 
z
M 947 1747 
Q 947 1113 1208 752 
Q 1469 391 1925 391 
Q 2381 391 2643 752 
Q 2906 1113 2906 1747 
Q 2906 2381 2643 2742 
Q 2381 3103 1925 3103 
Q 1469 3103 1208 2742 
Q 947 2381 947 1747 
z
" transform="scale(0.015625)"/>
      <path id="DejaVuSans-28" d="M 1984 4856 
Q 1566 4138 1362 3434 
Q 1159 2731 1159 2009 
Q 1159 1288 1364 580 
Q 1569 -128 1984 -844 
L 1484 -844 
Q 1016 -109 783 600 
Q 550 1309 550 2009 
Q 550 2706 781 3412 
Q 1013 4119 1484 4856 
L 1984 4856 
z
" transform="scale(0.015625)"/>
      <path id="DejaVuSans-75" d="M 544 1381 
L 544 3500 
L 1119 3500 
L 1119 1403 
Q 1119 906 1312 657 
Q 1506 409 1894 409 
Q 2359 409 2629 706 
Q 2900 1003 2900 1516 
L 2900 3500 
L 3475 3500 
L 3475 0 
L 2900 0 
L 2900 538 
Q 2691 219 2414 64 
Q 2138 -91 1772 -91 
Q 1169 -91 856 284 
Q 544 659 544 1381 
z
M 1991 3584 
L 1991 3584 
z
" transform="scale(0.015625)"/>
      <path id="DejaVuSans-29" d="M 513 4856 
L 1013 4856 
Q 1481 4119 1714 3412 
Q 1947 2706 1947 2009 
Q 1947 1309 1714 600 
Q 1481 -109 1013 -844 
L 513 -844 
Q 928 -128 1133 580 
Q 1338 1288 1338 2009 
Q 1338 2731 1133 3434 
Q 928 4138 513 4856 
z
" transform="scale(0.015625)"/>
     </defs>
     <use xlink:href="#DejaVuSans-50"/>
     <use xlink:href="#DejaVuSans-72" x="58.552734"/>
     <use xlink:href="#DejaVuSans-69" x="99.666016"/>
     <use xlink:href="#DejaVuSans-6d" x="127.449219"/>
     <use xlink:href="#DejaVuSans-65" x="224.861328"/>
     <use xlink:href="#DejaVuSans-72" x="286.384766"/>
     <use xlink:href="#DejaVuSans-6a" x="327.498047"/>
     <use xlink:href="#DejaVuSans-61" x="355.28125"/>
     <use xlink:href="#DejaVuSans-76" x="416.560547"/>
     <use xlink:href="#DejaVuSans-61" x="475.740234"/>
     <use xlink:href="#DejaVuSans-20" x="537.019531"/>
     <use xlink:href="#DejaVuSans-73" x="568.806641"/>
     <use xlink:href="#DejaVuSans-65" x="620.90625"/>
     <use xlink:href="#DejaVuSans-67" x="682.429688"/>
     <use xlink:href="#DejaVuSans-6d" x="745.90625"/>
     <use xlink:href="#DejaVuSans-65" x="843.318359"/>
     <use xlink:href="#DejaVuSans-6e" x="904.841797"/>
     <use xlink:href="#DejaVuSans-74" x="968.220703"/>
     <use xlink:href="#DejaVuSans-65" x="1007.429688"/>
     <use xlink:href="#DejaVuSans-76" x="1068.953125"/>
     <use xlink:href="#DejaVuSans-20" x="1128.132812"/>
     <use xlink:href="#DejaVuSans-6e" x="1159.919922"/>
     <use xlink:href="#DejaVuSans-69" x="1223.298828"/>
     <use xlink:href="#DejaVuSans-76" x="1251.082031"/>
     <use xlink:href="#DejaVuSans-6f" x="1310.261719"/>
     <use xlink:href="#DejaVuSans-6a" x="1371.443359"/>
     <use xlink:href="#DejaVuSans-65" x="1399.226562"/>
     <use xlink:href="#DejaVuSans-76" x="1460.75"/>
     <use xlink:href="#DejaVuSans-3a" x="1514.429688"/>
     <use xlink:href="#DejaVuSans-20" x="1548.121094"/>
     <use xlink:href="#DejaVuSans-4e" x="1579.908203"/>
     <use xlink:href="#DejaVuSans-61" x="1654.712891"/>
     <use xlink:href="#DejaVuSans-76" x="1715.992188"/>
     <use xlink:href="#DejaVuSans-61" x="1775.171875"/>
     <use xlink:href="#DejaVuSans-64" x="1836.451172"/>
     <use xlink:href="#DejaVuSans-65" x="1899.927734"/>
     <use xlink:href="#DejaVuSans-6e" x="1961.451172"/>
     <use xlink:href="#DejaVuSans-20" x="2024.830078"/>
     <use xlink:href="#DejaVuSans-6e" x="2056.617188"/>
     <use xlink:href="#DejaVuSans-69" x="2119.996094"/>
     <use xlink:href="#DejaVuSans-76" x="2147.779297"/>
     <use xlink:href="#DejaVuSans-6f" x="2206.958984"/>
     <use xlink:href="#DejaVuSans-20" x="2268.140625"/>
     <use xlink:href="#DejaVuSans-31" x="2299.927734"/>
     <use xlink:href="#DejaVuSans-30" x="2363.550781"/>
     <use xlink:href="#DejaVuSans-20" x="2427.173828"/>
     <use xlink:href="#DejaVuSans-28" x="2458.960938"/>
     <use xlink:href="#DejaVuSans-6e" x="2497.974609"/>
     <use xlink:href="#DejaVuSans-65" x="2561.353516"/>
     <use xlink:href="#DejaVuSans-75" x="2622.876953"/>
     <use xlink:href="#DejaVuSans-72" x="2686.255859"/>
     <use xlink:href="#DejaVuSans-65" x="2725.119141"/>
     <use xlink:href="#DejaVuSans-6a" x="2786.642578"/>
     <use xlink:href="#DejaVuSans-65" x="2814.425781"/>
     <use xlink:href="#DejaVuSans-6e" x="2875.949219"/>
     <use xlink:href="#DejaVuSans-29" x="2939.328125"/>
     <use xlink:href="#DejaVuSans-20" x="2978.341797"/>
     <use xlink:href="#DejaVuSans-76" x="3010.128906"/>
     <use xlink:href="#DejaVuSans-73" x="3069.308594"/>
     <use xlink:href="#DejaVuSans-20" x="3121.408203"/>
     <use xlink:href="#DejaVuSans-4e" x="3153.195312"/>
     <use xlink:href="#DejaVuSans-61" x="3228"/>
     <use xlink:href="#DejaVuSans-76" x="3289.279297"/>
     <use xlink:href="#DejaVuSans-61" x="3348.458984"/>
     <use xlink:href="#DejaVuSans-64" x="3409.738281"/>
     <use xlink:href="#DejaVuSans-65" x="3473.214844"/>
     <use xlink:href="#DejaVuSans-6e" x="3534.738281"/>
     <use xlink:href="#DejaVuSans-20" x="3598.117188"/>
     <use xlink:href="#DejaVuSans-6e" x="3629.904297"/>
     <use xlink:href="#DejaVuSans-69" x="3693.283203"/>
     <use xlink:href="#DejaVuSans-76" x="3721.066406"/>
     <use xlink:href="#DejaVuSans-6f" x="3780.246094"/>
     <use xlink:href="#DejaVuSans-20" x="3841.427734"/>
     <use xlink:href="#DejaVuSans-31" x="3873.214844"/>
     <use xlink:href="#DejaVuSans-30" x="3936.837891"/>
     <use xlink:href="#DejaVuSans-20" x="4000.460938"/>
     <use xlink:href="#DejaVuSans-28" x="4032.248047"/>
     <use xlink:href="#DejaVuSans-75" x="4071.261719"/>
     <use xlink:href="#DejaVuSans-72" x="4134.640625"/>
     <use xlink:href="#DejaVuSans-65" x="4173.503906"/>
     <use xlink:href="#DejaVuSans-6a" x="4235.027344"/>
     <use xlink:href="#DejaVuSans-65" x="4262.810547"/>
     <use xlink:href="#DejaVuSans-6e" x="4324.333984"/>
     <use xlink:href="#DejaVuSans-29" x="4387.712891"/>
    </g>
   </g>
   <g id="legend_1">
    <g id="patch_7">
     <path d="M 306.109062 78.82825 
L 407.72 78.82825 
Q 409.72 78.82825 409.72 76.82825 
L 409.72 48.472 
Q 409.72 46.472 407.72 46.472 
L 306.109062 46.472 
Q 304.109062 46.472 304.109062 48.472 
L 304.109062 76.82825 
Q 304.109062 78.82825 306.109062 78.82825 
z
" style="fill: #ffffff; opacity: 0.8; stroke: #cccccc; stroke-linejoin: miter"/>
    </g>
    <g id="line2d_21">
     <path d="M 308.109062 54.570437 
L 318.109062 54.570437 
L 328.109062 54.570437 
" style="fill: none; stroke: #ff0000; stroke-opacity: 0.5; stroke-width: 5; stroke-linecap: square"/>
    </g>
    <g id="text_22">
     <!-- Urejen nivo -->
     <g transform="translate(336.109062 58.070437) scale(0.1 -0.1)">
      <defs>
       <path id="DejaVuSans-55" d="M 556 4666 
L 1191 4666 
L 1191 1831 
Q 1191 1081 1462 751 
Q 1734 422 2344 422 
Q 2950 422 3222 751 
Q 3494 1081 3494 1831 
L 3494 4666 
L 4128 4666 
L 4128 1753 
Q 4128 841 3676 375 
Q 3225 -91 2344 -91 
Q 1459 -91 1007 375 
Q 556 841 556 1753 
L 556 4666 
z
" transform="scale(0.015625)"/>
      </defs>
      <use xlink:href="#DejaVuSans-55"/>
      <use xlink:href="#DejaVuSans-72" x="73.193359"/>
      <use xlink:href="#DejaVuSans-65" x="112.056641"/>
      <use xlink:href="#DejaVuSans-6a" x="173.580078"/>
      <use xlink:href="#DejaVuSans-65" x="201.363281"/>
      <use xlink:href="#DejaVuSans-6e" x="262.886719"/>
      <use xlink:href="#DejaVuSans-20" x="326.265625"/>
      <use xlink:href="#DejaVuSans-6e" x="358.052734"/>
      <use xlink:href="#DejaVuSans-69" x="421.431641"/>
      <use xlink:href="#DejaVuSans-76" x="449.214844"/>
      <use xlink:href="#DejaVuSans-6f" x="508.394531"/>
     </g>
    </g>
    <g id="line2d_22">
     <path d="M 308.109062 69.248562 
L 318.109062 69.248562 
L 328.109062 69.248562 
" style="fill: none; stroke: #0000ff; stroke-opacity: 0.5; stroke-width: 5; stroke-linecap: square"/>
    </g>
    <g id="text_23">
     <!-- Neurejen nivo -->
     <g transform="translate(336.109062 72.748562) scale(0.1 -0.1)">
      <use xlink:href="#DejaVuSans-4e"/>
      <use xlink:href="#DejaVuSans-65" x="74.804688"/>
      <use xlink:href="#DejaVuSans-75" x="136.328125"/>
      <use xlink:href="#DejaVuSans-72" x="199.707031"/>
      <use xlink:href="#DejaVuSans-65" x="238.570312"/>
      <use xlink:href="#DejaVuSans-6a" x="300.09375"/>
      <use xlink:href="#DejaVuSans-65" x="327.876953"/>
      <use xlink:href="#DejaVuSans-6e" x="389.400391"/>
      <use xlink:href="#DejaVuSans-20" x="452.779297"/>
      <use xlink:href="#DejaVuSans-6e" x="484.566406"/>
      <use xlink:href="#DejaVuSans-69" x="547.945312"/>
      <use xlink:href="#DejaVuSans-76" x="575.728516"/>
      <use xlink:href="#DejaVuSans-6f" x="634.908203"/>
     </g>
    </g>
   </g>
  </g>
 </g>
 <defs>
  <clipPath id="pe75504856e">
   <rect x="57.6" y="41.472" width="357.12" height="266.112"/>
  </clipPath>
 </defs>
</svg>
