<?xml version="1.0" encoding="utf-8" standalone="no"?>
<!DOCTYPE svg PUBLIC "-//W3C//DTD SVG 1.1//EN"
  "http://www.w3.org/Graphics/SVG/1.1/DTD/svg11.dtd">
<svg xmlns:xlink="http://www.w3.org/1999/xlink" width="460.8pt" height="345.6pt" viewBox="0 0 460.8 345.6" xmlns="http://www.w3.org/2000/svg" version="1.1">
 <metadata>
  <rdf:RDF xmlns:dc="http://purl.org/dc/elements/1.1/" xmlns:cc="http://creativecommons.org/ns#" xmlns:rdf="http://www.w3.org/1999/02/22-rdf-syntax-ns#">
   <cc:Work>
    <dc:type rdf:resource="http://purl.org/dc/dcmitype/StillImage"/>
    <dc:date>2024-08-28T18:18:03.860055</dc:date>
    <dc:format>image/svg+xml</dc:format>
    <dc:creator>
     <cc:Agent>
      <dc:title>Matplotlib v3.7.1, https://matplotlib.org/</dc:title>
     </cc:Agent>
    </dc:creator>
   </cc:Work>
  </rdf:RDF>
 </metadata>
 <defs>
  <style type="text/css">*{stroke-linejoin: round; stroke-linecap: butt}</style>
 </defs>
 <g id="figure_1">
  <g id="patch_1">
   <path d="M 0 345.6 
L 460.8 345.6 
L 460.8 0 
L 0 0 
z
" style="fill: #ffffff"/>
  </g>
  <g id="axes_1">
   <g id="patch_2">
    <path d="M 57.6 307.584 
L 414.72 307.584 
L 414.72 41.472 
L 57.6 41.472 
z
" style="fill: #ffffff"/>
   </g>
   <g id="line2d_1">
    <path d="M 57.989413 207.021365 
L 58.423028 206.529265 
L 58.835331 206.26453 
L 61.806245 200.670562 
L 62.188902 200.144658 
L 62.577934 199.380095 
L 63.742757 197.985995 
L 64.576859 196.496929 
L 65.394155 195.48282 
L 65.821942 195.378388 
L 66.060892 195.512894 
L 66.834745 193.195933 
L 67.190891 192.919587 
L 67.643469 192.124558 
L 68.120685 191.010369 
L 68.469145 189.842898 
L 68.633271 189.851692 
L 69.042972 188.923565 
L 69.48844 189.09728 
L 69.837523 188.877376 
L 70.535805 187.745194 
L 70.94527 188.655201 
L 71.606934 188.818042 
L 71.976992 189.580358 
L 72.442043 189.398382 
L 72.754339 189.628108 
L 73.211113 189.682735 
L 73.48971 189.874456 
L 73.82302 190.569558 
L 74.090792 190.579215 
L 74.904034 191.510819 
L 75.503215 191.721155 
L 76.03707 192.572322 
L 76.35779 192.552095 
L 76.771611 192.927949 
L 77.120406 193.51631 
L 77.298532 193.542082 
L 77.704016 193.387476 
L 78.35529 191.869352 
L 78.606548 190.684586 
L 78.756211 190.599061 
L 79.196163 189.937788 
L 79.251123 190.009825 
L 79.555059 189.746181 
L 79.895009 190.004203 
L 80.295246 189.436387 
L 81.087351 187.947816 
L 81.476523 187.477655 
L 81.845819 186.456821 
L 82.268857 186.851722 
L 82.599729 186.975556 
L 82.954335 187.483923 
L 83.299534 188.353794 
L 83.68604 187.920178 
L 83.995333 187.852875 
L 84.559955 187.568776 
L 85.019135 187.487273 
L 85.551897 188.240733 
L 86.041545 188.567557 
L 86.352277 188.098893 
L 86.754734 188.124678 
L 86.951461 187.979501 
L 87.52432 188.131492 
L 87.860251 187.939288 
L 88.246752 187.478962 
L 88.463403 187.441643 
L 88.583031 187.580298 
L 88.926271 186.742049 
L 89.328806 186.736275 
L 89.837142 186.979959 
L 89.786679 186.91466 
L 89.941846 186.544897 
L 90.255367 186.754408 
L 90.423217 186.845897 
L 90.716859 187.302531 
L 91.102026 187.13544 
L 91.384698 187.207464 
L 92.608754 186.309093 
L 93.191327 187.224125 
L 93.57129 187.314167 
L 94.406303 186.448027 
L 94.71193 186.689135 
L 95.352568 185.94235 
L 95.727112 185.974085 
L 96.464706 186.232856 
L 98.059103 183.566892 
L 98.023987 183.5901 
L 98.221863 183.37196 
L 98.994119 183.654599 
L 99.245193 183.300342 
L 100.341806 184.163157 
L 101.07193 184.188206 
L 101.496078 185.038878 
L 101.657676 184.997448 
L 102.023132 185.825837 
L 102.608142 184.618941 
L 117.664943 182.312779 
L 118.593951 183.92073 
L 118.902523 184.231222 
L 133.405619 203.590641 
L 133.964086 205.847696 
L 134.594117 207.521035 
L 135.133789 210.270716 
L 135.704653 211.23134 
L 136.733529 215.220288 
L 137.247389 213.597256 
L 137.832851 215.73993 
L 138.340571 216.608316 
L 138.854237 220.169353 
L 140.268342 227.589666 
L 140.887867 228.653345 
L 141.486461 231.747831 
L 142.169822 232.176168 
L 143.628101 238.257991 
L 144.14805 241.856791 
L 144.673932 243.600599 
L 145.141357 242.589021 
L 145.556731 240.142827 
L 145.977651 236.791906 
L 146.53054 235.694955 
L 146.848506 233.149785 
L 147.055208 232.820063 
L 148.891659 223.513689 
L 149.276062 221.990203 
L 150.81103 230.420888 
L 151.272484 233.76138 
L 151.676171 235.167845 
L 152.343449 234.315238 
L 152.910839 232.062961 
L 153.61107 232.286018 
L 154.157968 230.159986 
L 154.900417 231.246747 
L 155.271319 230.203541 
L 155.738344 232.88774 
L 156.321191 233.372887 
L 156.881847 236.192626 
L 157.475773 236.565219 
L 158.067427 236.743528 
L 158.710674 236.590775 
L 159.313987 235.674215 
L 159.751874 235.462251 
L 161.402555 232.546324 
L 162.180532 230.443091 
L 162.567303 229.87411 
L 163.004376 229.493313 
L 163.348026 228.605848 
L 164.522227 227.615458 
L 164.927693 227.334233 
L 165.715868 227.471267 
L 166.109553 226.892544 
L 166.532197 226.633301 
L 166.945933 226.620482 
L 168.084269 227.62004 
L 168.481963 228.110164 
L 169.693185 230.555264 
L 170.117708 230.728616 
L 170.950837 229.962234 
L 172.166757 227.496846 
L 172.988116 225.676084 
L 173.410532 225.050873 
L 173.83188 224.766052 
L 174.218543 224.902683 
L 174.676582 225.529178 
L 175.50373 227.654791 
L 175.892171 228.218607 
L 176.280831 229.551736 
L 176.660238 229.906299 
L 177.082858 229.843087 
L 177.839626 228.879424 
L 178.620268 227.123816 
L 180.229612 224.164765 
L 181.021278 223.397074 
L 183.492363 218.833229 
L 183.90451 218.578321 
L 181.146392 206.604093 
L 181.479401 206.358824 
L 181.664494 206.630195 
L 182.2789 207.050773 
L 182.787963 207.696216 
L 183.237162 207.986475 
L 183.566775 207.715186 
L 183.943352 206.72268 
L 184.186682 206.660478 
L 184.769244 206.790752 
L 185.039859 206.489358 
L 185.570241 206.198102 
L 185.879787 205.707886 
L 186.213494 206.162433 
L 186.54241 205.618066 
L 186.666244 205.847734 
L 186.604831 205.861115 
L 194.277059 215.149825 
L 194.671043 214.693141 
L 195.109679 213.69561 
L 195.539328 213.042744 
L 200.825367 209.354917 
L 201.384558 207.396953 
L 201.731229 205.496922 
L 202.321101 199.474503 
L 202.781844 196.359505 
L 203.355729 195.705947 
L 203.995431 196.18801 
L 204.519563 197.72428 
L 204.945261 200.680206 
L 205.406675 202.94056 
L 205.950383 203.36405 
L 206.609661 203.665273 
L 207.186323 205.297054 
L 207.710197 204.001283 
L 208.610816 197.366114 
L 209.248439 197.916128 
L 209.807694 195.562838 
L 210.181147 191.796237 
L 210.58865 189.449114 
L 211.104583 188.726019 
L 211.65334 189.149446 
L 212.240474 188.003648 
L 212.649862 188.423433 
L 213.197121 187.968461 
L 213.822284 185.284148 
L 214.932504 181.891865 
L 215.990595 180.562874 
L 216.512377 180.343414 
L 217.066247 182.607092 
L 217.35135 184.330312 
L 217.884069 185.57638 
L 218.550772 186.852661 
L 219.553829 193.196047 
L 220.08412 196.914036 
L 220.418679 198.452209 
L 220.917037 201.887172 
L 221.501886 204.191761 
L 222.880835 211.468362 
L 223.495925 211.533388 
L 223.978594 209.466202 
L 224.387247 206.92994 
L 224.899512 202.24936 
L 225.462499 199.176471 
L 226.017467 198.703646 
L 226.404543 196.134195 
L 226.962648 195.351043 
L 227.533641 196.679463 
L 228.045493 199.78082 
L 228.597078 200.503572 
L 229.039795 202.572338 
L 230.729479 214.889424 
L 231.613143 219.968013 
L 232.151751 220.994189 
L 232.688112 221.054381 
L 233.034796 220.162342 
L 233.7336 218.872128 
L 234.228433 215.610164 
L 234.815864 215.012483 
L 235.249541 211.865642 
L 235.847806 211.498759 
L 236.102021 211.628018 
L 236.686237 209.24317 
L 237.196811 207.890621 
L 237.793009 205.504802 
L 238.585871 200.967172 
L 239.0407 198.765011 
L 239.75243 197.081775 
L 240.329711 197.896232 
L 240.877758 196.575361 
L 241.359872 193.799114 
L 241.961933 192.450683 
L 242.340705 190.276171 
L 242.885601 188.441908 
L 243.49656 189.667889 
L 243.796422 189.432022 
L 244.113406 189.746041 
L 244.65519 191.855331 
L 245.093258 194.496932 
L 245.792501 197.092548 
L 246.38963 196.583038 
L 246.95928 197.112546 
L 247.624653 195.471095 
L 248.167922 197.792814 
L 248.799954 195.994919 
L 249.246647 191.852272 
L 249.836196 190.259929 
L 250.411721 191.524218 
L 251.019903 188.982468 
L 251.599858 185.436989 
L 252.061285 184.448589 
L 252.543322 182.495174 
L 252.901795 179.921294 
L 253.464575 178.871097 
L 254.158214 179.384046 
L 254.544902 178.568638 
L 255.034764 178.646321 
L 256.828099 190.796023 
L 257.959716 193.238315 
L 258.491376 191.540562 
L 259.12949 190.184149 
L 259.826177 184.455656 
L 260.310537 182.095857 
L 261.021028 180.042806 
L 261.637538 182.322651 
L 262.1411 180.194265 
L 262.718433 178.548804 
L 264.307823 171.855437 
L 264.852732 170.456084 
L 265.171589 167.061961 
L 266.184433 160.29539 
L 266.733797 159.230017 
L 268.021672 161.492147 
L 268.422758 163.767259 
L 269.367087 170.246064 
L 269.872405 173.166689 
L 270.731032 179.687775 
L 271.399116 182.7585 
L 272.474317 186.692992 
L 273.003808 185.403908 
L 273.527475 185.070791 
L 274.172497 182.899363 
L 274.544865 180.995652 
L 275.133019 180.275907 
L 275.662704 178.966368 
L 276.144869 179.378831 
L 276.781886 181.686008 
L 277.39429 180.10388 
L 277.939083 180.591386 
L 278.45242 183.123835 
L 278.983731 183.888931 
L 279.648045 184.187965 
L 280.267759 182.440673 
L 280.92949 182.610607 
L 281.371858 183.865481 
L 281.958463 182.238382 
L 282.435101 180.326816 
L 283.006624 180.443138 
L 283.987431 185.507858 
L 284.611845 186.651778 
L 285.087915 185.102743 
L 285.478038 185.102743 
L 286.230934 184.563134 
L 286.624802 183.848452 
L 287.067505 183.472598 
L 287.902863 183.222557 
L 288.28467 183.448501 
L 288.649044 183.987158 
L 289.050324 184.22366 
L 289.443339 184.766453 
L 289.843611 185.070449 
L 290.63992 185.999895 
L 291.049877 186.191058 
L 291.421844 186.662246 
L 291.847762 186.37179 
L 292.249506 186.489102 
L 293.071072 187.629481 
L 293.478137 187.966101 
L 293.854004 188.058415 
L 294.277468 187.864257 
L 294.647911 187.544172 
L 295.067191 187.586896 
L 295.912724 188.322731 
L 296.356874 188.652574 
L 296.803994 188.669248 
L 297.206771 188.877287 
L 298.012817 189.9344 
L 298.810004 191.415713 
L 299.207229 192.143008 
L 300.090648 193.116613 
L 300.515558 193.389025 
L 301.318323 192.614818 
L 303.276968 188.549297 
L 303.695474 187.828575 
L 304.122811 187.40808 
L 304.877412 185.921425 
L 305.280473 185.38122 
L 306.119627 184.639345 
L 306.507425 184.221997 
L 306.956353 183.994213 
L 307.354482 184.286255 
L 307.757363 184.089991 
L 308.998364 183.998629 
L 309.840849 185.163828 
L 317.529387 201.907379 
L 318.117412 204.371287 
L 319.160537 202.571583 
L 319.634309 201.987823 
L 320.124817 201.582707 
L 320.672812 198.627409 
L 321.168923 196.602706 
L 321.534279 196.171159 
L 322.040256 198.255958 
L 322.389419 197.441476 
L 323.77977 204.733463 
L 324.350905 205.902152 
L 324.807555 204.946807 
L 325.495164 207.274908 
L 326.071645 206.163695 
L 326.703754 204.501587 
L 327.287957 203.972853 
L 329.369894 218.648094 
L 330.580783 222.218038 
L 331.078521 220.204736 
L 331.831159 214.044392 
L 332.399221 211.586429 
L 333.039181 207.445762 
L 333.356424 204.603164 
L 333.885669 202.398953 
L 334.474727 202.649945 
L 334.951237 200.971715 
L 335.654315 200.73109 
L 336.225269 201.976967 
L 336.796224 205.63151 
L 337.224568 207.576195 
L 337.824783 207.590679 
L 338.499143 209.597896 
L 339.071698 208.209983 
L 339.556421 204.029472 
L 340.114385 203.027443 
L 340.865679 196.727835 
L 341.286767 193.253415 
L 341.810099 192.216757 
L 342.432059 190.484769 
L 343.312869 182.313642 
L 344.04229 175.742408 
L 344.47908 173.418062 
L 345.055147 169.288867 
L 345.646349 167.411689 
L 346.101191 164.672558 
L 346.568661 165.137693 
L 347.448387 158.339145 
L 348.056866 155.827075 
L 348.591923 156.123546 
L 349.310393 157.424837 
L 349.817351 159.428971 
L 350.283453 161.845669 
L 351.560352 165.210111 
L 352.201966 168.06064 
L 353.374581 175.0201 
L 354.016607 176.095435 
L 354.541023 177.849147 
L 355.211226 177.413564 
L 355.796978 180.703165 
L 356.350603 180.678561 
L 357.727008 174.185518 
L 358.257106 173.918918 
L 358.778837 172.210595 
L 359.232697 168.497098 
L 359.690406 168.34734 
L 360.327138 167.958403 
L 361.478731 170.352438 
L 361.904209 170.060447 
L 362.242241 168.580593 
L 362.654135 168.663555 
L 363.190793 170.70733 
L 363.870396 171.569181 
L 364.431975 172.605902 
L 365.368569 178.82265 
L 365.797327 180.327717 
L 366.340157 184.273274 
L 367.035798 185.61578 
L 367.724026 186.524924 
L 368.094547 186.55671 
L 369.026493 186.013841 
L 369.48495 184.441356 
L 370.146811 183.894933 
L 370.604752 184.479715 
L 371.172039 183.801515 
L 371.681941 183.82013 
L 372.194478 186.168966 
L 372.584497 187.173507 
L 373.676278 191.107809 
L 374.159864 193.541676 
L 374.872523 193.786983 
L 375.352261 196.450448 
L 375.8985 198.412035 
L 376.591584 198.490302 
L 377.049602 200.649346 
L 377.615934 201.30244 
L 378.142416 202.265704 
L 378.759263 201.193719 
L 379.350128 199.398989 
L 379.890711 198.819651 
L 380.523131 198.576881 
L 382.721413 183.874161 
L 383.241 183.25022 
L 383.674716 180.328631 
L 384.272839 179.676735 
L 385.0184 179.111431 
L 385.464384 180.554143 
L 385.972685 179.8219 
L 386.18239 179.829856 
L 386.806183 178.096929 
L 388.170477 176.371983 
L 390.435802 163.720816 
L 390.923985 162.641688 
L 391.265736 163.553928 
L 392.115763 169.152864 
L 392.495245 171.850691 
L 392.961889 173.361138 
L 393.609003 174.876535 
L 393.769484 173.928816 
L 394.357096 171.126201 
L 395.305906 167.825979 
L 395.79037 165.211748 
L 396.184754 162.311286 
L 396.503649 161.050817 
L 397.006553 161.4781 
L 398.10027 162.001898 
L 398.621071 159.178245 
L 399.198946 157.050696 
L 399.687129 154.551036 
L 400.456502 155.917993 
L 401.994835 164.634033 
L 403.295648 174.303109 
L 403.884009 176.870936 
L 404.264086 179.103056 
L 406.042881 191.985471 
L 406.863389 196.537966 
L 407.549887 198.868606 
L 407.942334 201.507111 
L 408.552621 202.288899 
L 408.965599 202.02787 
L 409.58291 201.996083 
L 410.049968 203.727399 
L 410.900563 209.060629 
L 411.593517 210.335736 
L 412.261963 208.888284 
L 412.910859 209.412831 
L 413.680336 213.243455 
L 414.171101 216.608621 
L 414.828184 218.607165 
L 415.350947 217.600714 
L 415.940108 214.918184 
L 416.888867 207.505319 
L 417.1073 206.82538 
L 417.429682 205.010126 
L 418.028451 205.727345 
L 418.573579 202.89427 
L 419.046628 198.524144 
L 419.574427 197.473947 
L 419.884852 195.576099 
L 420.358676 194.979414 
L 421.041275 192.982094 
L 421.278819 192.975306 
L 421.853957 193.885388 
L 422.401797 193.303753 
L 423.021433 191.192789 
L 423.73386 189.598618 
L 424.404579 184.26056 
L 424.932869 181.286717 
L 425.507103 179.554475 
L 426.240372 179.263422 
L 426.700095 177.762923 
L 427.161444 177.604956 
L 427.785987 178.693778 
L 428.502753 180.545743 
L 429.092999 183.369486 
L 429.552283 181.291831 
L 430.126413 181.717059 
L 430.457473 180.516266 
L 431.051309 179.654808 
L 431.580219 178.350282 
L 432.149313 178.654214 
L 432.630756 175.612585 
L 433.281821 174.243368 
L 433.884954 175.599489 
L 434.531267 177.449056 
L 435.097702 176.468561 
L 435.828569 176.490538 
L 436.254409 175.094256 
L 436.683089 171.340547 
L 438.067449 168.689517 
L 438.661982 168.527286 
L 439.215994 167.041164 
L 439.699761 168.770576 
L 440.179835 168.097883 
L 440.68341 170.549146 
L 441.120096 170.34957 
L 441.538756 168.9985 
L 442.113248 169.278081 
L 442.613492 170.43653 
L 443.250017 173.445217 
L 443.936774 173.914705 
L 444.428392 177.370979 
L 444.718337 178.27105 
L 445.310106 178.612897 
L 446.043788 179.667536 
L 446.60919 179.505824 
L 447.213459 177.352237 
L 447.848358 176.845227 
L 448.512956 176.675966 
L 449.673226 172.043402 
L 450.634251 169.173065 
L 451.186146 165.433834 
L 451.69783 162.843726 
L 452.336035 163.729014 
L 452.739974 164.92402 
L 453.213075 167.903852 
L 453.716753 167.535764 
L 454.27903 168.816892 
L 454.996622 168.226945 
L 455.488808 166.82178 
L 456.240335 159.515156 
L 456.817875 156.868441 
L 457.390869 157.284532 
L 457.834864 156.520223 
L 458.274831 158.292931 
L 458.983565 160.390166 
L 459.580474 161.250849 
L 460.086967 164.652737 
L 460.434452 166.086694 
L 460.892418 166.418644 
L 461.8 172.198657 
L 461.8 172.198657 
" clip-path="url(#p571373178b)" style="fill: none; stroke: #ff0000; stroke-opacity: 0.5; stroke-width: 5; stroke-linecap: square"/>
   </g>
   <g id="line2d_2">
    <path d="M 58.261775 235.121359 
L 58.847263 234.349044 
L 59.257522 233.351876 
L 59.576445 230.763828 
L 60.118686 227.516031 
L 60.531257 223.502016 
L 61.086826 220.673973 
L 61.896953 214.229532 
L 63.299729 208.717024 
L 63.726936 204.555667 
L 64.355676 203.12139 
L 65.327591 196.467255 
L 66.025833 196.214843 
L 66.586529 196.541335 
L 67.22015 196.232091 
L 68.226328 196.788167 
L 68.5573 193.822364 
L 69.080465 190.934932 
L 69.73203 188.240464 
L 70.164527 184.504946 
L 70.691139 182.311905 
L 71.196141 178.763846 
L 72.127559 175.467018 
L 72.85866 176.827404 
L 73.34634 175.773111 
L 73.95124 173.034055 
L 74.445052 175.15897 
L 74.871019 177.790783 
L 75.594771 179.908519 
L 76.944181 178.212247 
L 77.437405 180.718788 
L 78.067583 182.483421 
L 78.75171 183.723357 
L 79.193371 184.78715 
L 79.831603 182.052225 
L 80.557125 182.363572 
L 81.147515 179.590104 
L 81.772577 180.290072 
L 82.128115 182.436712 
L 82.614349 183.644082 
L 82.845121 183.878765 
L 83.408409 185.774316 
L 83.897677 188.688351 
L 84.469433 191.103653 
L 85.125117 192.156925 
L 85.616555 190.526954 
L 86.285624 183.033907 
L 86.687029 179.94437 
L 87.080071 179.167233 
L 87.677594 175.111694 
L 88.383758 175.833047 
L 88.820883 175.804789 
L 89.349312 174.975067 
L 90.015082 176.052923 
L 90.801232 176.043471 
L 91.833075 169.696909 
L 92.346732 167.783648 
L 92.900102 168.183814 
L 93.928638 172.31758 
L 95.462954 181.344201 
L 96.034716 183.268668 
L 96.601805 183.395068 
L 97.256245 181.711816 
L 97.788465 180.806785 
L 99.090467 184.752969 
L 99.681511 183.972916 
L 100.248961 185.71469 
L 100.912348 185.519143 
L 101.445876 189.046033 
L 102.745821 190.049224 
L 103.319313 190.606825 
L 104.172947 186.789078 
L 104.689406 186.617269 
L 105.150336 186.784822 
L 105.858284 188.396626 
L 106.361728 190.655427 
L 106.8471 190.549291 
L 107.549432 193.915638 
L 107.895476 195.743911 
L 108.462964 197.007776 
L 109.334534 201.194394 
L 109.757835 202.165503 
L 110.287435 204.852378 
L 111.207152 210.390669 
L 111.839594 213.264761 
L 113.332102 223.840736 
L 113.882641 225.762639 
L 114.614954 226.554121 
L 115.27331 224.280039 
L 116.564055 224.503281 
L 117.122061 224.044851 
L 117.600812 220.048108 
L 118.136017 220.141052 
L 118.627282 217.374833 
L 119.45153 210.033029 
L 119.956729 206.956694 
L 120.541356 204.843817 
L 121.125729 201.670889 
L 121.648583 199.710105 
L 122.37093 198.133996 
L 122.935821 198.104799 
L 124.178272 190.577086 
L 125.235623 188.890466 
L 126.332969 187.994241 
L 127.00625 188.851149 
L 127.495377 191.674441 
L 128.183842 192.481618 
L 128.654461 193.721303 
L 129.233282 192.571177 
L 130.049693 193.429627 
L 130.619204 196.333241 
L 131.309329 197.70897 
L 131.682774 199.77975 
L 132.297827 202.370525 
L 133.405621 203.590643 
L 133.964089 205.847697 
L 134.594118 207.521035 
L 135.133792 210.270715 
L 135.704651 211.231342 
L 136.733526 215.220287 
L 137.247388 213.597258 
L 137.832852 215.739928 
L 138.340573 216.608317 
L 138.854239 220.169355 
L 140.268339 227.589667 
L 140.887867 228.653342 
L 141.486458 231.747832 
L 142.169824 232.176169 
L 143.628104 238.257988 
L 144.148049 241.856792 
L 144.673929 243.600602 
L 145.141354 242.589018 
L 145.556729 240.142829 
L 145.977649 236.791905 
L 146.530541 235.694956 
L 146.848505 233.149788 
L 147.055206 232.820061 
L 148.89166 223.513691 
L 149.27606 221.990203 
L 150.811029 230.420891 
L 151.272481 233.761377 
L 151.676171 235.167846 
L 152.34345 234.31524 
L 152.910836 232.062963 
L 153.61107 232.286018 
L 154.157968 230.159985 
L 154.900416 231.246747 
L 155.27132 230.203542 
L 155.738343 232.887743 
L 156.321193 233.372886 
L 156.881851 236.192623 
L 157.475775 236.565221 
L 158.067429 236.743525 
L 158.710676 236.590776 
L 159.859988 234.910233 
L 160.411274 233.384064 
L 160.866777 229.590022 
L 161.340922 226.987045 
L 161.8617 226.408371 
L 162.199316 223.856376 
L 162.680538 222.152787 
L 163.104556 218.501127 
L 163.65466 217.049348 
L 164.491591 211.282219 
L 165.081428 211.976006 
L 165.694338 209.357119 
L 166.114556 208.689996 
L 166.751832 208.975322 
L 167.184197 210.796942 
L 167.762817 211.732376 
L 168.720523 216.988308 
L 169.176464 219.109941 
L 170.208924 225.373887 
L 170.947708 230.122891 
L 172.173916 237.899499 
L 172.762785 241.171055 
L 173.255509 241.928053 
L 173.785315 239.31168 
L 174.850741 227.632991 
L 175.191712 225.780084 
L 175.844247 223.464311 
L 176.553269 224.660413 
L 177.407452 229.862386 
L 179.230856 242.914297 
L 179.729898 245.36899 
L 180.309358 245.481393 
L 180.825843 244.138013 
L 181.404972 240.984955 
L 181.896622 237.590339 
L 182.672002 229.286199 
L 183.110969 228.361055 
L 183.766856 228.431009 
L 185.231915 219.330678 
L 185.764649 218.048834 
L 186.125902 215.167873 
L 186.847263 213.416819 
L 187.438222 212.089722 
L 187.801287 209.458887 
L 189.084066 209.998226 
L 189.654991 207.98765 
L 190.088623 205.817739 
L 190.742176 204.529961 
L 191.202581 205.896855 
L 191.991517 210.506577 
L 192.561345 211.311396 
L 193.171316 212.563735 
L 193.564501 212.593156 
L 193.702445 212.068263 
L 194.318484 212.95474 
L 194.964006 215.22321 
L 195.510107 213.608681 
L 196.065795 213.418198 
L 196.534444 210.393221 
L 197.077232 209.481601 
L 197.66094 207.558796 
L 198.678626 210.174384 
L 199.360674 213.196225 
L 200.062002 212.684208 
L 201.384558 207.396954 
L 201.731226 205.496921 
L 202.321106 199.474499 
L 202.781843 196.359501 
L 203.355733 195.705943 
L 203.995437 196.188011 
L 204.519565 197.724284 
L 204.945263 200.680201 
L 205.406679 202.94056 
L 205.950388 203.364047 
L 206.609666 203.66527 
L 207.186325 205.297054 
L 207.710196 204.00128 
L 208.610815 197.366119 
L 209.248437 197.916125 
L 209.807689 195.562835 
L 210.181147 191.796242 
L 210.588648 189.449115 
L 211.104588 188.72602 
L 211.653346 189.149441 
L 212.240474 188.003643 
L 212.64986 188.423434 
L 213.197115 187.968458 
L 213.822286 185.284146 
L 214.932509 181.891863 
L 215.990589 180.562872 
L 216.512378 180.343412 
L 217.066242 182.607097 
L 217.351345 184.330312 
L 217.884069 185.576386 
L 218.550768 186.852664 
L 219.553826 193.196046 
L 220.08412 196.914035 
L 220.418684 198.452214 
L 220.917037 201.887171 
L 221.50188 204.191763 
L 222.880836 211.468364 
L 223.495925 211.533388 
L 223.9786 209.4662 
L 224.387252 206.929942 
L 224.899517 202.249361 
L 225.462501 199.176467 
L 226.017464 198.70365 
L 226.40454 196.13419 
L 226.962645 195.351039 
L 227.533636 196.679467 
L 228.045487 199.78082 
L 228.597075 200.503574 
L 229.039799 202.572341 
L 230.729483 214.889423 
L 231.613145 219.968011 
L 232.151757 220.994189 
L 232.688117 221.054381 
L 233.034794 220.162342 
L 233.733605 218.872131 
L 234.228436 215.610164 
L 234.815864 215.012483 
L 235.249543 211.865642 
L 235.847812 211.498759 
L 236.102019 211.62802 
L 236.686233 209.243168 
L 237.196811 207.890618 
L 237.793007 205.504802 
L 238.585872 200.96717 
L 239.040699 198.765008 
L 239.752434 197.08177 
L 240.329709 197.896227 
L 240.877753 196.575366 
L 241.359877 193.799117 
L 241.961934 192.450685 
L 242.340709 190.276176 
L 242.885599 188.441908 
L 243.496565 189.667885 
L 243.796422 189.432028 
L 244.113407 189.746036 
L 244.655195 191.855325 
L 245.093264 194.496929 
L 245.792499 197.092542 
L 246.389633 196.583036 
L 246.959277 197.112542 
L 247.624658 195.471099 
L 248.16792 197.79281 
L 248.799951 195.994915 
L 249.246651 191.852277 
L 249.836192 190.259931 
L 250.411728 191.524222 
L 251.019897 188.982466 
L 251.599852 185.436994 
L 252.061283 184.448592 
L 252.543322 182.495168 
L 252.901791 179.921295 
L 253.464569 178.871094 
L 254.158219 179.384051 
L 254.5449 178.568634 
L 255.034759 178.646321 
L 256.828104 190.796026 
L 257.959721 193.238318 
L 258.491375 191.540564 
L 259.129496 190.184155 
L 259.826179 184.455656 
L 260.310542 182.095858 
L 261.021031 180.042804 
L 261.637539 182.322651 
L 262.141105 180.194267 
L 262.71843 178.548799 
L 264.307826 171.85544 
L 264.852731 170.456086 
L 265.171591 167.061964 
L 266.18443 160.295387 
L 266.733801 159.230018 
L 268.021668 161.492149 
L 268.422757 163.767265 
L 269.367086 170.246071 
L 269.872401 173.166691 
L 270.731038 179.68778 
L 271.399119 182.758502 
L 272.474317 186.692988 
L 273.003814 185.403915 
L 273.527476 185.070787 
L 274.172492 182.899369 
L 274.544854 180.995651 
L 275.133028 180.275903 
L 275.6627 178.966374 
L 276.14486 179.378834 
L 276.781877 181.686008 
L 277.394292 180.103881 
L 277.939072 180.591389 
L 278.452411 183.123831 
L 278.983735 183.888932 
L 279.648047 184.187962 
L 280.267758 182.440679 
L 280.929486 182.610607 
L 281.37187 183.865477 
L 281.958456 182.238382 
L 282.435111 180.32682 
L 283.006619 180.443137 
L 283.987435 185.507858 
L 284.61184 186.651774 
L 285.087912 185.10274 
L 285.665234 187.040254 
L 286.228814 188.084052 
L 286.862302 186.447428 
L 287.407514 182.935616 
L 288.139264 181.364524 
L 288.608115 181.71122 
L 289.305305 185.123384 
L 289.668162 187.668634 
L 290.274975 189.398026 
L 290.805322 192.868195 
L 291.396589 194.800546 
L 292.029246 195.612438 
L 292.481015 198.386675 
L 293.168509 199.461993 
L 293.579614 200.4314 
L 294.2308 201.478187 
L 294.596213 202.327805 
L 295.534186 207.580596 
L 295.96314 209.507992 
L 297.214227 206.379479 
L 297.785435 205.979308 
L 298.513186 206.877749 
L 298.849501 207.788278 
L 299.476846 207.60581 
L 300.103513 209.106032 
L 300.745179 211.601214 
L 301.397261 211.938747 
L 301.99185 212.883329 
L 302.561925 215.469636 
L 303.321203 220.086517 
L 304.913599 230.077799 
L 305.539645 229.463021 
L 306.771998 224.705901 
L 307.133883 221.831665 
L 307.691994 218.818575 
L 308.268145 216.480883 
L 309.063015 209.096612 
L 309.476799 206.168343 
L 310.375792 202.456111 
L 311.209042 197.511657 
L 311.667434 195.375405 
L 312.161655 194.81273 
L 312.631882 192.69763 
L 313.055966 192.763379 
L 313.732438 191.795053 
L 314.46528 193.073861 
L 314.883273 194.33208 
L 315.428532 192.711846 
L 315.951906 193.707574 
L 316.306875 196.17458 
L 318.117406 204.37129 
L 319.160539 202.571582 
L 319.634322 201.987825 
L 320.124809 201.582706 
L 320.672809 198.627407 
L 321.168927 196.602708 
L 321.534273 196.171163 
L 322.040257 198.255955 
L 322.389428 197.441474 
L 323.779766 204.733464 
L 324.350913 205.90215 
L 324.807561 204.946805 
L 325.495154 207.274906 
L 326.071643 206.163693 
L 326.703745 204.501586 
L 327.287968 203.972853 
L 329.369883 218.648095 
L 330.58078 222.218037 
L 331.078527 220.204737 
L 331.831171 214.044395 
L 332.399224 211.58643 
L 333.039182 207.445762 
L 333.356428 204.603164 
L 333.885681 202.398955 
L 334.474724 202.649946 
L 334.951243 200.971717 
L 335.654319 200.731091 
L 336.225282 201.976969 
L 336.796226 205.631509 
L 337.224562 207.576195 
L 337.824787 207.590682 
L 338.499141 209.597899 
L 339.071694 208.20998 
L 339.556427 204.029474 
L 340.114381 203.027445 
L 340.865686 196.727838 
L 341.286766 193.25341 
L 341.810096 192.216763 
L 342.432071 190.484772 
L 343.312859 182.313647 
L 344.042294 175.742403 
L 344.479086 173.418065 
L 345.055139 169.288864 
L 345.646352 167.411694 
L 346.101196 164.672552 
L 346.568653 165.137688 
L 347.448396 158.339148 
L 348.056864 155.827077 
L 348.591924 156.123547 
L 349.3104 157.424832 
L 349.817351 159.428969 
L 350.283444 161.845665 
L 351.560346 165.210114 
L 352.20196 168.060645 
L 353.37458 175.020103 
L 354.016599 176.09544 
L 354.541015 177.849141 
L 355.211218 177.413564 
L 355.796981 180.703162 
L 356.350607 180.678558 
L 357.727018 174.185514 
L 358.257098 173.91892 
L 358.77885 172.21059 
L 359.232685 168.497093 
L 359.690412 168.347339 
L 360.327137 167.958405 
L 361.478725 170.352437 
L 361.904217 170.060447 
L 362.242243 168.580597 
L 362.654146 168.663552 
L 363.190795 170.707325 
L 363.870398 171.569178 
L 364.431966 172.605904 
L 365.368563 178.822651 
L 365.797323 180.327721 
L 366.340167 184.273272 
L 367.035789 185.615779 
L 367.724029 186.524919 
L 368.094539 186.556709 
L 369.026485 186.013845 
L 369.48494 184.441362 
L 370.146799 183.894938 
L 370.604749 184.479712 
L 371.172043 183.80152 
L 371.681949 183.820128 
L 372.194473 186.168963 
L 372.584497 187.173506 
L 373.67628 191.107808 
L 374.159852 193.541679 
L 374.872518 193.786984 
L 375.352271 196.450451 
L 375.898502 198.41203 
L 376.591597 198.490297 
L 377.049609 200.649344 
L 377.615925 201.302439 
L 378.142411 202.265704 
L 378.759274 201.193721 
L 379.350117 199.398985 
L 379.890708 198.819651 
L 380.523138 198.576882 
L 382.7214 183.874164 
L 383.241009 183.250225 
L 383.674707 180.328633 
L 384.272827 179.67674 
L 385.018411 179.111427 
L 385.464388 180.554144 
L 385.972697 179.821897 
L 386.182402 179.829855 
L 386.806185 178.096929 
L 388.170488 176.371988 
L 390.435802 163.720812 
L 390.923987 162.641688 
L 391.265727 163.553923 
L 392.115751 169.152858 
L 392.495237 171.850697 
L 392.961892 173.361135 
L 393.609008 174.876537 
L 393.769491 173.928821 
L 394.357086 171.126199 
L 395.305898 167.825983 
L 395.790381 165.211753 
L 396.184748 162.311281 
L 396.503636 161.050816 
L 397.006556 161.478096 
L 398.100272 162.001892 
L 398.621077 159.178249 
L 399.198949 157.050695 
L 399.687117 154.551035 
L 400.456498 155.91799 
L 401.994834 164.634035 
L 403.295641 174.303114 
L 403.884019 176.870933 
L 404.264078 179.103052 
L 406.042868 191.985471 
L 406.863394 196.537963 
L 407.549894 198.868599 
L 407.942333 201.50711 
L 408.552616 202.288901 
L 408.965605 202.027872 
L 409.582906 201.996086 
L 410.04997 203.727401 
L 410.900559 209.060629 
L 411.593512 210.335735 
L 412.261969 208.888286 
L 412.910855 209.412829 
L 413.680327 213.243456 
L 414.171102 216.608623 
L 414.828184 218.607167 
L 415.350949 217.600711 
L 415.940112 214.918184 
L 416.888876 207.50532 
L 417.107309 206.825382 
L 417.429669 205.010126 
L 418.028458 205.727347 
L 418.573571 202.89427 
L 419.046631 198.52414 
L 419.574433 197.473948 
L 419.884844 195.576094 
L 420.358665 194.979417 
L 421.041262 192.982099 
L 421.27882 192.97531 
L 421.853953 193.885384 
L 422.401791 193.303755 
L 423.021431 191.192791 
L 423.733852 189.598618 
L 424.404569 184.260562 
L 424.932866 181.286716 
L 425.507112 179.554472 
L 426.240372 179.263418 
L 426.700082 177.762923 
L 427.161451 177.604959 
L 427.785998 178.693781 
L 428.502749 180.545742 
L 429.093006 183.369484 
L 429.552271 181.291836 
L 430.126411 181.717065 
L 430.457485 180.516261 
L 431.051315 179.654811 
L 431.58023 178.350288 
L 432.149312 178.654216 
L 432.630753 175.61258 
L 433.281813 174.243366 
L 433.884966 175.599492 
L 434.531265 177.449051 
L 435.097697 176.468566 
L 435.82858 176.490541 
L 436.254419 175.094252 
L 436.683087 171.340543 
L 438.067439 168.689513 
L 438.661976 168.527289 
L 439.215987 167.041167 
L 439.699763 168.770577 
L 440.179828 168.097881 
L 440.683404 170.549141 
L 441.12009 170.34957 
L 441.538751 168.998505 
L 442.113242 169.278084 
L 442.613484 170.436532 
L 443.250007 173.445222 
L 443.93678 173.914701 
L 444.428386 177.370983 
L 444.718327 178.271053 
L 445.310094 178.6129 
L 446.043793 179.667539 
L 446.609188 179.505825 
L 447.213463 177.352235 
L 447.84835 176.845228 
L 448.512959 176.675972 
L 449.673215 172.0434 
L 450.634257 169.173067 
L 451.186135 165.433838 
L 451.697835 162.843724 
L 452.336046 163.729014 
L 452.739969 164.924016 
L 453.213083 167.903855 
L 453.716744 167.535768 
L 454.279019 168.816885 
L 454.996614 168.226947 
L 455.488813 166.821776 
L 456.240343 159.515155 
L 456.817871 156.86844 
L 457.390865 157.284532 
L 457.834864 156.520227 
L 458.274826 158.292929 
L 458.983562 160.390161 
L 459.580466 161.250846 
L 460.086961 164.652733 
L 460.434464 166.086693 
L 460.892423 166.418646 
L 461.8 172.198681 
L 461.8 172.198681 
" clip-path="url(#p571373178b)" style="fill: none; stroke: #0000ff; stroke-opacity: 0.5; stroke-width: 5; stroke-linecap: square"/>
   </g>
   <g id="matplotlib.axis_1">
    <g id="xtick_1">
     <g id="line2d_3">
      <defs>
       <path id="m6b997e5cc7" d="M 0 0 
L 0 3.5 
" style="stroke: #000000; stroke-width: 0.8"/>
      </defs>
      <g>
       <use xlink:href="#m6b997e5cc7" x="57.6" y="307.584" style="stroke: #000000; stroke-width: 0.8"/>
      </g>
     </g>
     <g id="text_1">
      <!-- 0 -->
      <g transform="translate(54.41875 322.182437) scale(0.1 -0.1)">
       <defs>
        <path id="DejaVuSans-30" d="M 2034 4250 
Q 1547 4250 1301 3770 
Q 1056 3291 1056 2328 
Q 1056 1369 1301 889 
Q 1547 409 2034 409 
Q 2525 409 2770 889 
Q 3016 1369 3016 2328 
Q 3016 3291 2770 3770 
Q 2525 4250 2034 4250 
z
M 2034 4750 
Q 2819 4750 3233 4129 
Q 3647 3509 3647 2328 
Q 3647 1150 3233 529 
Q 2819 -91 2034 -91 
Q 1250 -91 836 529 
Q 422 1150 422 2328 
Q 422 3509 836 4129 
Q 1250 4750 2034 4750 
z
" transform="scale(0.015625)"/>
       </defs>
       <use xlink:href="#DejaVuSans-30"/>
      </g>
     </g>
    </g>
    <g id="xtick_2">
     <g id="line2d_4">
      <g>
       <use xlink:href="#m6b997e5cc7" x="99.912796" y="307.584" style="stroke: #000000; stroke-width: 0.8"/>
      </g>
     </g>
     <g id="text_2">
      <!-- 50 -->
      <g transform="translate(93.550296 322.182437) scale(0.1 -0.1)">
       <defs>
        <path id="DejaVuSans-35" d="M 691 4666 
L 3169 4666 
L 3169 4134 
L 1269 4134 
L 1269 2991 
Q 1406 3038 1543 3061 
Q 1681 3084 1819 3084 
Q 2600 3084 3056 2656 
Q 3513 2228 3513 1497 
Q 3513 744 3044 326 
Q 2575 -91 1722 -91 
Q 1428 -91 1123 -41 
Q 819 9 494 109 
L 494 744 
Q 775 591 1075 516 
Q 1375 441 1709 441 
Q 2250 441 2565 725 
Q 2881 1009 2881 1497 
Q 2881 1984 2565 2268 
Q 2250 2553 1709 2553 
Q 1456 2553 1204 2497 
Q 953 2441 691 2322 
L 691 4666 
z
" transform="scale(0.015625)"/>
       </defs>
       <use xlink:href="#DejaVuSans-35"/>
       <use xlink:href="#DejaVuSans-30" x="63.623047"/>
      </g>
     </g>
    </g>
    <g id="xtick_3">
     <g id="line2d_5">
      <g>
       <use xlink:href="#m6b997e5cc7" x="142.225592" y="307.584" style="stroke: #000000; stroke-width: 0.8"/>
      </g>
     </g>
     <g id="text_3">
      <!-- 100 -->
      <g transform="translate(132.681842 322.182437) scale(0.1 -0.1)">
       <defs>
        <path id="DejaVuSans-31" d="M 794 531 
L 1825 531 
L 1825 4091 
L 703 3866 
L 703 4441 
L 1819 4666 
L 2450 4666 
L 2450 531 
L 3481 531 
L 3481 0 
L 794 0 
L 794 531 
z
" transform="scale(0.015625)"/>
       </defs>
       <use xlink:href="#DejaVuSans-31"/>
       <use xlink:href="#DejaVuSans-30" x="63.623047"/>
       <use xlink:href="#DejaVuSans-30" x="127.246094"/>
      </g>
     </g>
    </g>
    <g id="xtick_4">
     <g id="line2d_6">
      <g>
       <use xlink:href="#m6b997e5cc7" x="184.538389" y="307.584" style="stroke: #000000; stroke-width: 0.8"/>
      </g>
     </g>
     <g id="text_4">
      <!-- 150 -->
      <g transform="translate(174.994639 322.182437) scale(0.1 -0.1)">
       <use xlink:href="#DejaVuSans-31"/>
       <use xlink:href="#DejaVuSans-35" x="63.623047"/>
       <use xlink:href="#DejaVuSans-30" x="127.246094"/>
      </g>
     </g>
    </g>
    <g id="xtick_5">
     <g id="line2d_7">
      <g>
       <use xlink:href="#m6b997e5cc7" x="226.851185" y="307.584" style="stroke: #000000; stroke-width: 0.8"/>
      </g>
     </g>
     <g id="text_5">
      <!-- 200 -->
      <g transform="translate(217.307435 322.182437) scale(0.1 -0.1)">
       <defs>
        <path id="DejaVuSans-32" d="M 1228 531 
L 3431 531 
L 3431 0 
L 469 0 
L 469 531 
Q 828 903 1448 1529 
Q 2069 2156 2228 2338 
Q 2531 2678 2651 2914 
Q 2772 3150 2772 3378 
Q 2772 3750 2511 3984 
Q 2250 4219 1831 4219 
Q 1534 4219 1204 4116 
Q 875 4013 500 3803 
L 500 4441 
Q 881 4594 1212 4672 
Q 1544 4750 1819 4750 
Q 2544 4750 2975 4387 
Q 3406 4025 3406 3419 
Q 3406 3131 3298 2873 
Q 3191 2616 2906 2266 
Q 2828 2175 2409 1742 
Q 1991 1309 1228 531 
z
" transform="scale(0.015625)"/>
       </defs>
       <use xlink:href="#DejaVuSans-32"/>
       <use xlink:href="#DejaVuSans-30" x="63.623047"/>
       <use xlink:href="#DejaVuSans-30" x="127.246094"/>
      </g>
     </g>
    </g>
    <g id="xtick_6">
     <g id="line2d_8">
      <g>
       <use xlink:href="#m6b997e5cc7" x="269.163981" y="307.584" style="stroke: #000000; stroke-width: 0.8"/>
      </g>
     </g>
     <g id="text_6">
      <!-- 250 -->
      <g transform="translate(259.620231 322.182437) scale(0.1 -0.1)">
       <use xlink:href="#DejaVuSans-32"/>
       <use xlink:href="#DejaVuSans-35" x="63.623047"/>
       <use xlink:href="#DejaVuSans-30" x="127.246094"/>
      </g>
     </g>
    </g>
    <g id="xtick_7">
     <g id="line2d_9">
      <g>
       <use xlink:href="#m6b997e5cc7" x="311.476777" y="307.584" style="stroke: #000000; stroke-width: 0.8"/>
      </g>
     </g>
     <g id="text_7">
      <!-- 300 -->
      <g transform="translate(301.933027 322.182437) scale(0.1 -0.1)">
       <defs>
        <path id="DejaVuSans-33" d="M 2597 2516 
Q 3050 2419 3304 2112 
Q 3559 1806 3559 1356 
Q 3559 666 3084 287 
Q 2609 -91 1734 -91 
Q 1441 -91 1130 -33 
Q 819 25 488 141 
L 488 750 
Q 750 597 1062 519 
Q 1375 441 1716 441 
Q 2309 441 2620 675 
Q 2931 909 2931 1356 
Q 2931 1769 2642 2001 
Q 2353 2234 1838 2234 
L 1294 2234 
L 1294 2753 
L 1863 2753 
Q 2328 2753 2575 2939 
Q 2822 3125 2822 3475 
Q 2822 3834 2567 4026 
Q 2313 4219 1838 4219 
Q 1578 4219 1281 4162 
Q 984 4106 628 3988 
L 628 4550 
Q 988 4650 1302 4700 
Q 1616 4750 1894 4750 
Q 2613 4750 3031 4423 
Q 3450 4097 3450 3541 
Q 3450 3153 3228 2886 
Q 3006 2619 2597 2516 
z
" transform="scale(0.015625)"/>
       </defs>
       <use xlink:href="#DejaVuSans-33"/>
       <use xlink:href="#DejaVuSans-30" x="63.623047"/>
       <use xlink:href="#DejaVuSans-30" x="127.246094"/>
      </g>
     </g>
    </g>
    <g id="xtick_8">
     <g id="line2d_10">
      <g>
       <use xlink:href="#m6b997e5cc7" x="353.789573" y="307.584" style="stroke: #000000; stroke-width: 0.8"/>
      </g>
     </g>
     <g id="text_8">
      <!-- 350 -->
      <g transform="translate(344.245823 322.182437) scale(0.1 -0.1)">
       <use xlink:href="#DejaVuSans-33"/>
       <use xlink:href="#DejaVuSans-35" x="63.623047"/>
       <use xlink:href="#DejaVuSans-30" x="127.246094"/>
      </g>
     </g>
    </g>
    <g id="xtick_9">
     <g id="line2d_11">
      <g>
       <use xlink:href="#m6b997e5cc7" x="396.10237" y="307.584" style="stroke: #000000; stroke-width: 0.8"/>
      </g>
     </g>
     <g id="text_9">
      <!-- 400 -->
      <g transform="translate(386.55862 322.182437) scale(0.1 -0.1)">
       <defs>
        <path id="DejaVuSans-34" d="M 2419 4116 
L 825 1625 
L 2419 1625 
L 2419 4116 
z
M 2253 4666 
L 3047 4666 
L 3047 1625 
L 3713 1625 
L 3713 1100 
L 3047 1100 
L 3047 0 
L 2419 0 
L 2419 1100 
L 313 1100 
L 313 1709 
L 2253 4666 
z
" transform="scale(0.015625)"/>
       </defs>
       <use xlink:href="#DejaVuSans-34"/>
       <use xlink:href="#DejaVuSans-30" x="63.623047"/>
       <use xlink:href="#DejaVuSans-30" x="127.246094"/>
      </g>
     </g>
    </g>
    <g id="text_10">
     <!-- X -->
     <g transform="translate(232.735 335.860562) scale(0.1 -0.1)">
      <defs>
       <path id="DejaVuSans-58" d="M 403 4666 
L 1081 4666 
L 2241 2931 
L 3406 4666 
L 4084 4666 
L 2584 2425 
L 4184 0 
L 3506 0 
L 2194 1984 
L 872 0 
L 191 0 
L 1856 2491 
L 403 4666 
z
" transform="scale(0.015625)"/>
      </defs>
      <use xlink:href="#DejaVuSans-58"/>
     </g>
    </g>
   </g>
   <g id="matplotlib.axis_2">
    <g id="ytick_1">
     <g id="line2d_12">
      <defs>
       <path id="m8dd1f0a8d3" d="M 0 0 
L -3.5 0 
" style="stroke: #000000; stroke-width: 0.8"/>
      </defs>
      <g>
       <use xlink:href="#m8dd1f0a8d3" x="57.6" y="307.584" style="stroke: #000000; stroke-width: 0.8"/>
      </g>
     </g>
     <g id="text_11">
      <!-- 0 -->
      <g transform="translate(44.2375 311.383219) scale(0.1 -0.1)">
       <use xlink:href="#DejaVuSans-30"/>
      </g>
     </g>
    </g>
    <g id="ytick_2">
     <g id="line2d_13">
      <g>
       <use xlink:href="#m8dd1f0a8d3" x="57.6" y="274.32" style="stroke: #000000; stroke-width: 0.8"/>
      </g>
     </g>
     <g id="text_12">
      <!-- 5 -->
      <g transform="translate(44.2375 278.119219) scale(0.1 -0.1)">
       <use xlink:href="#DejaVuSans-35"/>
      </g>
     </g>
    </g>
    <g id="ytick_3">
     <g id="line2d_14">
      <g>
       <use xlink:href="#m8dd1f0a8d3" x="57.6" y="241.056" style="stroke: #000000; stroke-width: 0.8"/>
      </g>
     </g>
     <g id="text_13">
      <!-- 10 -->
      <g transform="translate(37.875 244.855219) scale(0.1 -0.1)">
       <use xlink:href="#DejaVuSans-31"/>
       <use xlink:href="#DejaVuSans-30" x="63.623047"/>
      </g>
     </g>
    </g>
    <g id="ytick_4">
     <g id="line2d_15">
      <g>
       <use xlink:href="#m8dd1f0a8d3" x="57.6" y="207.792" style="stroke: #000000; stroke-width: 0.8"/>
      </g>
     </g>
     <g id="text_14">
      <!-- 15 -->
      <g transform="translate(37.875 211.591219) scale(0.1 -0.1)">
       <use xlink:href="#DejaVuSans-31"/>
       <use xlink:href="#DejaVuSans-35" x="63.623047"/>
      </g>
     </g>
    </g>
    <g id="ytick_5">
     <g id="line2d_16">
      <g>
       <use xlink:href="#m8dd1f0a8d3" x="57.6" y="174.528" style="stroke: #000000; stroke-width: 0.8"/>
      </g>
     </g>
     <g id="text_15">
      <!-- 20 -->
      <g transform="translate(37.875 178.327219) scale(0.1 -0.1)">
       <use xlink:href="#DejaVuSans-32"/>
       <use xlink:href="#DejaVuSans-30" x="63.623047"/>
      </g>
     </g>
    </g>
    <g id="ytick_6">
     <g id="line2d_17">
      <g>
       <use xlink:href="#m8dd1f0a8d3" x="57.6" y="141.264" style="stroke: #000000; stroke-width: 0.8"/>
      </g>
     </g>
     <g id="text_16">
      <!-- 25 -->
      <g transform="translate(37.875 145.063219) scale(0.1 -0.1)">
       <use xlink:href="#DejaVuSans-32"/>
       <use xlink:href="#DejaVuSans-35" x="63.623047"/>
      </g>
     </g>
    </g>
    <g id="ytick_7">
     <g id="line2d_18">
      <g>
       <use xlink:href="#m8dd1f0a8d3" x="57.6" y="108" style="stroke: #000000; stroke-width: 0.8"/>
      </g>
     </g>
     <g id="text_17">
      <!-- 30 -->
      <g transform="translate(37.875 111.799219) scale(0.1 -0.1)">
       <use xlink:href="#DejaVuSans-33"/>
       <use xlink:href="#DejaVuSans-30" x="63.623047"/>
      </g>
     </g>
    </g>
    <g id="ytick_8">
     <g id="line2d_19">
      <g>
       <use xlink:href="#m8dd1f0a8d3" x="57.6" y="74.736" style="stroke: #000000; stroke-width: 0.8"/>
      </g>
     </g>
     <g id="text_18">
      <!-- 35 -->
      <g transform="translate(37.875 78.535219) scale(0.1 -0.1)">
       <use xlink:href="#DejaVuSans-33"/>
       <use xlink:href="#DejaVuSans-35" x="63.623047"/>
      </g>
     </g>
    </g>
    <g id="ytick_9">
     <g id="line2d_20">
      <g>
       <use xlink:href="#m8dd1f0a8d3" x="57.6" y="41.472" style="stroke: #000000; stroke-width: 0.8"/>
      </g>
     </g>
     <g id="text_19">
      <!-- 40 -->
      <g transform="translate(37.875 45.271219) scale(0.1 -0.1)">
       <use xlink:href="#DejaVuSans-34"/>
       <use xlink:href="#DejaVuSans-30" x="63.623047"/>
      </g>
     </g>
    </g>
    <g id="text_20">
     <!-- Y -->
     <g transform="translate(31.795313 177.581906) rotate(-90) scale(0.1 -0.1)">
      <defs>
       <path id="DejaVuSans-59" d="M -13 4666 
L 666 4666 
L 1959 2747 
L 3244 4666 
L 3922 4666 
L 2272 2222 
L 2272 0 
L 1638 0 
L 1638 2222 
L -13 4666 
z
" transform="scale(0.015625)"/>
      </defs>
      <use xlink:href="#DejaVuSans-59"/>
     </g>
    </g>
   </g>
   <g id="patch_3">
    <path d="M 57.6 307.584 
L 57.6 41.472 
" style="fill: none; stroke: #000000; stroke-width: 0.8; stroke-linejoin: miter; stroke-linecap: square"/>
   </g>
   <g id="patch_4">
    <path d="M 414.72 307.584 
L 414.72 41.472 
" style="fill: none; stroke: #000000; stroke-width: 0.8; stroke-linejoin: miter; stroke-linecap: square"/>
   </g>
   <g id="patch_5">
    <path d="M 57.6 307.584 
L 414.72 307.584 
" style="fill: none; stroke: #000000; stroke-width: 0.8; stroke-linejoin: miter; stroke-linecap: square"/>
   </g>
   <g id="patch_6">
    <path d="M 57.6 41.472 
L 414.72 41.472 
" style="fill: none; stroke: #000000; stroke-width: 0.8; stroke-linejoin: miter; stroke-linecap: square"/>
   </g>
   <g id="text_21">
    <!-- Primerjava segmentev nivojev: Generiran nivo 3 (neurejen) vs Generiran nivo 3 (urejen) -->
    <g transform="translate(-28.247812 35.472) scale(0.12 -0.12)">
     <defs>
      <path id="DejaVuSans-50" d="M 1259 4147 
L 1259 2394 
L 2053 2394 
Q 2494 2394 2734 2622 
Q 2975 2850 2975 3272 
Q 2975 3691 2734 3919 
Q 2494 4147 2053 4147 
L 1259 4147 
z
M 628 4666 
L 2053 4666 
Q 2838 4666 3239 4311 
Q 3641 3956 3641 3272 
Q 3641 2581 3239 2228 
Q 2838 1875 2053 1875 
L 1259 1875 
L 1259 0 
L 628 0 
L 628 4666 
z
" transform="scale(0.015625)"/>
      <path id="DejaVuSans-72" d="M 2631 2963 
Q 2534 3019 2420 3045 
Q 2306 3072 2169 3072 
Q 1681 3072 1420 2755 
Q 1159 2438 1159 1844 
L 1159 0 
L 581 0 
L 581 3500 
L 1159 3500 
L 1159 2956 
Q 1341 3275 1631 3429 
Q 1922 3584 2338 3584 
Q 2397 3584 2469 3576 
Q 2541 3569 2628 3553 
L 2631 2963 
z
" transform="scale(0.015625)"/>
      <path id="DejaVuSans-69" d="M 603 3500 
L 1178 3500 
L 1178 0 
L 603 0 
L 603 3500 
z
M 603 4863 
L 1178 4863 
L 1178 4134 
L 603 4134 
L 603 4863 
z
" transform="scale(0.015625)"/>
      <path id="DejaVuSans-6d" d="M 3328 2828 
Q 3544 3216 3844 3400 
Q 4144 3584 4550 3584 
Q 5097 3584 5394 3201 
Q 5691 2819 5691 2113 
L 5691 0 
L 5113 0 
L 5113 2094 
Q 5113 2597 4934 2840 
Q 4756 3084 4391 3084 
Q 3944 3084 3684 2787 
Q 3425 2491 3425 1978 
L 3425 0 
L 2847 0 
L 2847 2094 
Q 2847 2600 2669 2842 
Q 2491 3084 2119 3084 
Q 1678 3084 1418 2786 
Q 1159 2488 1159 1978 
L 1159 0 
L 581 0 
L 581 3500 
L 1159 3500 
L 1159 2956 
Q 1356 3278 1631 3431 
Q 1906 3584 2284 3584 
Q 2666 3584 2933 3390 
Q 3200 3197 3328 2828 
z
" transform="scale(0.015625)"/>
      <path id="DejaVuSans-65" d="M 3597 1894 
L 3597 1613 
L 953 1613 
Q 991 1019 1311 708 
Q 1631 397 2203 397 
Q 2534 397 2845 478 
Q 3156 559 3463 722 
L 3463 178 
Q 3153 47 2828 -22 
Q 2503 -91 2169 -91 
Q 1331 -91 842 396 
Q 353 884 353 1716 
Q 353 2575 817 3079 
Q 1281 3584 2069 3584 
Q 2775 3584 3186 3129 
Q 3597 2675 3597 1894 
z
M 3022 2063 
Q 3016 2534 2758 2815 
Q 2500 3097 2075 3097 
Q 1594 3097 1305 2825 
Q 1016 2553 972 2059 
L 3022 2063 
z
" transform="scale(0.015625)"/>
      <path id="DejaVuSans-6a" d="M 603 3500 
L 1178 3500 
L 1178 -63 
Q 1178 -731 923 -1031 
Q 669 -1331 103 -1331 
L -116 -1331 
L -116 -844 
L 38 -844 
Q 366 -844 484 -692 
Q 603 -541 603 -63 
L 603 3500 
z
M 603 4863 
L 1178 4863 
L 1178 4134 
L 603 4134 
L 603 4863 
z
" transform="scale(0.015625)"/>
      <path id="DejaVuSans-61" d="M 2194 1759 
Q 1497 1759 1228 1600 
Q 959 1441 959 1056 
Q 959 750 1161 570 
Q 1363 391 1709 391 
Q 2188 391 2477 730 
Q 2766 1069 2766 1631 
L 2766 1759 
L 2194 1759 
z
M 3341 1997 
L 3341 0 
L 2766 0 
L 2766 531 
Q 2569 213 2275 61 
Q 1981 -91 1556 -91 
Q 1019 -91 701 211 
Q 384 513 384 1019 
Q 384 1609 779 1909 
Q 1175 2209 1959 2209 
L 2766 2209 
L 2766 2266 
Q 2766 2663 2505 2880 
Q 2244 3097 1772 3097 
Q 1472 3097 1187 3025 
Q 903 2953 641 2809 
L 641 3341 
Q 956 3463 1253 3523 
Q 1550 3584 1831 3584 
Q 2591 3584 2966 3190 
Q 3341 2797 3341 1997 
z
" transform="scale(0.015625)"/>
      <path id="DejaVuSans-76" d="M 191 3500 
L 800 3500 
L 1894 563 
L 2988 3500 
L 3597 3500 
L 2284 0 
L 1503 0 
L 191 3500 
z
" transform="scale(0.015625)"/>
      <path id="DejaVuSans-20" transform="scale(0.015625)"/>
      <path id="DejaVuSans-73" d="M 2834 3397 
L 2834 2853 
Q 2591 2978 2328 3040 
Q 2066 3103 1784 3103 
Q 1356 3103 1142 2972 
Q 928 2841 928 2578 
Q 928 2378 1081 2264 
Q 1234 2150 1697 2047 
L 1894 2003 
Q 2506 1872 2764 1633 
Q 3022 1394 3022 966 
Q 3022 478 2636 193 
Q 2250 -91 1575 -91 
Q 1294 -91 989 -36 
Q 684 19 347 128 
L 347 722 
Q 666 556 975 473 
Q 1284 391 1588 391 
Q 1994 391 2212 530 
Q 2431 669 2431 922 
Q 2431 1156 2273 1281 
Q 2116 1406 1581 1522 
L 1381 1569 
Q 847 1681 609 1914 
Q 372 2147 372 2553 
Q 372 3047 722 3315 
Q 1072 3584 1716 3584 
Q 2034 3584 2315 3537 
Q 2597 3491 2834 3397 
z
" transform="scale(0.015625)"/>
      <path id="DejaVuSans-67" d="M 2906 1791 
Q 2906 2416 2648 2759 
Q 2391 3103 1925 3103 
Q 1463 3103 1205 2759 
Q 947 2416 947 1791 
Q 947 1169 1205 825 
Q 1463 481 1925 481 
Q 2391 481 2648 825 
Q 2906 1169 2906 1791 
z
M 3481 434 
Q 3481 -459 3084 -895 
Q 2688 -1331 1869 -1331 
Q 1566 -1331 1297 -1286 
Q 1028 -1241 775 -1147 
L 775 -588 
Q 1028 -725 1275 -790 
Q 1522 -856 1778 -856 
Q 2344 -856 2625 -561 
Q 2906 -266 2906 331 
L 2906 616 
Q 2728 306 2450 153 
Q 2172 0 1784 0 
Q 1141 0 747 490 
Q 353 981 353 1791 
Q 353 2603 747 3093 
Q 1141 3584 1784 3584 
Q 2172 3584 2450 3431 
Q 2728 3278 2906 2969 
L 2906 3500 
L 3481 3500 
L 3481 434 
z
" transform="scale(0.015625)"/>
      <path id="DejaVuSans-6e" d="M 3513 2113 
L 3513 0 
L 2938 0 
L 2938 2094 
Q 2938 2591 2744 2837 
Q 2550 3084 2163 3084 
Q 1697 3084 1428 2787 
Q 1159 2491 1159 1978 
L 1159 0 
L 581 0 
L 581 3500 
L 1159 3500 
L 1159 2956 
Q 1366 3272 1645 3428 
Q 1925 3584 2291 3584 
Q 2894 3584 3203 3211 
Q 3513 2838 3513 2113 
z
" transform="scale(0.015625)"/>
      <path id="DejaVuSans-74" d="M 1172 4494 
L 1172 3500 
L 2356 3500 
L 2356 3053 
L 1172 3053 
L 1172 1153 
Q 1172 725 1289 603 
Q 1406 481 1766 481 
L 2356 481 
L 2356 0 
L 1766 0 
Q 1100 0 847 248 
Q 594 497 594 1153 
L 594 3053 
L 172 3053 
L 172 3500 
L 594 3500 
L 594 4494 
L 1172 4494 
z
" transform="scale(0.015625)"/>
      <path id="DejaVuSans-6f" d="M 1959 3097 
Q 1497 3097 1228 2736 
Q 959 2375 959 1747 
Q 959 1119 1226 758 
Q 1494 397 1959 397 
Q 2419 397 2687 759 
Q 2956 1122 2956 1747 
Q 2956 2369 2687 2733 
Q 2419 3097 1959 3097 
z
M 1959 3584 
Q 2709 3584 3137 3096 
Q 3566 2609 3566 1747 
Q 3566 888 3137 398 
Q 2709 -91 1959 -91 
Q 1206 -91 779 398 
Q 353 888 353 1747 
Q 353 2609 779 3096 
Q 1206 3584 1959 3584 
z
" transform="scale(0.015625)"/>
      <path id="DejaVuSans-3a" d="M 750 794 
L 1409 794 
L 1409 0 
L 750 0 
L 750 794 
z
M 750 3309 
L 1409 3309 
L 1409 2516 
L 750 2516 
L 750 3309 
z
" transform="scale(0.015625)"/>
      <path id="DejaVuSans-47" d="M 3809 666 
L 3809 1919 
L 2778 1919 
L 2778 2438 
L 4434 2438 
L 4434 434 
Q 4069 175 3628 42 
Q 3188 -91 2688 -91 
Q 1594 -91 976 548 
Q 359 1188 359 2328 
Q 359 3472 976 4111 
Q 1594 4750 2688 4750 
Q 3144 4750 3555 4637 
Q 3966 4525 4313 4306 
L 4313 3634 
Q 3963 3931 3569 4081 
Q 3175 4231 2741 4231 
Q 1884 4231 1454 3753 
Q 1025 3275 1025 2328 
Q 1025 1384 1454 906 
Q 1884 428 2741 428 
Q 3075 428 3337 486 
Q 3600 544 3809 666 
z
" transform="scale(0.015625)"/>
      <path id="DejaVuSans-28" d="M 1984 4856 
Q 1566 4138 1362 3434 
Q 1159 2731 1159 2009 
Q 1159 1288 1364 580 
Q 1569 -128 1984 -844 
L 1484 -844 
Q 1016 -109 783 600 
Q 550 1309 550 2009 
Q 550 2706 781 3412 
Q 1013 4119 1484 4856 
L 1984 4856 
z
" transform="scale(0.015625)"/>
      <path id="DejaVuSans-75" d="M 544 1381 
L 544 3500 
L 1119 3500 
L 1119 1403 
Q 1119 906 1312 657 
Q 1506 409 1894 409 
Q 2359 409 2629 706 
Q 2900 1003 2900 1516 
L 2900 3500 
L 3475 3500 
L 3475 0 
L 2900 0 
L 2900 538 
Q 2691 219 2414 64 
Q 2138 -91 1772 -91 
Q 1169 -91 856 284 
Q 544 659 544 1381 
z
M 1991 3584 
L 1991 3584 
z
" transform="scale(0.015625)"/>
      <path id="DejaVuSans-29" d="M 513 4856 
L 1013 4856 
Q 1481 4119 1714 3412 
Q 1947 2706 1947 2009 
Q 1947 1309 1714 600 
Q 1481 -109 1013 -844 
L 513 -844 
Q 928 -128 1133 580 
Q 1338 1288 1338 2009 
Q 1338 2731 1133 3434 
Q 928 4138 513 4856 
z
" transform="scale(0.015625)"/>
     </defs>
     <use xlink:href="#DejaVuSans-50"/>
     <use xlink:href="#DejaVuSans-72" x="58.552734"/>
     <use xlink:href="#DejaVuSans-69" x="99.666016"/>
     <use xlink:href="#DejaVuSans-6d" x="127.449219"/>
     <use xlink:href="#DejaVuSans-65" x="224.861328"/>
     <use xlink:href="#DejaVuSans-72" x="286.384766"/>
     <use xlink:href="#DejaVuSans-6a" x="327.498047"/>
     <use xlink:href="#DejaVuSans-61" x="355.28125"/>
     <use xlink:href="#DejaVuSans-76" x="416.560547"/>
     <use xlink:href="#DejaVuSans-61" x="475.740234"/>
     <use xlink:href="#DejaVuSans-20" x="537.019531"/>
     <use xlink:href="#DejaVuSans-73" x="568.806641"/>
     <use xlink:href="#DejaVuSans-65" x="620.90625"/>
     <use xlink:href="#DejaVuSans-67" x="682.429688"/>
     <use xlink:href="#DejaVuSans-6d" x="745.90625"/>
     <use xlink:href="#DejaVuSans-65" x="843.318359"/>
     <use xlink:href="#DejaVuSans-6e" x="904.841797"/>
     <use xlink:href="#DejaVuSans-74" x="968.220703"/>
     <use xlink:href="#DejaVuSans-65" x="1007.429688"/>
     <use xlink:href="#DejaVuSans-76" x="1068.953125"/>
     <use xlink:href="#DejaVuSans-20" x="1128.132812"/>
     <use xlink:href="#DejaVuSans-6e" x="1159.919922"/>
     <use xlink:href="#DejaVuSans-69" x="1223.298828"/>
     <use xlink:href="#DejaVuSans-76" x="1251.082031"/>
     <use xlink:href="#DejaVuSans-6f" x="1310.261719"/>
     <use xlink:href="#DejaVuSans-6a" x="1371.443359"/>
     <use xlink:href="#DejaVuSans-65" x="1399.226562"/>
     <use xlink:href="#DejaVuSans-76" x="1460.75"/>
     <use xlink:href="#DejaVuSans-3a" x="1514.429688"/>
     <use xlink:href="#DejaVuSans-20" x="1548.121094"/>
     <use xlink:href="#DejaVuSans-47" x="1579.908203"/>
     <use xlink:href="#DejaVuSans-65" x="1657.398438"/>
     <use xlink:href="#DejaVuSans-6e" x="1718.921875"/>
     <use xlink:href="#DejaVuSans-65" x="1782.300781"/>
     <use xlink:href="#DejaVuSans-72" x="1843.824219"/>
     <use xlink:href="#DejaVuSans-69" x="1884.9375"/>
     <use xlink:href="#DejaVuSans-72" x="1912.720703"/>
     <use xlink:href="#DejaVuSans-61" x="1953.833984"/>
     <use xlink:href="#DejaVuSans-6e" x="2015.113281"/>
     <use xlink:href="#DejaVuSans-20" x="2078.492188"/>
     <use xlink:href="#DejaVuSans-6e" x="2110.279297"/>
     <use xlink:href="#DejaVuSans-69" x="2173.658203"/>
     <use xlink:href="#DejaVuSans-76" x="2201.441406"/>
     <use xlink:href="#DejaVuSans-6f" x="2260.621094"/>
     <use xlink:href="#DejaVuSans-20" x="2321.802734"/>
     <use xlink:href="#DejaVuSans-33" x="2353.589844"/>
     <use xlink:href="#DejaVuSans-20" x="2417.212891"/>
     <use xlink:href="#DejaVuSans-28" x="2449"/>
     <use xlink:href="#DejaVuSans-6e" x="2488.013672"/>
     <use xlink:href="#DejaVuSans-65" x="2551.392578"/>
     <use xlink:href="#DejaVuSans-75" x="2612.916016"/>
     <use xlink:href="#DejaVuSans-72" x="2676.294922"/>
     <use xlink:href="#DejaVuSans-65" x="2715.158203"/>
     <use xlink:href="#DejaVuSans-6a" x="2776.681641"/>
     <use xlink:href="#DejaVuSans-65" x="2804.464844"/>
     <use xlink:href="#DejaVuSans-6e" x="2865.988281"/>
     <use xlink:href="#DejaVuSans-29" x="2929.367188"/>
     <use xlink:href="#DejaVuSans-20" x="2968.380859"/>
     <use xlink:href="#DejaVuSans-76" x="3000.167969"/>
     <use xlink:href="#DejaVuSans-73" x="3059.347656"/>
     <use xlink:href="#DejaVuSans-20" x="3111.447266"/>
     <use xlink:href="#DejaVuSans-47" x="3143.234375"/>
     <use xlink:href="#DejaVuSans-65" x="3220.724609"/>
     <use xlink:href="#DejaVuSans-6e" x="3282.248047"/>
     <use xlink:href="#DejaVuSans-65" x="3345.626953"/>
     <use xlink:href="#DejaVuSans-72" x="3407.150391"/>
     <use xlink:href="#DejaVuSans-69" x="3448.263672"/>
     <use xlink:href="#DejaVuSans-72" x="3476.046875"/>
     <use xlink:href="#DejaVuSans-61" x="3517.160156"/>
     <use xlink:href="#DejaVuSans-6e" x="3578.439453"/>
     <use xlink:href="#DejaVuSans-20" x="3641.818359"/>
     <use xlink:href="#DejaVuSans-6e" x="3673.605469"/>
     <use xlink:href="#DejaVuSans-69" x="3736.984375"/>
     <use xlink:href="#DejaVuSans-76" x="3764.767578"/>
     <use xlink:href="#DejaVuSans-6f" x="3823.947266"/>
     <use xlink:href="#DejaVuSans-20" x="3885.128906"/>
     <use xlink:href="#DejaVuSans-33" x="3916.916016"/>
     <use xlink:href="#DejaVuSans-20" x="3980.539062"/>
     <use xlink:href="#DejaVuSans-28" x="4012.326172"/>
     <use xlink:href="#DejaVuSans-75" x="4051.339844"/>
     <use xlink:href="#DejaVuSans-72" x="4114.71875"/>
     <use xlink:href="#DejaVuSans-65" x="4153.582031"/>
     <use xlink:href="#DejaVuSans-6a" x="4215.105469"/>
     <use xlink:href="#DejaVuSans-65" x="4242.888672"/>
     <use xlink:href="#DejaVuSans-6e" x="4304.412109"/>
     <use xlink:href="#DejaVuSans-29" x="4367.791016"/>
    </g>
   </g>
   <g id="legend_1">
    <g id="patch_7">
     <path d="M 306.109062 78.82825 
L 407.72 78.82825 
Q 409.72 78.82825 409.72 76.82825 
L 409.72 48.472 
Q 409.72 46.472 407.72 46.472 
L 306.109062 46.472 
Q 304.109062 46.472 304.109062 48.472 
L 304.109062 76.82825 
Q 304.109062 78.82825 306.109062 78.82825 
z
" style="fill: #ffffff; opacity: 0.8; stroke: #cccccc; stroke-linejoin: miter"/>
    </g>
    <g id="line2d_21">
     <path d="M 308.109062 54.570437 
L 318.109062 54.570437 
L 328.109062 54.570437 
" style="fill: none; stroke: #ff0000; stroke-opacity: 0.5; stroke-width: 5; stroke-linecap: square"/>
    </g>
    <g id="text_22">
     <!-- Urejen nivo -->
     <g transform="translate(336.109062 58.070437) scale(0.1 -0.1)">
      <defs>
       <path id="DejaVuSans-55" d="M 556 4666 
L 1191 4666 
L 1191 1831 
Q 1191 1081 1462 751 
Q 1734 422 2344 422 
Q 2950 422 3222 751 
Q 3494 1081 3494 1831 
L 3494 4666 
L 4128 4666 
L 4128 1753 
Q 4128 841 3676 375 
Q 3225 -91 2344 -91 
Q 1459 -91 1007 375 
Q 556 841 556 1753 
L 556 4666 
z
" transform="scale(0.015625)"/>
      </defs>
      <use xlink:href="#DejaVuSans-55"/>
      <use xlink:href="#DejaVuSans-72" x="73.193359"/>
      <use xlink:href="#DejaVuSans-65" x="112.056641"/>
      <use xlink:href="#DejaVuSans-6a" x="173.580078"/>
      <use xlink:href="#DejaVuSans-65" x="201.363281"/>
      <use xlink:href="#DejaVuSans-6e" x="262.886719"/>
      <use xlink:href="#DejaVuSans-20" x="326.265625"/>
      <use xlink:href="#DejaVuSans-6e" x="358.052734"/>
      <use xlink:href="#DejaVuSans-69" x="421.431641"/>
      <use xlink:href="#DejaVuSans-76" x="449.214844"/>
      <use xlink:href="#DejaVuSans-6f" x="508.394531"/>
     </g>
    </g>
    <g id="line2d_22">
     <path d="M 308.109062 69.248562 
L 318.109062 69.248562 
L 328.109062 69.248562 
" style="fill: none; stroke: #0000ff; stroke-opacity: 0.5; stroke-width: 5; stroke-linecap: square"/>
    </g>
    <g id="text_23">
     <!-- Neurejen nivo -->
     <g transform="translate(336.109062 72.748562) scale(0.1 -0.1)">
      <defs>
       <path id="DejaVuSans-4e" d="M 628 4666 
L 1478 4666 
L 3547 763 
L 3547 4666 
L 4159 4666 
L 4159 0 
L 3309 0 
L 1241 3903 
L 1241 0 
L 628 0 
L 628 4666 
z
" transform="scale(0.015625)"/>
      </defs>
      <use xlink:href="#DejaVuSans-4e"/>
      <use xlink:href="#DejaVuSans-65" x="74.804688"/>
      <use xlink:href="#DejaVuSans-75" x="136.328125"/>
      <use xlink:href="#DejaVuSans-72" x="199.707031"/>
      <use xlink:href="#DejaVuSans-65" x="238.570312"/>
      <use xlink:href="#DejaVuSans-6a" x="300.09375"/>
      <use xlink:href="#DejaVuSans-65" x="327.876953"/>
      <use xlink:href="#DejaVuSans-6e" x="389.400391"/>
      <use xlink:href="#DejaVuSans-20" x="452.779297"/>
      <use xlink:href="#DejaVuSans-6e" x="484.566406"/>
      <use xlink:href="#DejaVuSans-69" x="547.945312"/>
      <use xlink:href="#DejaVuSans-76" x="575.728516"/>
      <use xlink:href="#DejaVuSans-6f" x="634.908203"/>
     </g>
    </g>
   </g>
  </g>
 </g>
 <defs>
  <clipPath id="p571373178b">
   <rect x="57.6" y="41.472" width="357.12" height="266.112"/>
  </clipPath>
 </defs>
</svg>
